<?xml version="1.0" encoding="utf-8" standalone="no"?>
<!DOCTYPE svg PUBLIC "-//W3C//DTD SVG 1.1//EN"
  "http://www.w3.org/Graphics/SVG/1.1/DTD/svg11.dtd">
<svg xmlns:xlink="http://www.w3.org/1999/xlink" width="720pt" height="324pt" viewBox="0 0 720 324" xmlns="http://www.w3.org/2000/svg" version="1.1">
 <metadata>
  <rdf:RDF xmlns:dc="http://purl.org/dc/elements/1.1/" xmlns:cc="http://creativecommons.org/ns#" xmlns:rdf="http://www.w3.org/1999/02/22-rdf-syntax-ns#">
   <cc:Work>
    <dc:type rdf:resource="http://purl.org/dc/dcmitype/StillImage"/>
    <dc:date>2025-09-09T06:25:04.772601</dc:date>
    <dc:format>image/svg+xml</dc:format>
    <dc:creator>
     <cc:Agent>
      <dc:title>Matplotlib v3.10.1, https://matplotlib.org/</dc:title>
     </cc:Agent>
    </dc:creator>
   </cc:Work>
  </rdf:RDF>
 </metadata>
 <defs>
  <style type="text/css">*{stroke-linejoin: round; stroke-linecap: butt}</style>
 </defs>
 <g id="figure_1">
  <g id="patch_1">
   <path d="M 0 324 
L 720 324 
L 720 0 
L 0 0 
z
" style="fill: #f8f8f8; stroke: #ffffff; stroke-linejoin: miter"/>
  </g>
  <g id="axes_1">
   <g id="patch_2">
    <path d="M 152.26 279.16 
L 709.2 279.16 
L 709.2 78.921 
L 152.26 78.921 
z
" style="fill: #f8f8f8"/>
   </g>
   <g id="matplotlib.axis_1">
    <g id="xtick_1">
     <g id="line2d_1">
      <path d="M 152.26 279.16 
L 152.26 78.921 
" clip-path="url(#p3afd7ff988)" style="fill: none; stroke: #e0e0e0; stroke-opacity: 0.6; stroke-width: 0.8; stroke-linecap: square"/>
     </g>
     <g id="line2d_2">
      <defs>
       <path id="m1d5285007a" d="M 0 0 
L 0 3.5 
" style="stroke: #d0d0d0; stroke-width: 0.8"/>
      </defs>
      <g>
       <use xlink:href="#m1d5285007a" x="152.26" y="279.16" style="fill: #d0d0d0; stroke: #d0d0d0; stroke-width: 0.8"/>
      </g>
     </g>
     <g id="line2d_3">
      <defs>
       <path id="m97347db608" d="M 0 0 
L 0 -3.5 
" style="stroke: #d0d0d0; stroke-width: 0.8"/>
      </defs>
      <g>
       <use xlink:href="#m97347db608" x="152.26" y="78.921" style="fill: #d0d0d0; stroke: #d0d0d0; stroke-width: 0.8"/>
      </g>
     </g>
     <g id="text_1">
      <!-- 0.0e+00 -->
      <g transform="translate(134.212344 293.66) scale(0.1 -0.1)">
       <defs>
        <path id="Roboto-Regular-30" d="M 3234 1944 
Q 3234 825 2848 381 
Q 2463 -63 1800 -63 
Q 1156 -63 764 368 
Q 372 800 359 1872 
L 359 2638 
Q 359 3753 750 4183 
Q 1141 4613 1794 4613 
Q 2447 4613 2834 4195 
Q 3222 3778 3234 2709 
L 3234 1944 
z
M 2653 2734 
Q 2653 3503 2434 3822 
Q 2216 4141 1794 4141 
Q 1388 4141 1167 3831 
Q 947 3522 941 2778 
L 941 1850 
Q 941 1088 1164 750 
Q 1388 413 1800 413 
Q 2222 413 2436 745 
Q 2650 1078 2653 1825 
L 2653 2734 
z
" transform="scale(0.015625)"/>
        <path id="Roboto-Regular-2e" d="M 450 306 
Q 450 453 542 554 
Q 634 656 809 656 
Q 984 656 1076 554 
Q 1169 453 1169 306 
Q 1169 163 1076 62 
Q 984 -38 809 -38 
Q 634 -38 542 62 
Q 450 163 450 306 
z
" transform="scale(0.015625)"/>
        <path id="Roboto-Regular-65" d="M 3116 591 
Q 2950 341 2647 139 
Q 2344 -63 1844 -63 
Q 1138 -63 714 396 
Q 291 856 291 1572 
L 291 1703 
Q 291 2256 502 2645 
Q 713 3034 1050 3239 
Q 1388 3444 1769 3444 
Q 2494 3444 2826 2970 
Q 3159 2497 3159 1788 
L 3159 1528 
L 872 1528 
Q 884 1063 1148 736 
Q 1413 409 1875 409 
Q 2181 409 2393 534 
Q 2606 659 2766 869 
L 3116 591 
z
M 1769 2969 
Q 1425 2969 1187 2719 
Q 950 2469 891 2000 
L 2581 2000 
L 2581 2044 
Q 2559 2381 2386 2675 
Q 2213 2969 1769 2969 
z
" transform="scale(0.015625)"/>
        <path id="Roboto-Regular-2b" d="M 3363 1897 
L 2094 1897 
L 2094 456 
L 1516 456 
L 1516 1897 
L 244 1897 
L 244 2441 
L 1516 2441 
L 1516 3769 
L 2094 3769 
L 2094 2441 
L 3363 2441 
L 3363 1897 
z
" transform="scale(0.015625)"/>
       </defs>
       <use xlink:href="#Roboto-Regular-30"/>
       <use xlink:href="#Roboto-Regular-2e" transform="translate(56.201172 0)"/>
       <use xlink:href="#Roboto-Regular-30" transform="translate(82.568359 0)"/>
       <use xlink:href="#Roboto-Regular-65" transform="translate(138.769531 0)"/>
       <use xlink:href="#Roboto-Regular-2b" transform="translate(191.796875 0)"/>
       <use xlink:href="#Roboto-Regular-30" transform="translate(248.535156 0)"/>
       <use xlink:href="#Roboto-Regular-30" transform="translate(304.736328 0)"/>
      </g>
     </g>
     <g id="text_2">
      <!-- 0.0e+00 -->
      <g transform="translate(134.212344 69.88975) scale(0.1 -0.1)">
       <use xlink:href="#Roboto-Regular-30"/>
       <use xlink:href="#Roboto-Regular-2e" transform="translate(56.201172 0)"/>
       <use xlink:href="#Roboto-Regular-30" transform="translate(82.568359 0)"/>
       <use xlink:href="#Roboto-Regular-65" transform="translate(138.769531 0)"/>
       <use xlink:href="#Roboto-Regular-2b" transform="translate(191.796875 0)"/>
       <use xlink:href="#Roboto-Regular-30" transform="translate(248.535156 0)"/>
       <use xlink:href="#Roboto-Regular-30" transform="translate(304.736328 0)"/>
      </g>
     </g>
    </g>
    <g id="xtick_2">
     <g id="line2d_4">
      <path d="M 222.577286 279.16 
L 222.577286 78.921 
" clip-path="url(#p3afd7ff988)" style="fill: none; stroke: #e0e0e0; stroke-opacity: 0.6; stroke-width: 0.8; stroke-linecap: square"/>
     </g>
     <g id="line2d_5">
      <g>
       <use xlink:href="#m1d5285007a" x="222.577286" y="279.16" style="fill: #d0d0d0; stroke: #d0d0d0; stroke-width: 0.8"/>
      </g>
     </g>
     <g id="line2d_6">
      <g>
       <use xlink:href="#m97347db608" x="222.577286" y="78.921" style="fill: #d0d0d0; stroke: #d0d0d0; stroke-width: 0.8"/>
      </g>
     </g>
     <g id="text_3">
      <!-- 2.0e+10 -->
      <g transform="translate(204.529629 293.66) scale(0.1 -0.1)">
       <defs>
        <path id="Roboto-Regular-32" d="M 3359 475 
L 3359 0 
L 381 0 
L 381 416 
L 1925 2134 
Q 2306 2566 2439 2819 
Q 2572 3072 2572 3328 
Q 2572 3663 2364 3900 
Q 2156 4138 1778 4138 
Q 1322 4138 1097 3878 
Q 872 3619 872 3213 
L 294 3213 
Q 294 3788 672 4200 
Q 1050 4613 1778 4613 
Q 2422 4613 2786 4278 
Q 3150 3944 3150 3397 
Q 3150 2997 2903 2592 
Q 2656 2188 2297 1797 
L 1078 475 
L 3359 475 
z
" transform="scale(0.015625)"/>
        <path id="Roboto-Regular-31" d="M 2278 4575 
L 2278 0 
L 1700 0 
L 1700 3853 
L 534 3428 
L 534 3950 
L 2188 4575 
L 2278 4575 
z
" transform="scale(0.015625)"/>
       </defs>
       <use xlink:href="#Roboto-Regular-32"/>
       <use xlink:href="#Roboto-Regular-2e" transform="translate(56.201172 0)"/>
       <use xlink:href="#Roboto-Regular-30" transform="translate(82.568359 0)"/>
       <use xlink:href="#Roboto-Regular-65" transform="translate(138.769531 0)"/>
       <use xlink:href="#Roboto-Regular-2b" transform="translate(191.796875 0)"/>
       <use xlink:href="#Roboto-Regular-31" transform="translate(248.535156 0)"/>
       <use xlink:href="#Roboto-Regular-30" transform="translate(304.736328 0)"/>
      </g>
     </g>
     <g id="text_4">
      <!-- 2.0e+10 -->
      <g transform="translate(204.529629 69.88975) scale(0.1 -0.1)">
       <use xlink:href="#Roboto-Regular-32"/>
       <use xlink:href="#Roboto-Regular-2e" transform="translate(56.201172 0)"/>
       <use xlink:href="#Roboto-Regular-30" transform="translate(82.568359 0)"/>
       <use xlink:href="#Roboto-Regular-65" transform="translate(138.769531 0)"/>
       <use xlink:href="#Roboto-Regular-2b" transform="translate(191.796875 0)"/>
       <use xlink:href="#Roboto-Regular-31" transform="translate(248.535156 0)"/>
       <use xlink:href="#Roboto-Regular-30" transform="translate(304.736328 0)"/>
      </g>
     </g>
    </g>
    <g id="xtick_3">
     <g id="line2d_7">
      <path d="M 292.894571 279.16 
L 292.894571 78.921 
" clip-path="url(#p3afd7ff988)" style="fill: none; stroke: #e0e0e0; stroke-opacity: 0.6; stroke-width: 0.8; stroke-linecap: square"/>
     </g>
     <g id="line2d_8">
      <g>
       <use xlink:href="#m1d5285007a" x="292.894571" y="279.16" style="fill: #d0d0d0; stroke: #d0d0d0; stroke-width: 0.8"/>
      </g>
     </g>
     <g id="line2d_9">
      <g>
       <use xlink:href="#m97347db608" x="292.894571" y="78.921" style="fill: #d0d0d0; stroke: #d0d0d0; stroke-width: 0.8"/>
      </g>
     </g>
     <g id="text_5">
      <!-- 4.0e+10 -->
      <g transform="translate(274.846915 293.66) scale(0.1 -0.1)">
       <defs>
        <path id="Roboto-Regular-34" d="M 166 1397 
L 2203 4550 
L 2819 4550 
L 2819 1531 
L 3453 1531 
L 3453 1056 
L 2819 1056 
L 2819 0 
L 2241 0 
L 2241 1056 
L 166 1056 
L 166 1397 
z
M 822 1531 
L 2241 1531 
L 2241 3766 
L 2169 3638 
L 822 1531 
z
" transform="scale(0.015625)"/>
       </defs>
       <use xlink:href="#Roboto-Regular-34"/>
       <use xlink:href="#Roboto-Regular-2e" transform="translate(56.201172 0)"/>
       <use xlink:href="#Roboto-Regular-30" transform="translate(82.568359 0)"/>
       <use xlink:href="#Roboto-Regular-65" transform="translate(138.769531 0)"/>
       <use xlink:href="#Roboto-Regular-2b" transform="translate(191.796875 0)"/>
       <use xlink:href="#Roboto-Regular-31" transform="translate(248.535156 0)"/>
       <use xlink:href="#Roboto-Regular-30" transform="translate(304.736328 0)"/>
      </g>
     </g>
     <g id="text_6">
      <!-- 4.0e+10 -->
      <g transform="translate(274.846915 69.88975) scale(0.1 -0.1)">
       <use xlink:href="#Roboto-Regular-34"/>
       <use xlink:href="#Roboto-Regular-2e" transform="translate(56.201172 0)"/>
       <use xlink:href="#Roboto-Regular-30" transform="translate(82.568359 0)"/>
       <use xlink:href="#Roboto-Regular-65" transform="translate(138.769531 0)"/>
       <use xlink:href="#Roboto-Regular-2b" transform="translate(191.796875 0)"/>
       <use xlink:href="#Roboto-Regular-31" transform="translate(248.535156 0)"/>
       <use xlink:href="#Roboto-Regular-30" transform="translate(304.736328 0)"/>
      </g>
     </g>
    </g>
    <g id="xtick_4">
     <g id="line2d_10">
      <path d="M 363.211857 279.16 
L 363.211857 78.921 
" clip-path="url(#p3afd7ff988)" style="fill: none; stroke: #e0e0e0; stroke-opacity: 0.6; stroke-width: 0.8; stroke-linecap: square"/>
     </g>
     <g id="line2d_11">
      <g>
       <use xlink:href="#m1d5285007a" x="363.211857" y="279.16" style="fill: #d0d0d0; stroke: #d0d0d0; stroke-width: 0.8"/>
      </g>
     </g>
     <g id="line2d_12">
      <g>
       <use xlink:href="#m97347db608" x="363.211857" y="78.921" style="fill: #d0d0d0; stroke: #d0d0d0; stroke-width: 0.8"/>
      </g>
     </g>
     <g id="text_7">
      <!-- 6.0e+10 -->
      <g transform="translate(345.164201 293.66) scale(0.1 -0.1)">
       <defs>
        <path id="Roboto-Regular-36" d="M 3291 1484 
Q 3291 838 2930 387 
Q 2569 -63 1878 -63 
Q 1388 -63 1063 198 
Q 738 459 577 861 
Q 416 1263 416 1684 
L 416 1956 
Q 416 2597 595 3194 
Q 775 3791 1247 4173 
Q 1719 4556 2597 4556 
L 2647 4556 
L 2647 4066 
Q 2041 4066 1705 3853 
Q 1369 3641 1205 3302 
Q 1041 2963 1006 2575 
Q 1369 2984 1984 2984 
Q 2438 2984 2727 2765 
Q 3016 2547 3153 2201 
Q 3291 1856 3291 1484 
z
M 997 1666 
Q 997 1059 1267 737 
Q 1538 416 1878 416 
Q 2278 416 2498 708 
Q 2719 1000 2719 1456 
Q 2719 1863 2516 2184 
Q 2313 2506 1891 2506 
Q 1588 2506 1341 2325 
Q 1094 2144 997 1884 
L 997 1666 
z
" transform="scale(0.015625)"/>
       </defs>
       <use xlink:href="#Roboto-Regular-36"/>
       <use xlink:href="#Roboto-Regular-2e" transform="translate(56.201172 0)"/>
       <use xlink:href="#Roboto-Regular-30" transform="translate(82.568359 0)"/>
       <use xlink:href="#Roboto-Regular-65" transform="translate(138.769531 0)"/>
       <use xlink:href="#Roboto-Regular-2b" transform="translate(191.796875 0)"/>
       <use xlink:href="#Roboto-Regular-31" transform="translate(248.535156 0)"/>
       <use xlink:href="#Roboto-Regular-30" transform="translate(304.736328 0)"/>
      </g>
     </g>
     <g id="text_8">
      <!-- 6.0e+10 -->
      <g transform="translate(345.164201 69.88975) scale(0.1 -0.1)">
       <use xlink:href="#Roboto-Regular-36"/>
       <use xlink:href="#Roboto-Regular-2e" transform="translate(56.201172 0)"/>
       <use xlink:href="#Roboto-Regular-30" transform="translate(82.568359 0)"/>
       <use xlink:href="#Roboto-Regular-65" transform="translate(138.769531 0)"/>
       <use xlink:href="#Roboto-Regular-2b" transform="translate(191.796875 0)"/>
       <use xlink:href="#Roboto-Regular-31" transform="translate(248.535156 0)"/>
       <use xlink:href="#Roboto-Regular-30" transform="translate(304.736328 0)"/>
      </g>
     </g>
    </g>
    <g id="xtick_5">
     <g id="line2d_13">
      <path d="M 433.529143 279.16 
L 433.529143 78.921 
" clip-path="url(#p3afd7ff988)" style="fill: none; stroke: #e0e0e0; stroke-opacity: 0.6; stroke-width: 0.8; stroke-linecap: square"/>
     </g>
     <g id="line2d_14">
      <g>
       <use xlink:href="#m1d5285007a" x="433.529143" y="279.16" style="fill: #d0d0d0; stroke: #d0d0d0; stroke-width: 0.8"/>
      </g>
     </g>
     <g id="line2d_15">
      <g>
       <use xlink:href="#m97347db608" x="433.529143" y="78.921" style="fill: #d0d0d0; stroke: #d0d0d0; stroke-width: 0.8"/>
      </g>
     </g>
     <g id="text_9">
      <!-- 8.0e+10 -->
      <g transform="translate(415.481487 293.66) scale(0.1 -0.1)">
       <defs>
        <path id="Roboto-Regular-38" d="M 3244 1231 
Q 3244 606 2826 271 
Q 2409 -63 1796 -63 
Q 1184 -63 767 271 
Q 350 606 350 1231 
Q 350 1613 554 1905 
Q 759 2197 1109 2347 
Q 806 2494 629 2762 
Q 453 3031 453 3366 
Q 453 3963 833 4288 
Q 1213 4613 1794 4613 
Q 2378 4613 2758 4288 
Q 3138 3963 3138 3366 
Q 3138 3028 2956 2761 
Q 2775 2494 2472 2347 
Q 2825 2197 3034 1903 
Q 3244 1609 3244 1231 
z
M 2559 3356 
Q 2559 3697 2346 3917 
Q 2134 4138 1793 4138 
Q 1453 4138 1243 3927 
Q 1034 3716 1034 3356 
Q 1034 3003 1243 2790 
Q 1453 2578 1797 2578 
Q 2138 2578 2348 2790 
Q 2559 3003 2559 3356 
z
M 2663 1244 
Q 2663 1625 2420 1865 
Q 2178 2106 1791 2106 
Q 1394 2106 1161 1865 
Q 928 1625 928 1244 
Q 928 850 1161 631 
Q 1394 413 1797 413 
Q 2200 413 2431 631 
Q 2663 850 2663 1244 
z
" transform="scale(0.015625)"/>
       </defs>
       <use xlink:href="#Roboto-Regular-38"/>
       <use xlink:href="#Roboto-Regular-2e" transform="translate(56.201172 0)"/>
       <use xlink:href="#Roboto-Regular-30" transform="translate(82.568359 0)"/>
       <use xlink:href="#Roboto-Regular-65" transform="translate(138.769531 0)"/>
       <use xlink:href="#Roboto-Regular-2b" transform="translate(191.796875 0)"/>
       <use xlink:href="#Roboto-Regular-31" transform="translate(248.535156 0)"/>
       <use xlink:href="#Roboto-Regular-30" transform="translate(304.736328 0)"/>
      </g>
     </g>
     <g id="text_10">
      <!-- 8.0e+10 -->
      <g transform="translate(415.481487 69.88975) scale(0.1 -0.1)">
       <use xlink:href="#Roboto-Regular-38"/>
       <use xlink:href="#Roboto-Regular-2e" transform="translate(56.201172 0)"/>
       <use xlink:href="#Roboto-Regular-30" transform="translate(82.568359 0)"/>
       <use xlink:href="#Roboto-Regular-65" transform="translate(138.769531 0)"/>
       <use xlink:href="#Roboto-Regular-2b" transform="translate(191.796875 0)"/>
       <use xlink:href="#Roboto-Regular-31" transform="translate(248.535156 0)"/>
       <use xlink:href="#Roboto-Regular-30" transform="translate(304.736328 0)"/>
      </g>
     </g>
    </g>
    <g id="xtick_6">
     <g id="line2d_16">
      <path d="M 503.846429 279.16 
L 503.846429 78.921 
" clip-path="url(#p3afd7ff988)" style="fill: none; stroke: #e0e0e0; stroke-opacity: 0.6; stroke-width: 0.8; stroke-linecap: square"/>
     </g>
     <g id="line2d_17">
      <g>
       <use xlink:href="#m1d5285007a" x="503.846429" y="279.16" style="fill: #d0d0d0; stroke: #d0d0d0; stroke-width: 0.8"/>
      </g>
     </g>
     <g id="line2d_18">
      <g>
       <use xlink:href="#m97347db608" x="503.846429" y="78.921" style="fill: #d0d0d0; stroke: #d0d0d0; stroke-width: 0.8"/>
      </g>
     </g>
     <g id="text_11">
      <!-- 1.0e+11 -->
      <g transform="translate(485.798772 293.66) scale(0.1 -0.1)">
       <use xlink:href="#Roboto-Regular-31"/>
       <use xlink:href="#Roboto-Regular-2e" transform="translate(56.201172 0)"/>
       <use xlink:href="#Roboto-Regular-30" transform="translate(82.568359 0)"/>
       <use xlink:href="#Roboto-Regular-65" transform="translate(138.769531 0)"/>
       <use xlink:href="#Roboto-Regular-2b" transform="translate(191.796875 0)"/>
       <use xlink:href="#Roboto-Regular-31" transform="translate(248.535156 0)"/>
       <use xlink:href="#Roboto-Regular-31" transform="translate(304.736328 0)"/>
      </g>
     </g>
     <g id="text_12">
      <!-- 1.0e+11 -->
      <g transform="translate(485.798772 69.88975) scale(0.1 -0.1)">
       <use xlink:href="#Roboto-Regular-31"/>
       <use xlink:href="#Roboto-Regular-2e" transform="translate(56.201172 0)"/>
       <use xlink:href="#Roboto-Regular-30" transform="translate(82.568359 0)"/>
       <use xlink:href="#Roboto-Regular-65" transform="translate(138.769531 0)"/>
       <use xlink:href="#Roboto-Regular-2b" transform="translate(191.796875 0)"/>
       <use xlink:href="#Roboto-Regular-31" transform="translate(248.535156 0)"/>
       <use xlink:href="#Roboto-Regular-31" transform="translate(304.736328 0)"/>
      </g>
     </g>
    </g>
    <g id="xtick_7">
     <g id="line2d_19">
      <path d="M 574.163714 279.16 
L 574.163714 78.921 
" clip-path="url(#p3afd7ff988)" style="fill: none; stroke: #e0e0e0; stroke-opacity: 0.6; stroke-width: 0.8; stroke-linecap: square"/>
     </g>
     <g id="line2d_20">
      <g>
       <use xlink:href="#m1d5285007a" x="574.163714" y="279.16" style="fill: #d0d0d0; stroke: #d0d0d0; stroke-width: 0.8"/>
      </g>
     </g>
     <g id="line2d_21">
      <g>
       <use xlink:href="#m97347db608" x="574.163714" y="78.921" style="fill: #d0d0d0; stroke: #d0d0d0; stroke-width: 0.8"/>
      </g>
     </g>
     <g id="text_13">
      <!-- 1.2e+11 -->
      <g transform="translate(556.116058 293.66) scale(0.1 -0.1)">
       <use xlink:href="#Roboto-Regular-31"/>
       <use xlink:href="#Roboto-Regular-2e" transform="translate(56.201172 0)"/>
       <use xlink:href="#Roboto-Regular-32" transform="translate(82.568359 0)"/>
       <use xlink:href="#Roboto-Regular-65" transform="translate(138.769531 0)"/>
       <use xlink:href="#Roboto-Regular-2b" transform="translate(191.796875 0)"/>
       <use xlink:href="#Roboto-Regular-31" transform="translate(248.535156 0)"/>
       <use xlink:href="#Roboto-Regular-31" transform="translate(304.736328 0)"/>
      </g>
     </g>
     <g id="text_14">
      <!-- 1.2e+11 -->
      <g transform="translate(556.116058 69.88975) scale(0.1 -0.1)">
       <use xlink:href="#Roboto-Regular-31"/>
       <use xlink:href="#Roboto-Regular-2e" transform="translate(56.201172 0)"/>
       <use xlink:href="#Roboto-Regular-32" transform="translate(82.568359 0)"/>
       <use xlink:href="#Roboto-Regular-65" transform="translate(138.769531 0)"/>
       <use xlink:href="#Roboto-Regular-2b" transform="translate(191.796875 0)"/>
       <use xlink:href="#Roboto-Regular-31" transform="translate(248.535156 0)"/>
       <use xlink:href="#Roboto-Regular-31" transform="translate(304.736328 0)"/>
      </g>
     </g>
    </g>
    <g id="xtick_8">
     <g id="line2d_22">
      <path d="M 644.481 279.16 
L 644.481 78.921 
" clip-path="url(#p3afd7ff988)" style="fill: none; stroke: #e0e0e0; stroke-opacity: 0.6; stroke-width: 0.8; stroke-linecap: square"/>
     </g>
     <g id="line2d_23">
      <g>
       <use xlink:href="#m1d5285007a" x="644.481" y="279.16" style="fill: #d0d0d0; stroke: #d0d0d0; stroke-width: 0.8"/>
      </g>
     </g>
     <g id="line2d_24">
      <g>
       <use xlink:href="#m97347db608" x="644.481" y="78.921" style="fill: #d0d0d0; stroke: #d0d0d0; stroke-width: 0.8"/>
      </g>
     </g>
     <g id="text_15">
      <!-- 1.4e+11 -->
      <g transform="translate(626.433344 293.66) scale(0.1 -0.1)">
       <use xlink:href="#Roboto-Regular-31"/>
       <use xlink:href="#Roboto-Regular-2e" transform="translate(56.201172 0)"/>
       <use xlink:href="#Roboto-Regular-34" transform="translate(82.568359 0)"/>
       <use xlink:href="#Roboto-Regular-65" transform="translate(138.769531 0)"/>
       <use xlink:href="#Roboto-Regular-2b" transform="translate(191.796875 0)"/>
       <use xlink:href="#Roboto-Regular-31" transform="translate(248.535156 0)"/>
       <use xlink:href="#Roboto-Regular-31" transform="translate(304.736328 0)"/>
      </g>
     </g>
     <g id="text_16">
      <!-- 1.4e+11 -->
      <g transform="translate(626.433344 69.88975) scale(0.1 -0.1)">
       <use xlink:href="#Roboto-Regular-31"/>
       <use xlink:href="#Roboto-Regular-2e" transform="translate(56.201172 0)"/>
       <use xlink:href="#Roboto-Regular-34" transform="translate(82.568359 0)"/>
       <use xlink:href="#Roboto-Regular-65" transform="translate(138.769531 0)"/>
       <use xlink:href="#Roboto-Regular-2b" transform="translate(191.796875 0)"/>
       <use xlink:href="#Roboto-Regular-31" transform="translate(248.535156 0)"/>
       <use xlink:href="#Roboto-Regular-31" transform="translate(304.736328 0)"/>
      </g>
     </g>
    </g>
    <g id="text_17">
     <!-- Operation Count -->
     <g transform="translate(379.27125 310.19125) scale(0.14 -0.14)">
      <defs>
       <path id="Roboto-Bold-4f" d="M 4147 2172 
Q 4147 1131 3608 534 
Q 3069 -63 2212 -63 
Q 1356 -63 812 534 
Q 269 1131 269 2172 
L 269 2375 
Q 269 3416 809 4014 
Q 1350 4613 2206 4613 
Q 3063 4613 3605 4014 
Q 4147 3416 4147 2375 
L 4147 2172 
z
M 3197 2381 
Q 3197 3094 2937 3466 
Q 2678 3838 2206 3838 
Q 1734 3838 1478 3470 
Q 1222 3103 1219 2397 
L 1219 2172 
Q 1219 1463 1478 1086 
Q 1738 709 2213 709 
Q 2684 709 2939 1081 
Q 3194 1453 3197 2156 
L 3197 2381 
z
" transform="scale(0.015625)"/>
       <path id="Roboto-Bold-70" d="M 2081 -63 
Q 1575 -63 1253 297 
L 1253 -1300 
L 347 -1300 
L 347 3381 
L 1188 3381 
L 1222 3053 
Q 1544 3444 2072 3444 
Q 2716 3444 3055 2972 
Q 3394 2500 3394 1728 
L 3394 1663 
Q 3394 925 3055 431 
Q 2716 -63 2081 -63 
z
M 1838 2713 
Q 1416 2713 1253 2384 
L 1253 1000 
Q 1422 666 1844 666 
Q 2197 666 2344 958 
Q 2491 1250 2491 1728 
Q 2491 2147 2339 2430 
Q 2188 2713 1838 2713 
z
" transform="scale(0.015625)"/>
       <path id="Roboto-Bold-65" d="M 3225 550 
Q 3063 319 2731 128 
Q 2400 -63 1906 -63 
Q 1119 -63 675 414 
Q 231 891 228 1566 
L 228 1697 
Q 228 2463 654 2953 
Q 1081 3444 1806 3444 
Q 2534 3444 2915 2987 
Q 3297 2531 3297 1781 
L 3297 1397 
L 1144 1397 
Q 1191 1069 1403 867 
Q 1616 666 1963 666 
Q 2478 666 2778 1044 
L 3225 550 
z
M 1800 2716 
Q 1513 2716 1356 2522 
Q 1200 2328 1153 2016 
L 2409 2016 
L 2409 2084 
Q 2403 2356 2258 2536 
Q 2113 2716 1800 2716 
z
" transform="scale(0.015625)"/>
       <path id="Roboto-Bold-72" d="M 1922 2563 
Q 1413 2563 1253 2216 
L 1253 0 
L 347 0 
L 347 3381 
L 1200 3381 
L 1228 2978 
Q 1494 3444 1981 3444 
Q 2153 3444 2259 3403 
L 2250 2538 
L 1922 2563 
z
" transform="scale(0.015625)"/>
       <path id="Roboto-Bold-61" d="M 2306 0 
Q 2250 119 2216 303 
Q 1888 -63 1363 -63 
Q 878 -63 547 223 
Q 216 509 216 950 
Q 216 1481 609 1773 
Q 1003 2066 1775 2066 
L 2178 2066 
L 2178 2263 
Q 2178 2497 2058 2636 
Q 1938 2775 1678 2775 
Q 1194 2775 1194 2369 
L 291 2369 
Q 291 2809 681 3126 
Q 1072 3444 1728 3444 
Q 2313 3444 2698 3147 
Q 3084 2850 3084 2256 
L 3084 750 
Q 3091 300 3219 53 
L 3219 0 
L 2306 0 
z
M 1559 628 
Q 1788 628 1948 729 
Q 2109 831 2178 953 
L 2178 1541 
L 1809 1541 
Q 1450 1541 1284 1389 
Q 1119 1238 1119 1016 
Q 1119 847 1236 737 
Q 1353 628 1559 628 
z
" transform="scale(0.015625)"/>
       <path id="Roboto-Bold-74" d="M 2041 22 
Q 1788 -63 1497 -63 
Q 1053 -63 790 168 
Q 528 400 528 938 
L 528 2722 
L 31 2722 
L 31 3381 
L 528 3381 
L 528 4216 
L 1431 4216 
L 1431 3381 
L 2006 3381 
L 2006 2722 
L 1431 2722 
L 1431 1031 
Q 1431 819 1518 750 
Q 1606 681 1778 681 
Q 1916 681 2041 706 
L 2041 22 
z
" transform="scale(0.015625)"/>
       <path id="Roboto-Bold-69" d="M 341 4256 
Q 341 4459 478 4592 
Q 616 4725 847 4725 
Q 1078 4725 1215 4592 
Q 1353 4459 1353 4256 
Q 1353 4056 1215 3923 
Q 1078 3791 847 3791 
Q 616 3791 478 3923 
Q 341 4056 341 4256 
z
M 1303 3381 
L 1303 0 
L 397 0 
L 397 3381 
L 1303 3381 
z
" transform="scale(0.015625)"/>
       <path id="Roboto-Bold-6f" d="M 206 1722 
Q 206 2459 625 2951 
Q 1044 3444 1806 3444 
Q 2578 3444 2993 2951 
Q 3409 2459 3409 1722 
L 3409 1656 
Q 3409 919 2993 428 
Q 2578 -63 1813 -63 
Q 1053 -63 636 415 
Q 219 894 206 1616 
L 206 1722 
z
M 1113 1656 
Q 1113 1244 1270 955 
Q 1428 666 1813 666 
Q 2191 666 2348 953 
Q 2506 1241 2506 1722 
Q 2506 2125 2348 2420 
Q 2191 2716 1806 2716 
Q 1425 2716 1269 2422 
Q 1113 2128 1113 1656 
z
" transform="scale(0.015625)"/>
       <path id="Roboto-Bold-6e" d="M 1806 2713 
Q 1422 2713 1234 2388 
L 1234 0 
L 331 0 
L 331 3381 
L 1178 3381 
L 1209 2994 
Q 1572 3444 2181 3444 
Q 2659 3444 2953 3159 
Q 3247 2875 3250 2169 
L 3250 0 
L 2344 0 
L 2344 2156 
Q 2344 2481 2205 2597 
Q 2066 2713 1806 2713 
z
" transform="scale(0.015625)"/>
       <path id="Roboto-Bold-20" transform="scale(0.015625)"/>
       <path id="Roboto-Bold-43" d="M 3044 1516 
L 3981 1516 
Q 3934 822 3461 379 
Q 2988 -63 2150 -63 
Q 1275 -63 772 526 
Q 269 1116 269 2125 
L 269 2422 
Q 269 3431 784 4023 
Q 1300 4616 2159 4616 
Q 3013 4616 3466 4161 
Q 3919 3706 3984 3006 
L 3047 3006 
Q 3016 3413 2820 3630 
Q 2625 3847 2159 3847 
Q 1247 3847 1222 2500 
L 1222 2125 
Q 1222 1419 1436 1062 
Q 1650 706 2150 706 
Q 2594 706 2801 907 
Q 3009 1109 3044 1516 
z
" transform="scale(0.015625)"/>
       <path id="Roboto-Bold-75" d="M 2400 0 
L 2375 347 
Q 2044 -63 1450 -63 
Q 953 -63 642 228 
Q 331 519 328 1181 
L 328 3381 
L 1231 3381 
L 1231 1188 
Q 1231 906 1365 789 
Q 1500 672 1709 672 
Q 2169 672 2344 994 
L 2344 3381 
L 3250 3381 
L 3250 0 
L 2400 0 
z
" transform="scale(0.015625)"/>
      </defs>
      <use xlink:href="#Roboto-Bold-4f"/>
      <use xlink:href="#Roboto-Bold-70" transform="translate(69.042969 0)"/>
      <use xlink:href="#Roboto-Bold-65" transform="translate(125.341797 0)"/>
      <use xlink:href="#Roboto-Bold-72" transform="translate(179.394531 0)"/>
      <use xlink:href="#Roboto-Bold-61" transform="translate(215.917969 0)"/>
      <use xlink:href="#Roboto-Bold-74" transform="translate(269.53125 0)"/>
      <use xlink:href="#Roboto-Bold-69" transform="translate(303.320312 0)"/>
      <use xlink:href="#Roboto-Bold-6f" transform="translate(329.833984 0)"/>
      <use xlink:href="#Roboto-Bold-6e" transform="translate(386.376953 0)"/>
      <use xlink:href="#Roboto-Bold-20" transform="translate(442.382812 0)"/>
      <use xlink:href="#Roboto-Bold-43" transform="translate(467.285156 0)"/>
      <use xlink:href="#Roboto-Bold-6f" transform="translate(532.763672 0)"/>
      <use xlink:href="#Roboto-Bold-75" transform="translate(589.306641 0)"/>
      <use xlink:href="#Roboto-Bold-6e" transform="translate(645.3125 0)"/>
      <use xlink:href="#Roboto-Bold-74" transform="translate(701.318359 0)"/>
     </g>
    </g>
   </g>
   <g id="matplotlib.axis_2">
    <g id="ytick_1">
     <g id="line2d_25">
      <defs>
       <path id="m857e06e7b9" d="M 0 0 
L -3.5 0 
" style="stroke: #d0d0d0; stroke-width: 0.8"/>
      </defs>
      <g>
       <use xlink:href="#m857e06e7b9" x="152.26" y="110.777205" style="fill: #d0d0d0; stroke: #d0d0d0; stroke-width: 0.8"/>
      </g>
     </g>
     <g id="text_18">
      <!-- SMEM -&gt; RF + GMEM -->
      <g transform="translate(11.450625 116.027205) scale(0.14 -0.14)">
       <defs>
        <path id="Roboto-Bold-53" d="M 2769 1194 
Q 2769 1422 2612 1573 
Q 2456 1725 1854 1920 
Q 1253 2116 816 2425 
Q 356 2747 356 3341 
Q 356 3913 828 4263 
Q 1300 4613 2038 4613 
Q 2794 4613 3250 4217 
Q 3706 3822 3706 3209 
L 2769 3209 
Q 2769 3497 2584 3681 
Q 2400 3866 2022 3866 
Q 1653 3866 1473 3711 
Q 1294 3556 1294 3338 
Q 1294 3113 1525 2963 
Q 1756 2813 2197 2678 
Q 2944 2450 3326 2106 
Q 3709 1763 3709 1200 
Q 3709 603 3259 270 
Q 2809 -63 2059 -63 
Q 1606 -63 1184 96 
Q 763 256 491 587 
Q 219 919 219 1434 
L 1159 1434 
Q 1159 1019 1407 850 
Q 1656 681 2059 681 
Q 2422 681 2595 828 
Q 2769 975 2769 1194 
z
" transform="scale(0.015625)"/>
        <path id="Roboto-Bold-4d" d="M 2800 1250 
L 3966 4550 
L 5194 4550 
L 5194 0 
L 4253 0 
L 4253 1244 
L 4347 3381 
L 3122 0 
L 2478 0 
L 1253 3381 
L 1347 1244 
L 1347 0 
L 406 0 
L 406 4550 
L 1634 4550 
L 2800 1250 
z
" transform="scale(0.015625)"/>
        <path id="Roboto-Bold-45" d="M 406 0 
L 406 4550 
L 3450 4550 
L 3450 3791 
L 1347 3791 
L 1347 2706 
L 3144 2706 
L 3144 1972 
L 1347 1972 
L 1347 756 
L 3459 756 
L 3459 0 
L 406 0 
z
" transform="scale(0.015625)"/>
        <path id="Roboto-Bold-2d" d="M 2103 2316 
L 2103 1584 
L 347 1584 
L 347 2316 
L 2103 2316 
z
" transform="scale(0.015625)"/>
        <path id="Roboto-Bold-3e" d="M 375 3447 
L 3100 2306 
L 3100 1569 
L 375 428 
L 375 1297 
L 2191 1947 
L 375 2578 
L 375 3447 
z
" transform="scale(0.015625)"/>
        <path id="Roboto-Bold-52" d="M 2944 0 
L 2094 1669 
L 1347 1669 
L 1347 0 
L 406 0 
L 406 4550 
L 2100 4550 
Q 2884 4550 3332 4198 
Q 3781 3847 3781 3175 
Q 3781 2681 3562 2378 
Q 3344 2075 2969 1906 
L 3953 44 
L 3953 0 
L 2944 0 
z
M 1347 3791 
L 1347 2425 
L 2100 2425 
Q 2469 2425 2655 2611 
Q 2841 2797 2841 3103 
Q 2841 3419 2659 3605 
Q 2478 3791 2100 3791 
L 1347 3791 
z
" transform="scale(0.015625)"/>
        <path id="Roboto-Bold-46" d="M 406 0 
L 406 4550 
L 3372 4550 
L 3372 3791 
L 1347 3791 
L 1347 2616 
L 3147 2616 
L 3147 1859 
L 1347 1859 
L 1347 0 
L 406 0 
z
" transform="scale(0.015625)"/>
        <path id="Roboto-Bold-2b" d="M 3297 1734 
L 2169 1734 
L 2169 456 
L 1313 456 
L 1313 1734 
L 178 1734 
L 178 2550 
L 1313 2550 
L 1313 3769 
L 2169 3769 
L 2169 2550 
L 3297 2550 
L 3297 1734 
z
" transform="scale(0.015625)"/>
        <path id="Roboto-Bold-47" d="M 4009 2391 
L 4009 575 
Q 3847 381 3433 159 
Q 3019 -63 2269 -63 
Q 1384 -63 839 510 
Q 294 1084 294 2138 
L 294 2409 
Q 294 3463 816 4039 
Q 1338 4616 2203 4616 
Q 3088 4616 3509 4191 
Q 3931 3766 4006 3103 
L 3094 3103 
Q 3041 3447 2847 3653 
Q 2653 3859 2228 3859 
Q 1306 3859 1250 2584 
L 1247 2138 
Q 1247 1419 1514 1056 
Q 1781 694 2319 694 
Q 2656 694 2825 770 
Q 2994 847 3069 919 
L 3069 1703 
L 2219 1703 
L 2219 2391 
L 4009 2391 
z
" transform="scale(0.015625)"/>
       </defs>
       <use xlink:href="#Roboto-Bold-53"/>
       <use xlink:href="#Roboto-Bold-4d" transform="translate(61.474609 0)"/>
       <use xlink:href="#Roboto-Bold-45" transform="translate(149.072266 0)"/>
       <use xlink:href="#Roboto-Bold-4d" transform="translate(205.322266 0)"/>
       <use xlink:href="#Roboto-Bold-20" transform="translate(292.919922 0)"/>
       <use xlink:href="#Roboto-Bold-2d" transform="translate(317.822266 0)"/>
       <use xlink:href="#Roboto-Bold-3e" transform="translate(356.640625 0)"/>
       <use xlink:href="#Roboto-Bold-20" transform="translate(408.300781 0)"/>
       <use xlink:href="#Roboto-Bold-52" transform="translate(433.203125 0)"/>
       <use xlink:href="#Roboto-Bold-46" transform="translate(497.021484 0)"/>
       <use xlink:href="#Roboto-Bold-20" transform="translate(551.855469 0)"/>
       <use xlink:href="#Roboto-Bold-2b" transform="translate(576.757812 0)"/>
       <use xlink:href="#Roboto-Bold-20" transform="translate(631.347656 0)"/>
       <use xlink:href="#Roboto-Bold-47" transform="translate(656.25 0)"/>
       <use xlink:href="#Roboto-Bold-4d" transform="translate(724.365234 0)"/>
       <use xlink:href="#Roboto-Bold-45" transform="translate(811.962891 0)"/>
       <use xlink:href="#Roboto-Bold-4d" transform="translate(868.212891 0)"/>
      </g>
     </g>
    </g>
    <g id="ytick_2">
     <g id="line2d_26">
      <g>
       <use xlink:href="#m857e06e7b9" x="152.26" y="179.0405" style="fill: #d0d0d0; stroke: #d0d0d0; stroke-width: 0.8"/>
      </g>
     </g>
     <g id="text_19">
      <!-- GMEM -&gt; SMEM -->
      <g transform="translate(42.677187 184.2905) scale(0.14 -0.14)">
       <use xlink:href="#Roboto-Bold-47"/>
       <use xlink:href="#Roboto-Bold-4d" transform="translate(68.115234 0)"/>
       <use xlink:href="#Roboto-Bold-45" transform="translate(155.712891 0)"/>
       <use xlink:href="#Roboto-Bold-4d" transform="translate(211.962891 0)"/>
       <use xlink:href="#Roboto-Bold-20" transform="translate(299.560547 0)"/>
       <use xlink:href="#Roboto-Bold-2d" transform="translate(324.462891 0)"/>
       <use xlink:href="#Roboto-Bold-3e" transform="translate(363.28125 0)"/>
       <use xlink:href="#Roboto-Bold-20" transform="translate(414.941406 0)"/>
       <use xlink:href="#Roboto-Bold-53" transform="translate(439.84375 0)"/>
       <use xlink:href="#Roboto-Bold-4d" transform="translate(501.318359 0)"/>
       <use xlink:href="#Roboto-Bold-45" transform="translate(588.916016 0)"/>
       <use xlink:href="#Roboto-Bold-4d" transform="translate(645.166016 0)"/>
      </g>
     </g>
    </g>
    <g id="ytick_3">
     <g id="line2d_27">
      <g>
       <use xlink:href="#m857e06e7b9" x="152.26" y="247.303795" style="fill: #d0d0d0; stroke: #d0d0d0; stroke-width: 0.8"/>
      </g>
     </g>
     <g id="text_20">
      <!-- RF -&gt; SMEM -->
      <g transform="translate(68.004062 252.553795) scale(0.14 -0.14)">
       <use xlink:href="#Roboto-Bold-52"/>
       <use xlink:href="#Roboto-Bold-46" transform="translate(63.818359 0)"/>
       <use xlink:href="#Roboto-Bold-20" transform="translate(118.652344 0)"/>
       <use xlink:href="#Roboto-Bold-2d" transform="translate(143.554688 0)"/>
       <use xlink:href="#Roboto-Bold-3e" transform="translate(182.373047 0)"/>
       <use xlink:href="#Roboto-Bold-20" transform="translate(234.033203 0)"/>
       <use xlink:href="#Roboto-Bold-53" transform="translate(258.935547 0)"/>
       <use xlink:href="#Roboto-Bold-4d" transform="translate(320.410156 0)"/>
       <use xlink:href="#Roboto-Bold-45" transform="translate(408.007812 0)"/>
       <use xlink:href="#Roboto-Bold-4d" transform="translate(464.257812 0)"/>
      </g>
     </g>
    </g>
   </g>
   <g id="patch_3">
    <path d="M 709.2 279.16 
L 709.2 78.921 
" style="fill: none; stroke: #d0d0d0; stroke-linejoin: miter; stroke-linecap: square"/>
   </g>
   <g id="patch_4">
    <path d="M 152.26 279.16 
L 709.2 279.16 
" style="fill: none; stroke: #d0d0d0; stroke-linejoin: miter; stroke-linecap: square"/>
   </g>
   <g id="patch_5">
    <path d="M 152.26 78.921 
L 709.2 78.921 
" style="fill: none; stroke: #d0d0d0; stroke-linejoin: miter; stroke-linecap: square"/>
   </g>
   <g id="line2d_28">
    <path d="M 152.26 144.908852 
L 709.2 144.908852 
" clip-path="url(#p3afd7ff988)" style="fill: none; stroke: #e0e0e0; stroke-linecap: square"/>
   </g>
   <g id="line2d_29">
    <path d="M 152.26 213.172148 
L 709.2 213.172148 
" clip-path="url(#p3afd7ff988)" style="fill: none; stroke: #e0e0e0; stroke-linecap: square"/>
   </g>
   <g id="legend_1">
    <g id="patch_6">
     <path d="M 582.910938 274.16 
L 702.2 274.16 
Q 704.2 274.16 704.2 272.16 
L 704.2 244.0975 
Q 704.2 242.0975 702.2 242.0975 
L 582.910938 242.0975 
Q 580.910938 242.0975 580.910938 244.0975 
L 580.910938 272.16 
Q 580.910938 274.16 582.910938 274.16 
z
" style="fill: #ffffff; opacity: 0.8; stroke: #cccccc; stroke-linejoin: miter"/>
    </g>
    <g id="line2d_30">
     <path d="M 584.910938 250.0975 
L 594.910938 250.0975 
L 604.910938 250.0975 
" style="fill: none; stroke: #1a73e8; stroke-width: 4; stroke-linecap: square"/>
    </g>
    <g id="text_21">
     <!-- Kernel 1 -->
     <g transform="translate(612.910938 253.5975) scale(0.1 -0.1)">
      <defs>
       <path id="Roboto-Regular-4b" d="M 3297 0 
L 1688 2119 
L 1131 1541 
L 1131 0 
L 528 0 
L 528 4550 
L 1131 4550 
L 1131 2306 
L 3153 4550 
L 3878 4550 
L 2091 2541 
L 4016 0 
L 3297 0 
z
" transform="scale(0.015625)"/>
       <path id="Roboto-Regular-72" d="M 1791 2888 
Q 1225 2888 1019 2400 
L 1019 0 
L 441 0 
L 441 3381 
L 1003 3381 
L 1016 2994 
Q 1294 3444 1819 3444 
Q 1981 3444 2075 3400 
L 2072 2863 
Q 1944 2888 1791 2888 
z
" transform="scale(0.015625)"/>
       <path id="Roboto-Regular-6e" d="M 1844 2956 
Q 1566 2956 1353 2806 
Q 1141 2656 1019 2416 
L 1019 0 
L 441 0 
L 441 3381 
L 988 3381 
L 1006 2959 
Q 1391 3444 2016 3444 
Q 2513 3444 2805 3166 
Q 3097 2888 3100 2231 
L 3100 0 
L 2519 0 
L 2519 2222 
Q 2519 2619 2345 2787 
Q 2172 2956 1844 2956 
z
" transform="scale(0.015625)"/>
       <path id="Roboto-Regular-6c" d="M 1069 4800 
L 1069 0 
L 488 0 
L 488 4800 
L 1069 4800 
z
" transform="scale(0.015625)"/>
       <path id="Roboto-Regular-20" transform="scale(0.015625)"/>
      </defs>
      <use xlink:href="#Roboto-Regular-4b"/>
      <use xlink:href="#Roboto-Regular-65" transform="translate(62.744141 0)"/>
      <use xlink:href="#Roboto-Regular-72" transform="translate(115.771484 0)"/>
      <use xlink:href="#Roboto-Regular-6e" transform="translate(149.658203 0)"/>
      <use xlink:href="#Roboto-Regular-65" transform="translate(204.882812 0)"/>
      <use xlink:href="#Roboto-Regular-6c" transform="translate(257.910156 0)"/>
      <use xlink:href="#Roboto-Regular-20" transform="translate(282.226562 0)"/>
      <use xlink:href="#Roboto-Regular-31" transform="translate(307.03125 0)"/>
     </g>
    </g>
    <g id="line2d_31">
     <path d="M 584.910938 264.62875 
L 594.910938 264.62875 
L 604.910938 264.62875 
" style="fill: none; stroke: #f57c00; stroke-width: 4; stroke-linecap: square"/>
    </g>
    <g id="text_22">
     <!-- Conflict Free Kernel -->
     <g transform="translate(612.910938 268.12875) scale(0.1 -0.1)">
      <defs>
       <path id="Roboto-Regular-43" d="M 3275 1447 
L 3875 1447 
Q 3806 800 3387 368 
Q 2969 -63 2150 -63 
Q 1356 -63 870 504 
Q 384 1072 375 2013 
L 375 2500 
Q 375 3456 867 4034 
Q 1359 4613 2203 4613 
Q 2975 4613 3390 4188 
Q 3806 3763 3875 3091 
L 3275 3091 
Q 3206 3566 2968 3842 
Q 2731 4119 2203 4119 
Q 1600 4119 1287 3675 
Q 975 3231 975 2506 
L 975 2047 
Q 975 1375 1259 901 
Q 1544 428 2150 428 
Q 2725 428 2961 697 
Q 3197 966 3275 1447 
z
" transform="scale(0.015625)"/>
       <path id="Roboto-Regular-6f" d="M 288 1725 
Q 288 2459 700 2951 
Q 1113 3444 1822 3444 
Q 2531 3444 2943 2961 
Q 3356 2478 3366 1756 
L 3366 1653 
Q 3366 919 2952 428 
Q 2538 -63 1828 -63 
Q 1116 -63 702 428 
Q 288 919 288 1653 
L 288 1725 
z
M 866 1653 
Q 866 1150 1105 781 
Q 1344 413 1828 413 
Q 2300 413 2540 777 
Q 2781 1141 2784 1644 
L 2784 1725 
Q 2784 2222 2543 2595 
Q 2303 2969 1822 2969 
Q 1344 2969 1105 2595 
Q 866 2222 866 1725 
L 866 1653 
z
" transform="scale(0.015625)"/>
       <path id="Roboto-Regular-66" d="M 2022 2938 
L 1303 2938 
L 1303 0 
L 725 0 
L 725 2938 
L 191 2938 
L 191 3381 
L 725 3381 
L 725 3759 
Q 731 4297 1026 4581 
Q 1322 4866 1834 4866 
Q 2025 4866 2234 4816 
L 2203 4344 
Q 2072 4372 1891 4372 
Q 1313 4372 1303 3756 
L 1303 3381 
L 2022 3381 
L 2022 2938 
z
" transform="scale(0.015625)"/>
       <path id="Roboto-Regular-69" d="M 444 4278 
Q 444 4419 530 4516 
Q 616 4613 784 4613 
Q 950 4613 1039 4516 
Q 1128 4419 1128 4278 
Q 1128 4144 1039 4048 
Q 950 3953 784 3953 
Q 616 3953 530 4048 
Q 444 4144 444 4278 
z
M 1069 3381 
L 1069 0 
L 488 0 
L 488 3381 
L 1069 3381 
z
" transform="scale(0.015625)"/>
       <path id="Roboto-Regular-63" d="M 1794 413 
Q 2103 413 2336 597 
Q 2569 781 2591 1069 
L 3141 1069 
Q 3119 616 2725 276 
Q 2331 -63 1794 -63 
Q 1031 -63 661 440 
Q 291 944 291 1625 
L 291 1756 
Q 291 2438 661 2941 
Q 1031 3444 1794 3444 
Q 2388 3444 2753 3092 
Q 3119 2741 3141 2219 
L 2591 2219 
Q 2569 2531 2355 2750 
Q 2141 2969 1794 2969 
Q 1438 2969 1236 2787 
Q 1034 2606 951 2328 
Q 869 2050 869 1756 
L 869 1625 
Q 869 1328 950 1050 
Q 1031 772 1232 592 
Q 1434 413 1794 413 
z
" transform="scale(0.015625)"/>
       <path id="Roboto-Regular-74" d="M 1872 0 
Q 1675 -63 1425 -63 
Q 1103 -63 875 134 
Q 647 331 647 841 
L 647 2938 
L 28 2938 
L 28 3381 
L 647 3381 
L 647 4203 
L 1225 4203 
L 1225 3381 
L 1856 3381 
L 1856 2938 
L 1225 2938 
L 1225 838 
Q 1225 578 1337 506 
Q 1450 434 1597 434 
Q 1706 434 1869 472 
L 1872 0 
z
" transform="scale(0.015625)"/>
       <path id="Roboto-Regular-46" d="M 528 0 
L 528 4550 
L 3347 4550 
L 3347 4056 
L 1131 4056 
L 1131 2503 
L 3038 2503 
L 3038 2009 
L 1131 2009 
L 1131 0 
L 528 0 
z
" transform="scale(0.015625)"/>
      </defs>
      <use xlink:href="#Roboto-Regular-43"/>
      <use xlink:href="#Roboto-Regular-6f" transform="translate(65.087891 0)"/>
      <use xlink:href="#Roboto-Regular-6e" transform="translate(122.119141 0)"/>
      <use xlink:href="#Roboto-Regular-66" transform="translate(177.34375 0)"/>
      <use xlink:href="#Roboto-Regular-6c" transform="translate(212.109375 0)"/>
      <use xlink:href="#Roboto-Regular-69" transform="translate(236.425781 0)"/>
      <use xlink:href="#Roboto-Regular-63" transform="translate(260.742188 0)"/>
      <use xlink:href="#Roboto-Regular-74" transform="translate(313.085938 0)"/>
      <use xlink:href="#Roboto-Regular-20" transform="translate(345.800781 0)"/>
      <use xlink:href="#Roboto-Regular-46" transform="translate(370.605469 0)"/>
      <use xlink:href="#Roboto-Regular-72" transform="translate(425.878906 0)"/>
      <use xlink:href="#Roboto-Regular-65" transform="translate(459.765625 0)"/>
      <use xlink:href="#Roboto-Regular-65" transform="translate(512.792969 0)"/>
      <use xlink:href="#Roboto-Regular-20" transform="translate(565.820312 0)"/>
      <use xlink:href="#Roboto-Regular-4b" transform="translate(590.625 0)"/>
      <use xlink:href="#Roboto-Regular-65" transform="translate(653.369141 0)"/>
      <use xlink:href="#Roboto-Regular-72" transform="translate(706.396484 0)"/>
      <use xlink:href="#Roboto-Regular-6e" transform="translate(740.283203 0)"/>
      <use xlink:href="#Roboto-Regular-65" transform="translate(795.507812 0)"/>
      <use xlink:href="#Roboto-Regular-6c" transform="translate(848.535156 0)"/>
     </g>
    </g>
   </g>
   <g id="patch_7">
    <path d="M 152.26 110.777205 
L 636.555652 110.777205 
L 636.555652 88.022773 
L 152.26 88.022773 
z
" clip-path="url(#p3afd7ff988)" style="fill: #1a73e8; stroke: #000000; stroke-linejoin: miter"/>
   </g>
   <g id="patch_8">
    <path d="M 152.26 179.0405 
L 167.478495 179.0405 
L 167.478495 156.286068 
L 152.26 156.286068 
z
" clip-path="url(#p3afd7ff988)" style="fill: #1a73e8; stroke: #000000; stroke-linejoin: miter"/>
   </g>
   <g id="patch_9">
    <path d="M 152.26 247.303795 
L 153.203783 247.303795 
L 153.203783 224.549364 
L 152.26 224.549364 
z
" clip-path="url(#p3afd7ff988)" style="fill: #1a73e8; stroke: #000000; stroke-linejoin: miter"/>
   </g>
   <g id="patch_10">
    <path d="M 152.26 133.531636 
L 212.94893 133.531636 
L 212.94893 110.777205 
L 152.26 110.777205 
z
" clip-path="url(#p3afd7ff988)" style="fill: #f57c00; stroke: #000000; stroke-linejoin: miter"/>
   </g>
   <g id="patch_11">
    <path d="M 152.26 201.794932 
L 167.478495 201.794932 
L 167.478495 179.0405 
L 152.26 179.0405 
z
" clip-path="url(#p3afd7ff988)" style="fill: #f57c00; stroke: #000000; stroke-linejoin: miter"/>
   </g>
   <g id="patch_12">
    <path d="M 152.26 270.058227 
L 152.377973 270.058227 
L 152.377973 247.303795 
L 152.26 247.303795 
z
" clip-path="url(#p3afd7ff988)" style="fill: #f57c00; stroke: #000000; stroke-linejoin: miter"/>
   </g>
   <g id="patch_13">
    <path d="M 152.26 279.16 
L 152.26 78.921 
" style="fill: none; stroke: #d0d0d0; stroke-linejoin: miter; stroke-linecap: square"/>
   </g>
   <g id="text_23">
    <!-- 798.0% -->
    <g style="fill: #ffffff" transform="translate(598.468946 102.134364) scale(0.1 -0.1)">
     <defs>
      <path id="Roboto-Bold-37" d="M 3406 4550 
L 3406 4047 
L 1647 0 
L 694 0 
L 2453 3822 
L 191 3822 
L 191 4550 
L 3406 4550 
z
" transform="scale(0.015625)"/>
      <path id="Roboto-Bold-39" d="M 3341 2444 
Q 3341 1334 2773 650 
Q 2206 -34 1063 -47 
L 950 -47 
L 950 709 
L 1025 709 
Q 1703 713 2039 998 
Q 2375 1284 2428 1822 
Q 2066 1472 1597 1472 
Q 956 1472 614 1911 
Q 272 2350 272 3006 
Q 272 3669 686 4142 
Q 1100 4616 1797 4616 
Q 2500 4616 2920 4105 
Q 3341 3594 3341 2756 
L 3341 2444 
z
M 1172 3016 
Q 1172 2666 1331 2416 
Q 1491 2166 1819 2166 
Q 2041 2166 2200 2280 
Q 2359 2394 2438 2556 
L 2438 2922 
Q 2438 3406 2253 3645 
Q 2069 3884 1794 3884 
Q 1497 3884 1334 3617 
Q 1172 3350 1172 3016 
z
" transform="scale(0.015625)"/>
      <path id="Roboto-Bold-38" d="M 3369 1247 
Q 3369 603 2933 270 
Q 2497 -63 1837 -63 
Q 1178 -63 736 270 
Q 294 603 294 1247 
Q 294 1625 489 1908 
Q 684 2191 1013 2347 
Q 725 2497 559 2755 
Q 394 3013 394 3341 
Q 394 3959 800 4287 
Q 1206 4616 1831 4616 
Q 2466 4616 2870 4287 
Q 3275 3959 3275 3341 
Q 3275 3009 3108 2753 
Q 2941 2497 2653 2344 
Q 2981 2188 3175 1906 
Q 3369 1625 3369 1247 
z
M 2372 3297 
Q 2372 3563 2230 3725 
Q 2088 3888 1831 3888 
Q 1581 3888 1439 3730 
Q 1297 3572 1297 3297 
Q 1297 3028 1439 2862 
Q 1581 2697 1837 2697 
Q 2094 2697 2233 2862 
Q 2372 3028 2372 3297 
z
M 2466 1313 
Q 2466 1619 2291 1794 
Q 2116 1969 1831 1969 
Q 1547 1969 1373 1794 
Q 1200 1619 1200 1313 
Q 1200 1009 1373 837 
Q 1547 666 1838 666 
Q 2125 666 2295 837 
Q 2466 1009 2466 1313 
z
" transform="scale(0.015625)"/>
      <path id="Roboto-Bold-2e" d="M 394 447 
Q 394 653 533 792 
Q 672 931 906 931 
Q 1141 931 1278 792 
Q 1416 653 1416 447 
Q 1416 244 1278 105 
Q 1141 -34 906 -34 
Q 672 -34 533 105 
Q 394 244 394 447 
z
" transform="scale(0.015625)"/>
      <path id="Roboto-Bold-30" d="M 3372 1884 
Q 3372 856 2950 396 
Q 2528 -63 1840 -63 
Q 1153 -63 726 396 
Q 300 856 300 1884 
L 300 2675 
Q 300 3700 723 4156 
Q 1147 4613 1834 4613 
Q 2519 4613 2944 4159 
Q 3369 3706 3372 2691 
L 3372 1884 
z
M 2469 2800 
Q 2469 3406 2303 3645 
Q 2138 3884 1834 3884 
Q 1538 3884 1372 3650 
Q 1206 3416 1203 2825 
L 1203 1763 
Q 1203 1153 1370 909 
Q 1538 666 1841 666 
Q 2138 666 2302 905 
Q 2466 1144 2469 1738 
L 2469 2800 
z
" transform="scale(0.015625)"/>
      <path id="Roboto-Bold-25" d="M 297 3675 
Q 297 4063 550 4339 
Q 803 4616 1284 4616 
Q 1775 4616 2023 4339 
Q 2272 4063 2272 3675 
L 2272 3434 
Q 2272 3053 2023 2776 
Q 1775 2500 1290 2500 
Q 806 2500 551 2776 
Q 297 3053 297 3434 
L 297 3675 
z
M 3691 3897 
L 1469 341 
L 1028 578 
L 3250 4134 
L 3691 3897 
z
M 900 3434 
Q 900 3272 995 3147 
Q 1091 3022 1291 3022 
Q 1484 3022 1578 3147 
Q 1672 3272 1672 3434 
L 1672 3675 
Q 1672 3841 1576 3967 
Q 1481 4094 1284 4094 
Q 1091 4094 995 3967 
Q 900 3841 900 3675 
L 900 3434 
z
M 2472 1116 
Q 2472 1500 2726 1776 
Q 2981 2053 3463 2053 
Q 3950 2053 4200 1776 
Q 4450 1500 4450 1116 
L 4450 875 
Q 4450 491 4200 214 
Q 3950 -63 3469 -63 
Q 2984 -63 2728 214 
Q 2472 491 2472 875 
L 2472 1116 
z
M 3075 875 
Q 3075 713 3181 586 
Q 3288 459 3469 459 
Q 3691 459 3770 586 
Q 3850 713 3850 875 
L 3850 1116 
Q 3850 1281 3753 1406 
Q 3656 1531 3463 1531 
Q 3266 1531 3170 1406 
Q 3075 1281 3075 1116 
L 3075 875 
z
" transform="scale(0.015625)"/>
     </defs>
     <use xlink:href="#Roboto-Bold-37"/>
     <use xlink:href="#Roboto-Bold-39" transform="translate(57.373047 0)"/>
     <use xlink:href="#Roboto-Bold-38" transform="translate(114.746094 0)"/>
     <use xlink:href="#Roboto-Bold-2e" transform="translate(172.119141 0)"/>
     <use xlink:href="#Roboto-Bold-30" transform="translate(201.220703 0)"/>
     <use xlink:href="#Roboto-Bold-25" transform="translate(258.59375 0)"/>
    </g>
   </g>
   <g id="text_24">
    <!-- 100.0% -->
    <g transform="translate(172.321451 170.397659) scale(0.1 -0.1)">
     <defs>
      <path id="Roboto-Bold-31" d="M 2503 4556 
L 2503 0 
L 1600 0 
L 1600 3484 
L 525 3150 
L 525 3881 
L 2406 4556 
L 2503 4556 
z
" transform="scale(0.015625)"/>
     </defs>
     <use xlink:href="#Roboto-Bold-31"/>
     <use xlink:href="#Roboto-Bold-30" transform="translate(57.373047 0)"/>
     <use xlink:href="#Roboto-Bold-30" transform="translate(114.746094 0)"/>
     <use xlink:href="#Roboto-Bold-2e" transform="translate(172.119141 0)"/>
     <use xlink:href="#Roboto-Bold-30" transform="translate(201.220703 0)"/>
     <use xlink:href="#Roboto-Bold-25" transform="translate(258.59375 0)"/>
    </g>
   </g>
   <g id="text_25">
    <!-- 800.0% -->
    <g transform="translate(158.046739 238.660955) scale(0.1 -0.1)">
     <use xlink:href="#Roboto-Bold-38"/>
     <use xlink:href="#Roboto-Bold-30" transform="translate(57.373047 0)"/>
     <use xlink:href="#Roboto-Bold-30" transform="translate(114.746094 0)"/>
     <use xlink:href="#Roboto-Bold-2e" transform="translate(172.119141 0)"/>
     <use xlink:href="#Roboto-Bold-30" transform="translate(201.220703 0)"/>
     <use xlink:href="#Roboto-Bold-25" transform="translate(258.59375 0)"/>
    </g>
   </g>
   <g id="text_26">
    <!-- 1.7e+10 -->
    <g transform="translate(217.791886 125.43567) scale(0.12 -0.12)">
     <use xlink:href="#Roboto-Bold-31"/>
     <use xlink:href="#Roboto-Bold-2e" transform="translate(57.373047 0)"/>
     <use xlink:href="#Roboto-Bold-37" transform="translate(86.474609 0)"/>
     <use xlink:href="#Roboto-Bold-65" transform="translate(143.847656 0)"/>
     <use xlink:href="#Roboto-Bold-2b" transform="translate(197.900391 0)"/>
     <use xlink:href="#Roboto-Bold-31" transform="translate(252.490234 0)"/>
     <use xlink:href="#Roboto-Bold-30" transform="translate(309.863281 0)"/>
    </g>
   </g>
   <g id="text_27">
    <!-- 4.3e+09 -->
    <g transform="translate(172.321451 193.698966) scale(0.12 -0.12)">
     <defs>
      <path id="Roboto-Bold-34" d="M 175 1553 
L 2072 4550 
L 2984 4550 
L 2984 1713 
L 3500 1713 
L 3500 984 
L 2984 984 
L 2984 0 
L 2081 0 
L 2081 984 
L 216 984 
L 175 1553 
z
M 1072 1713 
L 2081 1713 
L 2081 3328 
L 2019 3219 
L 1072 1713 
z
" transform="scale(0.015625)"/>
      <path id="Roboto-Bold-33" d="M 1231 1969 
L 1231 2678 
L 1713 2678 
Q 2053 2678 2220 2848 
Q 2388 3019 2388 3306 
Q 2388 3559 2236 3723 
Q 2084 3888 1772 3888 
Q 1525 3888 1342 3750 
Q 1159 3613 1159 3372 
L 256 3372 
Q 256 3934 690 4275 
Q 1125 4616 1747 4616 
Q 2438 4616 2864 4286 
Q 3291 3956 3291 3319 
Q 3291 3025 3109 2758 
Q 2928 2491 2597 2338 
Q 2978 2203 3168 1926 
Q 3359 1650 3359 1278 
Q 3359 638 2898 287 
Q 2438 -63 1747 -63 
Q 1363 -63 1008 78 
Q 653 219 426 508 
Q 200 797 200 1247 
L 1106 1247 
Q 1106 994 1295 830 
Q 1484 666 1772 666 
Q 2094 666 2275 837 
Q 2456 1009 2456 1291 
Q 2456 1969 1706 1969 
L 1231 1969 
z
" transform="scale(0.015625)"/>
     </defs>
     <use xlink:href="#Roboto-Bold-34"/>
     <use xlink:href="#Roboto-Bold-2e" transform="translate(57.373047 0)"/>
     <use xlink:href="#Roboto-Bold-33" transform="translate(86.474609 0)"/>
     <use xlink:href="#Roboto-Bold-65" transform="translate(143.847656 0)"/>
     <use xlink:href="#Roboto-Bold-2b" transform="translate(197.900391 0)"/>
     <use xlink:href="#Roboto-Bold-30" transform="translate(252.490234 0)"/>
     <use xlink:href="#Roboto-Bold-39" transform="translate(309.863281 0)"/>
    </g>
   </g>
   <g id="text_28">
    <!-- 3.4e+07 -->
    <g transform="translate(157.220929 261.962261) scale(0.12 -0.12)">
     <use xlink:href="#Roboto-Bold-33"/>
     <use xlink:href="#Roboto-Bold-2e" transform="translate(57.373047 0)"/>
     <use xlink:href="#Roboto-Bold-34" transform="translate(86.474609 0)"/>
     <use xlink:href="#Roboto-Bold-65" transform="translate(143.847656 0)"/>
     <use xlink:href="#Roboto-Bold-2b" transform="translate(197.900391 0)"/>
     <use xlink:href="#Roboto-Bold-30" transform="translate(252.490234 0)"/>
     <use xlink:href="#Roboto-Bold-37" transform="translate(309.863281 0)"/>
    </g>
   </g>
  </g>
  <g id="text_29">
   <!-- Wavefronts -->
   <g transform="translate(318.725 28.2) scale(0.16 -0.16)">
    <defs>
     <path id="Roboto-Bold-57" d="M 5497 4550 
L 4491 0 
L 3547 0 
L 2806 3044 
L 2066 0 
L 1122 0 
L 109 4550 
L 1044 4550 
L 1659 1322 
L 2409 4550 
L 3203 4550 
L 3953 1322 
L 4566 4550 
L 5497 4550 
z
" transform="scale(0.015625)"/>
     <path id="Roboto-Bold-76" d="M 3184 3381 
L 2044 0 
L 1184 0 
L 41 3381 
L 988 3381 
L 1616 1109 
L 2241 3381 
L 3184 3381 
z
" transform="scale(0.015625)"/>
     <path id="Roboto-Bold-66" d="M 2172 2722 
L 1500 2722 
L 1500 0 
L 594 0 
L 594 2722 
L 91 2722 
L 91 3381 
L 594 3381 
L 594 3675 
Q 594 4253 928 4559 
Q 1263 4866 1834 4866 
Q 2053 4866 2297 4803 
L 2288 4103 
Q 2169 4131 2009 4131 
Q 1509 4131 1500 3691 
L 1500 3381 
L 2172 3381 
L 2172 2722 
z
" transform="scale(0.015625)"/>
     <path id="Roboto-Bold-73" d="M 2178 938 
Q 2178 1081 2045 1179 
Q 1913 1278 1475 1372 
Q 953 1484 618 1721 
Q 284 1959 284 2394 
Q 284 2816 642 3130 
Q 1000 3444 1631 3444 
Q 2291 3444 2669 3134 
Q 3047 2825 3047 2353 
L 2144 2353 
Q 2144 2547 2019 2675 
Q 1894 2803 1628 2803 
Q 1403 2803 1276 2698 
Q 1150 2594 1150 2438 
Q 1150 2294 1284 2200 
Q 1419 2106 1781 2034 
Q 2331 1925 2693 1700 
Q 3056 1475 3056 972 
Q 3056 525 2672 231 
Q 2288 -63 1634 -63 
Q 925 -63 550 301 
Q 175 666 175 1078 
L 1034 1078 
Q 1047 813 1230 697 
Q 1413 581 1653 581 
Q 2178 581 2178 938 
z
" transform="scale(0.015625)"/>
    </defs>
    <use xlink:href="#Roboto-Bold-57"/>
    <use xlink:href="#Roboto-Bold-61" transform="translate(87.5 0)"/>
    <use xlink:href="#Roboto-Bold-76" transform="translate(141.113281 0)"/>
    <use xlink:href="#Roboto-Bold-65" transform="translate(191.699219 0)"/>
    <use xlink:href="#Roboto-Bold-66" transform="translate(245.751953 0)"/>
    <use xlink:href="#Roboto-Bold-72" transform="translate(281.591797 0)"/>
    <use xlink:href="#Roboto-Bold-6f" transform="translate(318.115234 0)"/>
    <use xlink:href="#Roboto-Bold-6e" transform="translate(374.658203 0)"/>
    <use xlink:href="#Roboto-Bold-74" transform="translate(430.664062 0)"/>
    <use xlink:href="#Roboto-Bold-73" transform="translate(464.453125 0)"/>
   </g>
   <!-- (RTX3090, seq_len=4096) -->
   <g transform="translate(266.5225 46.609) scale(0.16 -0.16)">
    <defs>
     <path id="Roboto-Bold-28" d="M 391 1850 
Q 391 2731 633 3392 
Q 875 4053 1234 4473 
Q 1594 4894 1947 5053 
L 2122 4566 
Q 1772 4303 1465 3661 
Q 1159 3019 1153 1906 
L 1153 1772 
Q 1153 628 1461 -23 
Q 1769 -675 2122 -944 
L 1947 -1422 
Q 1594 -1266 1234 -845 
Q 875 -425 633 237 
Q 391 900 391 1778 
L 391 1850 
z
" transform="scale(0.015625)"/>
     <path id="Roboto-Bold-54" d="M 128 3791 
L 128 4550 
L 3831 4550 
L 3831 3791 
L 2441 3791 
L 2441 0 
L 1503 0 
L 1503 3791 
L 128 3791 
z
" transform="scale(0.015625)"/>
     <path id="Roboto-Bold-58" d="M 1184 4550 
L 2038 2984 
L 2888 4550 
L 3966 4550 
L 2644 2294 
L 4000 0 
L 2909 0 
L 2038 1594 
L 1163 0 
L 72 0 
L 1431 2294 
L 106 4550 
L 1184 4550 
z
" transform="scale(0.015625)"/>
     <path id="Roboto-Bold-2c" d="M 1200 769 
L 1197 144 
Q 1194 -209 1022 -561 
Q 850 -913 581 -1144 
L 113 -897 
Q 234 -672 334 -453 
Q 434 -234 438 88 
L 438 769 
L 1200 769 
z
" transform="scale(0.015625)"/>
     <path id="Roboto-Bold-71" d="M 3253 3381 
L 3253 -1300 
L 2347 -1300 
L 2347 288 
Q 2028 -63 1531 -63 
Q 897 -63 551 428 
Q 206 919 206 1656 
L 206 1722 
Q 206 2494 550 2969 
Q 894 3444 1538 3444 
Q 2078 3444 2403 3034 
L 2459 3381 
L 3253 3381 
z
M 1113 1656 
Q 1113 1250 1258 958 
Q 1403 666 1759 666 
Q 2172 666 2347 997 
L 2347 2397 
Q 2178 2716 1766 2716 
Q 1413 2716 1263 2431 
Q 1113 2147 1113 1656 
z
" transform="scale(0.015625)"/>
     <path id="Roboto-Bold-5f" d="M 2850 0 
L 2850 -706 
L 3 -706 
L 3 0 
L 2850 0 
z
" transform="scale(0.015625)"/>
     <path id="Roboto-Bold-6c" d="M 1303 4800 
L 1303 0 
L 397 0 
L 397 4800 
L 1303 4800 
z
" transform="scale(0.015625)"/>
     <path id="Roboto-Bold-3d" d="M 3222 3069 
L 3222 2331 
L 428 2331 
L 428 3069 
L 3222 3069 
z
M 3222 1716 
L 3222 981 
L 428 981 
L 428 1716 
L 3222 1716 
z
" transform="scale(0.015625)"/>
     <path id="Roboto-Bold-36" d="M 3450 1500 
Q 3450 838 3033 387 
Q 2616 -63 1916 -63 
Q 1188 -63 752 443 
Q 316 950 316 1750 
L 316 2097 
Q 316 3200 925 3898 
Q 1534 4597 2634 4597 
L 2763 4597 
L 2763 3853 
L 2672 3853 
Q 2050 3844 1688 3538 
Q 1313 3219 1238 2675 
Q 1603 3047 2156 3047 
Q 2800 3047 3125 2589 
Q 3450 2131 3450 1500 
z
M 1219 1631 
Q 1219 1150 1408 909 
Q 1597 669 1900 669 
Q 2194 669 2370 901 
Q 2547 1134 2547 1491 
Q 2547 1853 2370 2087 
Q 2194 2322 1881 2322 
Q 1641 2322 1469 2198 
Q 1297 2075 1219 1903 
L 1219 1631 
z
" transform="scale(0.015625)"/>
     <path id="Roboto-Bold-29" d="M 1906 1778 
Q 1906 928 1656 264 
Q 1406 -400 1034 -833 
Q 663 -1266 300 -1422 
L 125 -944 
Q 472 -684 780 -37 
Q 1088 609 1094 1722 
L 1094 1856 
Q 1094 3000 780 3656 
Q 466 4313 125 4572 
L 300 5053 
Q 663 4894 1034 4461 
Q 1406 4028 1656 3364 
Q 1906 2700 1906 1847 
L 1906 1778 
z
" transform="scale(0.015625)"/>
    </defs>
    <use xlink:href="#Roboto-Bold-28"/>
    <use xlink:href="#Roboto-Bold-52" transform="translate(35.107422 0)"/>
    <use xlink:href="#Roboto-Bold-54" transform="translate(98.925781 0)"/>
    <use xlink:href="#Roboto-Bold-58" transform="translate(160.791016 0)"/>
    <use xlink:href="#Roboto-Bold-33" transform="translate(224.365234 0)"/>
    <use xlink:href="#Roboto-Bold-30" transform="translate(281.738281 0)"/>
    <use xlink:href="#Roboto-Bold-39" transform="translate(339.111328 0)"/>
    <use xlink:href="#Roboto-Bold-30" transform="translate(396.484375 0)"/>
    <use xlink:href="#Roboto-Bold-2c" transform="translate(453.857422 0)"/>
    <use xlink:href="#Roboto-Bold-20" transform="translate(478.320312 0)"/>
    <use xlink:href="#Roboto-Bold-73" transform="translate(503.222656 0)"/>
    <use xlink:href="#Roboto-Bold-65" transform="translate(554.6875 0)"/>
    <use xlink:href="#Roboto-Bold-71" transform="translate(608.740234 0)"/>
    <use xlink:href="#Roboto-Bold-5f" transform="translate(665.234375 0)"/>
    <use xlink:href="#Roboto-Bold-6c" transform="translate(709.912109 0)"/>
    <use xlink:href="#Roboto-Bold-65" transform="translate(736.425781 0)"/>
    <use xlink:href="#Roboto-Bold-6e" transform="translate(790.478516 0)"/>
    <use xlink:href="#Roboto-Bold-3d" transform="translate(846.484375 0)"/>
    <use xlink:href="#Roboto-Bold-34" transform="translate(903.710938 0)"/>
    <use xlink:href="#Roboto-Bold-30" transform="translate(961.083984 0)"/>
    <use xlink:href="#Roboto-Bold-39" transform="translate(1018.457031 0)"/>
    <use xlink:href="#Roboto-Bold-36" transform="translate(1075.830078 0)"/>
    <use xlink:href="#Roboto-Bold-29" transform="translate(1133.203125 0)"/>
   </g>
  </g>
 </g>
 <defs>
  <clipPath id="p3afd7ff988">
   <rect x="152.26" y="78.921" width="556.94" height="200.239"/>
  </clipPath>
 </defs>
</svg>
