<?xml version="1.0" encoding="utf-8" standalone="no"?>
<!DOCTYPE svg PUBLIC "-//W3C//DTD SVG 1.1//EN"
  "http://www.w3.org/Graphics/SVG/1.1/DTD/svg11.dtd">
<svg xmlns:xlink="http://www.w3.org/1999/xlink" width="576pt" height="432pt" viewBox="0 0 576 432" xmlns="http://www.w3.org/2000/svg" version="1.1">
 <metadata>
  <rdf:RDF xmlns:dc="http://purl.org/dc/elements/1.1/" xmlns:cc="http://creativecommons.org/ns#" xmlns:rdf="http://www.w3.org/1999/02/22-rdf-syntax-ns#">
   <cc:Work>
    <dc:type rdf:resource="http://purl.org/dc/dcmitype/StillImage"/>
    <dc:date>2025-08-29T13:04:46.337940</dc:date>
    <dc:format>image/svg+xml</dc:format>
    <dc:creator>
     <cc:Agent>
      <dc:title>Matplotlib v3.10.1, https://matplotlib.org/</dc:title>
     </cc:Agent>
    </dc:creator>
   </cc:Work>
  </rdf:RDF>
 </metadata>
 <defs>
  <style type="text/css">*{stroke-linejoin: round; stroke-linecap: butt}</style>
 </defs>
 <g id="figure_1">
  <g id="patch_1">
   <path d="M 0 432 
L 576 432 
L 576 0 
L 0 0 
z
" style="fill: #f8f8f8"/>
  </g>
  <g id="axes_1">
   <g id="patch_2">
    <path d="M 51.32 390.04 
L 527.38 390.04 
L 527.38 39.021 
L 51.32 39.021 
z
" style="fill: #f8f8f8"/>
   </g>
   <g id="patch_3">
    <path d="M 94.402353 390.04 
L 266.731765 390.04 
L 266.731765 245.386471 
L 94.402353 245.386471 
z
" clip-path="url(#p021e453d71)" style="fill: #00a6ed; opacity: 0.8; stroke: #000000; stroke-width: 0.5; stroke-linejoin: miter"/>
   </g>
   <g id="patch_4">
    <path d="M 311.968235 390.04 
L 484.297647 390.04 
L 484.297647 97.524167 
L 311.968235 97.524167 
z
" clip-path="url(#p021e453d71)" style="fill: #b0b0b0; opacity: 0.8; stroke: #000000; stroke-width: 0.5; stroke-linejoin: miter"/>
   </g>
   <g id="matplotlib.axis_1">
    <g id="xtick_1">
     <g id="line2d_1">
      <defs>
       <path id="m357784b347" d="M 0 0 
L 0 3.5 
" style="stroke: #000000; stroke-width: 0.8"/>
      </defs>
      <g>
       <use xlink:href="#m357784b347" x="180.567059" y="390.04" style="stroke: #000000; stroke-width: 0.8"/>
      </g>
     </g>
     <g id="text_1">
      <!-- 1 -->
      <g transform="translate(177.756903 404.54) scale(0.1 -0.1)">
       <defs>
        <path id="Roboto-Regular-31" d="M 2278 4575 
L 2278 0 
L 1700 0 
L 1700 3853 
L 534 3428 
L 534 3950 
L 2188 4575 
L 2278 4575 
z
" transform="scale(0.015625)"/>
       </defs>
       <use xlink:href="#Roboto-Regular-31"/>
      </g>
     </g>
    </g>
    <g id="xtick_2">
     <g id="line2d_2">
      <g>
       <use xlink:href="#m357784b347" x="398.132941" y="390.04" style="stroke: #000000; stroke-width: 0.8"/>
      </g>
     </g>
     <g id="text_2">
      <!-- Reference -->
      <g transform="translate(375.634504 404.54) scale(0.1 -0.1)">
       <defs>
        <path id="Roboto-Regular-52" d="M 3188 0 
L 2200 1844 
L 1131 1844 
L 1131 0 
L 528 0 
L 528 4550 
L 2034 4550 
Q 2800 4550 3214 4200 
Q 3628 3850 3628 3184 
Q 3628 2759 3398 2442 
Q 3169 2125 2763 1969 
L 3831 38 
L 3831 0 
L 3188 0 
z
M 1131 4056 
L 1131 2334 
L 2053 2334 
Q 2538 2334 2783 2582 
Q 3028 2831 3028 3184 
Q 3028 3578 2792 3817 
Q 2556 4056 2034 4056 
L 1131 4056 
z
" transform="scale(0.015625)"/>
        <path id="Roboto-Regular-65" d="M 3116 591 
Q 2950 341 2647 139 
Q 2344 -63 1844 -63 
Q 1138 -63 714 396 
Q 291 856 291 1572 
L 291 1703 
Q 291 2256 502 2645 
Q 713 3034 1050 3239 
Q 1388 3444 1769 3444 
Q 2494 3444 2826 2970 
Q 3159 2497 3159 1788 
L 3159 1528 
L 872 1528 
Q 884 1063 1148 736 
Q 1413 409 1875 409 
Q 2181 409 2393 534 
Q 2606 659 2766 869 
L 3116 591 
z
M 1769 2969 
Q 1425 2969 1187 2719 
Q 950 2469 891 2000 
L 2581 2000 
L 2581 2044 
Q 2559 2381 2386 2675 
Q 2213 2969 1769 2969 
z
" transform="scale(0.015625)"/>
        <path id="Roboto-Regular-66" d="M 2022 2938 
L 1303 2938 
L 1303 0 
L 725 0 
L 725 2938 
L 191 2938 
L 191 3381 
L 725 3381 
L 725 3759 
Q 731 4297 1026 4581 
Q 1322 4866 1834 4866 
Q 2025 4866 2234 4816 
L 2203 4344 
Q 2072 4372 1891 4372 
Q 1313 4372 1303 3756 
L 1303 3381 
L 2022 3381 
L 2022 2938 
z
" transform="scale(0.015625)"/>
        <path id="Roboto-Regular-72" d="M 1791 2888 
Q 1225 2888 1019 2400 
L 1019 0 
L 441 0 
L 441 3381 
L 1003 3381 
L 1016 2994 
Q 1294 3444 1819 3444 
Q 1981 3444 2075 3400 
L 2072 2863 
Q 1944 2888 1791 2888 
z
" transform="scale(0.015625)"/>
        <path id="Roboto-Regular-6e" d="M 1844 2956 
Q 1566 2956 1353 2806 
Q 1141 2656 1019 2416 
L 1019 0 
L 441 0 
L 441 3381 
L 988 3381 
L 1006 2959 
Q 1391 3444 2016 3444 
Q 2513 3444 2805 3166 
Q 3097 2888 3100 2231 
L 3100 0 
L 2519 0 
L 2519 2222 
Q 2519 2619 2345 2787 
Q 2172 2956 1844 2956 
z
" transform="scale(0.015625)"/>
        <path id="Roboto-Regular-63" d="M 1794 413 
Q 2103 413 2336 597 
Q 2569 781 2591 1069 
L 3141 1069 
Q 3119 616 2725 276 
Q 2331 -63 1794 -63 
Q 1031 -63 661 440 
Q 291 944 291 1625 
L 291 1756 
Q 291 2438 661 2941 
Q 1031 3444 1794 3444 
Q 2388 3444 2753 3092 
Q 3119 2741 3141 2219 
L 2591 2219 
Q 2569 2531 2355 2750 
Q 2141 2969 1794 2969 
Q 1438 2969 1236 2787 
Q 1034 2606 951 2328 
Q 869 2050 869 1756 
L 869 1625 
Q 869 1328 950 1050 
Q 1031 772 1232 592 
Q 1434 413 1794 413 
z
" transform="scale(0.015625)"/>
       </defs>
       <use xlink:href="#Roboto-Regular-52"/>
       <use xlink:href="#Roboto-Regular-65" transform="translate(61.621094 0)"/>
       <use xlink:href="#Roboto-Regular-66" transform="translate(114.648438 0)"/>
       <use xlink:href="#Roboto-Regular-65" transform="translate(149.414062 0)"/>
       <use xlink:href="#Roboto-Regular-72" transform="translate(202.441406 0)"/>
       <use xlink:href="#Roboto-Regular-65" transform="translate(236.328125 0)"/>
       <use xlink:href="#Roboto-Regular-6e" transform="translate(289.355469 0)"/>
       <use xlink:href="#Roboto-Regular-63" transform="translate(344.580078 0)"/>
       <use xlink:href="#Roboto-Regular-65" transform="translate(396.923828 0)"/>
      </g>
     </g>
    </g>
    <g id="text_3">
     <!-- Kernel -->
     <g transform="translate(273.363047 418.82125) scale(0.11 -0.11)">
      <defs>
       <path id="Roboto-Bold-4b" d="M 3003 0 
L 1834 1828 
L 1347 1303 
L 1347 0 
L 406 0 
L 406 4550 
L 1347 4550 
L 1347 2491 
L 1756 3053 
L 2916 4550 
L 4069 4550 
L 2456 2531 
L 4119 0 
L 3003 0 
z
" transform="scale(0.015625)"/>
       <path id="Roboto-Bold-65" d="M 3225 550 
Q 3063 319 2731 128 
Q 2400 -63 1906 -63 
Q 1119 -63 675 414 
Q 231 891 228 1566 
L 228 1697 
Q 228 2463 654 2953 
Q 1081 3444 1806 3444 
Q 2534 3444 2915 2987 
Q 3297 2531 3297 1781 
L 3297 1397 
L 1144 1397 
Q 1191 1069 1403 867 
Q 1616 666 1963 666 
Q 2478 666 2778 1044 
L 3225 550 
z
M 1800 2716 
Q 1513 2716 1356 2522 
Q 1200 2328 1153 2016 
L 2409 2016 
L 2409 2084 
Q 2403 2356 2258 2536 
Q 2113 2716 1800 2716 
z
" transform="scale(0.015625)"/>
       <path id="Roboto-Bold-72" d="M 1922 2563 
Q 1413 2563 1253 2216 
L 1253 0 
L 347 0 
L 347 3381 
L 1200 3381 
L 1228 2978 
Q 1494 3444 1981 3444 
Q 2153 3444 2259 3403 
L 2250 2538 
L 1922 2563 
z
" transform="scale(0.015625)"/>
       <path id="Roboto-Bold-6e" d="M 1806 2713 
Q 1422 2713 1234 2388 
L 1234 0 
L 331 0 
L 331 3381 
L 1178 3381 
L 1209 2994 
Q 1572 3444 2181 3444 
Q 2659 3444 2953 3159 
Q 3247 2875 3250 2169 
L 3250 0 
L 2344 0 
L 2344 2156 
Q 2344 2481 2205 2597 
Q 2066 2713 1806 2713 
z
" transform="scale(0.015625)"/>
       <path id="Roboto-Bold-6c" d="M 1303 4800 
L 1303 0 
L 397 0 
L 397 4800 
L 1303 4800 
z
" transform="scale(0.015625)"/>
      </defs>
      <use xlink:href="#Roboto-Bold-4b"/>
      <use xlink:href="#Roboto-Bold-65" transform="translate(63.525391 0)"/>
      <use xlink:href="#Roboto-Bold-72" transform="translate(117.578125 0)"/>
      <use xlink:href="#Roboto-Bold-6e" transform="translate(154.101562 0)"/>
      <use xlink:href="#Roboto-Bold-65" transform="translate(210.107422 0)"/>
      <use xlink:href="#Roboto-Bold-6c" transform="translate(264.160156 0)"/>
     </g>
    </g>
   </g>
   <g id="matplotlib.axis_2">
    <g id="ytick_1">
     <g id="line2d_3">
      <defs>
       <path id="m5630b9124b" d="M 0 0 
L -3.5 0 
" style="stroke: #000000; stroke-width: 0.8"/>
      </defs>
      <g>
       <use xlink:href="#m5630b9124b" x="51.32" y="390.04" style="stroke: #000000; stroke-width: 0.8"/>
      </g>
     </g>
     <g id="text_4">
      <!-- 0.0 -->
      <g transform="translate(30.441875 393.79) scale(0.1 -0.1)">
       <defs>
        <path id="Roboto-Regular-30" d="M 3234 1944 
Q 3234 825 2848 381 
Q 2463 -63 1800 -63 
Q 1156 -63 764 368 
Q 372 800 359 1872 
L 359 2638 
Q 359 3753 750 4183 
Q 1141 4613 1794 4613 
Q 2447 4613 2834 4195 
Q 3222 3778 3234 2709 
L 3234 1944 
z
M 2653 2734 
Q 2653 3503 2434 3822 
Q 2216 4141 1794 4141 
Q 1388 4141 1167 3831 
Q 947 3522 941 2778 
L 941 1850 
Q 941 1088 1164 750 
Q 1388 413 1800 413 
Q 2222 413 2436 745 
Q 2650 1078 2653 1825 
L 2653 2734 
z
" transform="scale(0.015625)"/>
        <path id="Roboto-Regular-2e" d="M 450 306 
Q 450 453 542 554 
Q 634 656 809 656 
Q 984 656 1076 554 
Q 1169 453 1169 306 
Q 1169 163 1076 62 
Q 984 -38 809 -38 
Q 634 -38 542 62 
Q 450 163 450 306 
z
" transform="scale(0.015625)"/>
       </defs>
       <use xlink:href="#Roboto-Regular-30"/>
       <use xlink:href="#Roboto-Regular-2e" transform="translate(56.201172 0)"/>
       <use xlink:href="#Roboto-Regular-30" transform="translate(82.568359 0)"/>
      </g>
     </g>
    </g>
    <g id="ytick_2">
     <g id="line2d_4">
      <g>
       <use xlink:href="#m5630b9124b" x="51.32" y="346.571115" style="stroke: #000000; stroke-width: 0.8"/>
      </g>
     </g>
     <g id="text_5">
      <!-- 10.0 -->
      <g transform="translate(24.821563 350.321115) scale(0.1 -0.1)">
       <use xlink:href="#Roboto-Regular-31"/>
       <use xlink:href="#Roboto-Regular-30" transform="translate(56.201172 0)"/>
       <use xlink:href="#Roboto-Regular-2e" transform="translate(112.402344 0)"/>
       <use xlink:href="#Roboto-Regular-30" transform="translate(138.769531 0)"/>
      </g>
     </g>
    </g>
    <g id="ytick_3">
     <g id="line2d_5">
      <g>
       <use xlink:href="#m5630b9124b" x="51.32" y="303.10223" style="stroke: #000000; stroke-width: 0.8"/>
      </g>
     </g>
     <g id="text_6">
      <!-- 20.0 -->
      <g transform="translate(24.821563 306.85223) scale(0.1 -0.1)">
       <defs>
        <path id="Roboto-Regular-32" d="M 3359 475 
L 3359 0 
L 381 0 
L 381 416 
L 1925 2134 
Q 2306 2566 2439 2819 
Q 2572 3072 2572 3328 
Q 2572 3663 2364 3900 
Q 2156 4138 1778 4138 
Q 1322 4138 1097 3878 
Q 872 3619 872 3213 
L 294 3213 
Q 294 3788 672 4200 
Q 1050 4613 1778 4613 
Q 2422 4613 2786 4278 
Q 3150 3944 3150 3397 
Q 3150 2997 2903 2592 
Q 2656 2188 2297 1797 
L 1078 475 
L 3359 475 
z
" transform="scale(0.015625)"/>
       </defs>
       <use xlink:href="#Roboto-Regular-32"/>
       <use xlink:href="#Roboto-Regular-30" transform="translate(56.201172 0)"/>
       <use xlink:href="#Roboto-Regular-2e" transform="translate(112.402344 0)"/>
       <use xlink:href="#Roboto-Regular-30" transform="translate(138.769531 0)"/>
      </g>
     </g>
    </g>
    <g id="ytick_4">
     <g id="line2d_6">
      <g>
       <use xlink:href="#m5630b9124b" x="51.32" y="259.633345" style="stroke: #000000; stroke-width: 0.8"/>
      </g>
     </g>
     <g id="text_7">
      <!-- 30.0 -->
      <g transform="translate(24.821563 263.383345) scale(0.1 -0.1)">
       <defs>
        <path id="Roboto-Regular-33" d="M 1222 2084 
L 1222 2559 
L 1647 2559 
Q 2094 2563 2312 2784 
Q 2531 3006 2531 3338 
Q 2531 4138 1738 4138 
Q 1369 4138 1141 3927 
Q 913 3716 913 3359 
L 334 3359 
Q 334 3881 720 4247 
Q 1106 4613 1738 4613 
Q 2353 4613 2733 4286 
Q 3113 3959 3113 3325 
Q 3113 3072 2942 2784 
Q 2772 2497 2397 2338 
Q 2850 2191 3015 1884 
Q 3181 1578 3181 1269 
Q 3181 631 2768 284 
Q 2356 -63 1741 -63 
Q 1147 -63 722 267 
Q 297 597 297 1203 
L 875 1203 
Q 875 844 1108 628 
Q 1341 413 1741 413 
Q 2138 413 2369 622 
Q 2600 831 2600 1256 
Q 2600 1681 2337 1882 
Q 2075 2084 1634 2084 
L 1222 2084 
z
" transform="scale(0.015625)"/>
       </defs>
       <use xlink:href="#Roboto-Regular-33"/>
       <use xlink:href="#Roboto-Regular-30" transform="translate(56.201172 0)"/>
       <use xlink:href="#Roboto-Regular-2e" transform="translate(112.402344 0)"/>
       <use xlink:href="#Roboto-Regular-30" transform="translate(138.769531 0)"/>
      </g>
     </g>
    </g>
    <g id="ytick_5">
     <g id="line2d_7">
      <g>
       <use xlink:href="#m5630b9124b" x="51.32" y="216.16446" style="stroke: #000000; stroke-width: 0.8"/>
      </g>
     </g>
     <g id="text_8">
      <!-- 40.0 -->
      <g transform="translate(24.821563 219.91446) scale(0.1 -0.1)">
       <defs>
        <path id="Roboto-Regular-34" d="M 166 1397 
L 2203 4550 
L 2819 4550 
L 2819 1531 
L 3453 1531 
L 3453 1056 
L 2819 1056 
L 2819 0 
L 2241 0 
L 2241 1056 
L 166 1056 
L 166 1397 
z
M 822 1531 
L 2241 1531 
L 2241 3766 
L 2169 3638 
L 822 1531 
z
" transform="scale(0.015625)"/>
       </defs>
       <use xlink:href="#Roboto-Regular-34"/>
       <use xlink:href="#Roboto-Regular-30" transform="translate(56.201172 0)"/>
       <use xlink:href="#Roboto-Regular-2e" transform="translate(112.402344 0)"/>
       <use xlink:href="#Roboto-Regular-30" transform="translate(138.769531 0)"/>
      </g>
     </g>
    </g>
    <g id="ytick_6">
     <g id="line2d_8">
      <g>
       <use xlink:href="#m5630b9124b" x="51.32" y="172.695574" style="stroke: #000000; stroke-width: 0.8"/>
      </g>
     </g>
     <g id="text_9">
      <!-- 50.0 -->
      <g transform="translate(24.821563 176.445574) scale(0.1 -0.1)">
       <defs>
        <path id="Roboto-Regular-35" d="M 1109 2166 
L 647 2284 
L 875 4550 
L 3209 4550 
L 3209 4016 
L 1366 4016 
L 1228 2778 
Q 1572 2975 1988 2975 
Q 2616 2975 2980 2561 
Q 3344 2147 3344 1450 
Q 3344 797 2987 367 
Q 2631 -63 1903 -63 
Q 1350 -63 947 248 
Q 544 559 481 1197 
L 1031 1197 
Q 1141 413 1903 413 
Q 2313 413 2538 691 
Q 2763 969 2763 1444 
Q 2763 1872 2527 2164 
Q 2291 2456 1853 2456 
Q 1563 2456 1413 2378 
Q 1263 2300 1109 2166 
z
" transform="scale(0.015625)"/>
       </defs>
       <use xlink:href="#Roboto-Regular-35"/>
       <use xlink:href="#Roboto-Regular-30" transform="translate(56.201172 0)"/>
       <use xlink:href="#Roboto-Regular-2e" transform="translate(112.402344 0)"/>
       <use xlink:href="#Roboto-Regular-30" transform="translate(138.769531 0)"/>
      </g>
     </g>
    </g>
    <g id="ytick_7">
     <g id="line2d_9">
      <g>
       <use xlink:href="#m5630b9124b" x="51.32" y="129.226689" style="stroke: #000000; stroke-width: 0.8"/>
      </g>
     </g>
     <g id="text_10">
      <!-- 60.0 -->
      <g transform="translate(24.821563 132.976689) scale(0.1 -0.1)">
       <defs>
        <path id="Roboto-Regular-36" d="M 3291 1484 
Q 3291 838 2930 387 
Q 2569 -63 1878 -63 
Q 1388 -63 1063 198 
Q 738 459 577 861 
Q 416 1263 416 1684 
L 416 1956 
Q 416 2597 595 3194 
Q 775 3791 1247 4173 
Q 1719 4556 2597 4556 
L 2647 4556 
L 2647 4066 
Q 2041 4066 1705 3853 
Q 1369 3641 1205 3302 
Q 1041 2963 1006 2575 
Q 1369 2984 1984 2984 
Q 2438 2984 2727 2765 
Q 3016 2547 3153 2201 
Q 3291 1856 3291 1484 
z
M 997 1666 
Q 997 1059 1267 737 
Q 1538 416 1878 416 
Q 2278 416 2498 708 
Q 2719 1000 2719 1456 
Q 2719 1863 2516 2184 
Q 2313 2506 1891 2506 
Q 1588 2506 1341 2325 
Q 1094 2144 997 1884 
L 997 1666 
z
" transform="scale(0.015625)"/>
       </defs>
       <use xlink:href="#Roboto-Regular-36"/>
       <use xlink:href="#Roboto-Regular-30" transform="translate(56.201172 0)"/>
       <use xlink:href="#Roboto-Regular-2e" transform="translate(112.402344 0)"/>
       <use xlink:href="#Roboto-Regular-30" transform="translate(138.769531 0)"/>
      </g>
     </g>
    </g>
    <g id="ytick_8">
     <g id="line2d_10">
      <g>
       <use xlink:href="#m5630b9124b" x="51.32" y="85.757804" style="stroke: #000000; stroke-width: 0.8"/>
      </g>
     </g>
     <g id="text_11">
      <!-- 70.0 -->
      <g transform="translate(24.821563 89.507804) scale(0.1 -0.1)">
       <defs>
        <path id="Roboto-Regular-37" d="M 3319 4550 
L 3319 4225 
L 1434 0 
L 825 0 
L 2706 4075 
L 244 4075 
L 244 4550 
L 3319 4550 
z
" transform="scale(0.015625)"/>
       </defs>
       <use xlink:href="#Roboto-Regular-37"/>
       <use xlink:href="#Roboto-Regular-30" transform="translate(56.201172 0)"/>
       <use xlink:href="#Roboto-Regular-2e" transform="translate(112.402344 0)"/>
       <use xlink:href="#Roboto-Regular-30" transform="translate(138.769531 0)"/>
      </g>
     </g>
    </g>
    <g id="ytick_9">
     <g id="line2d_11">
      <g>
       <use xlink:href="#m5630b9124b" x="51.32" y="42.288919" style="stroke: #000000; stroke-width: 0.8"/>
      </g>
     </g>
     <g id="text_12">
      <!-- 80.0 -->
      <g transform="translate(24.821563 46.038919) scale(0.1 -0.1)">
       <defs>
        <path id="Roboto-Regular-38" d="M 3244 1231 
Q 3244 606 2826 271 
Q 2409 -63 1796 -63 
Q 1184 -63 767 271 
Q 350 606 350 1231 
Q 350 1613 554 1905 
Q 759 2197 1109 2347 
Q 806 2494 629 2762 
Q 453 3031 453 3366 
Q 453 3963 833 4288 
Q 1213 4613 1794 4613 
Q 2378 4613 2758 4288 
Q 3138 3963 3138 3366 
Q 3138 3028 2956 2761 
Q 2775 2494 2472 2347 
Q 2825 2197 3034 1903 
Q 3244 1609 3244 1231 
z
M 2559 3356 
Q 2559 3697 2346 3917 
Q 2134 4138 1793 4138 
Q 1453 4138 1243 3927 
Q 1034 3716 1034 3356 
Q 1034 3003 1243 2790 
Q 1453 2578 1797 2578 
Q 2138 2578 2348 2790 
Q 2559 3003 2559 3356 
z
M 2663 1244 
Q 2663 1625 2420 1865 
Q 2178 2106 1791 2106 
Q 1394 2106 1161 1865 
Q 928 1625 928 1244 
Q 928 850 1161 631 
Q 1394 413 1797 413 
Q 2200 413 2431 631 
Q 2663 850 2663 1244 
z
" transform="scale(0.015625)"/>
       </defs>
       <use xlink:href="#Roboto-Regular-38"/>
       <use xlink:href="#Roboto-Regular-30" transform="translate(56.201172 0)"/>
       <use xlink:href="#Roboto-Regular-2e" transform="translate(112.402344 0)"/>
       <use xlink:href="#Roboto-Regular-30" transform="translate(138.769531 0)"/>
      </g>
     </g>
    </g>
    <g id="text_13">
     <!-- TFLOP/s -->
     <g transform="translate(18.587188 236.162687) rotate(-90) scale(0.11 -0.11)">
      <defs>
       <path id="Roboto-Bold-54" d="M 128 3791 
L 128 4550 
L 3831 4550 
L 3831 3791 
L 2441 3791 
L 2441 0 
L 1503 0 
L 1503 3791 
L 128 3791 
z
" transform="scale(0.015625)"/>
       <path id="Roboto-Bold-46" d="M 406 0 
L 406 4550 
L 3372 4550 
L 3372 3791 
L 1347 3791 
L 1347 2616 
L 3147 2616 
L 3147 1859 
L 1347 1859 
L 1347 0 
L 406 0 
z
" transform="scale(0.015625)"/>
       <path id="Roboto-Bold-4c" d="M 3334 756 
L 3334 0 
L 406 0 
L 406 4550 
L 1347 4550 
L 1347 756 
L 3334 756 
z
" transform="scale(0.015625)"/>
       <path id="Roboto-Bold-4f" d="M 4147 2172 
Q 4147 1131 3608 534 
Q 3069 -63 2212 -63 
Q 1356 -63 812 534 
Q 269 1131 269 2172 
L 269 2375 
Q 269 3416 809 4014 
Q 1350 4613 2206 4613 
Q 3063 4613 3605 4014 
Q 4147 3416 4147 2375 
L 4147 2172 
z
M 3197 2381 
Q 3197 3094 2937 3466 
Q 2678 3838 2206 3838 
Q 1734 3838 1478 3470 
Q 1222 3103 1219 2397 
L 1219 2172 
Q 1219 1463 1478 1086 
Q 1738 709 2213 709 
Q 2684 709 2939 1081 
Q 3194 1453 3197 2156 
L 3197 2381 
z
" transform="scale(0.015625)"/>
       <path id="Roboto-Bold-50" d="M 1347 1606 
L 1347 0 
L 406 0 
L 406 4550 
L 2184 4550 
Q 2991 4550 3442 4125 
Q 3894 3700 3894 3047 
Q 3894 2388 3442 1997 
Q 2991 1606 2184 1606 
L 1347 1606 
z
M 1347 3791 
L 1347 2363 
L 2184 2363 
Q 2588 2363 2766 2553 
Q 2944 2744 2944 3041 
Q 2944 3338 2766 3564 
Q 2588 3791 2184 3791 
L 1347 3791 
z
" transform="scale(0.015625)"/>
       <path id="Roboto-Bold-2f" d="M 2306 4550 
L 631 -391 
L -41 -391 
L 1634 4550 
L 2306 4550 
z
" transform="scale(0.015625)"/>
       <path id="Roboto-Bold-73" d="M 2178 938 
Q 2178 1081 2045 1179 
Q 1913 1278 1475 1372 
Q 953 1484 618 1721 
Q 284 1959 284 2394 
Q 284 2816 642 3130 
Q 1000 3444 1631 3444 
Q 2291 3444 2669 3134 
Q 3047 2825 3047 2353 
L 2144 2353 
Q 2144 2547 2019 2675 
Q 1894 2803 1628 2803 
Q 1403 2803 1276 2698 
Q 1150 2594 1150 2438 
Q 1150 2294 1284 2200 
Q 1419 2106 1781 2034 
Q 2331 1925 2693 1700 
Q 3056 1475 3056 972 
Q 3056 525 2672 231 
Q 2288 -63 1634 -63 
Q 925 -63 550 301 
Q 175 666 175 1078 
L 1034 1078 
Q 1047 813 1230 697 
Q 1413 581 1653 581 
Q 2178 581 2178 938 
z
" transform="scale(0.015625)"/>
      </defs>
      <use xlink:href="#Roboto-Bold-54"/>
      <use xlink:href="#Roboto-Bold-46" transform="translate(61.865234 0)"/>
      <use xlink:href="#Roboto-Bold-4c" transform="translate(116.699219 0)"/>
      <use xlink:href="#Roboto-Bold-4f" transform="translate(170.849609 0)"/>
      <use xlink:href="#Roboto-Bold-50" transform="translate(239.892578 0)"/>
      <use xlink:href="#Roboto-Bold-2f" transform="translate(304.443359 0)"/>
      <use xlink:href="#Roboto-Bold-73" transform="translate(341.845703 0)"/>
     </g>
    </g>
   </g>
   <g id="line2d_12">
    <path d="M 51.32 97.524167 
L 527.38 97.524167 
" clip-path="url(#p021e453d71)" style="fill: none; stroke-dasharray: 5.55,2.4; stroke-dashoffset: 0; stroke: #d32f2f; stroke-opacity: 0.6; stroke-width: 1.5"/>
   </g>
   <g id="patch_5">
    <path d="M 51.32 390.04 
L 51.32 39.021 
" style="fill: none; stroke: #000000; stroke-width: 0.8; stroke-linejoin: miter; stroke-linecap: square"/>
   </g>
   <g id="patch_6">
    <path d="M 527.38 390.04 
L 527.38 39.021 
" style="fill: none; stroke: #000000; stroke-width: 0.8; stroke-linejoin: miter; stroke-linecap: square"/>
   </g>
   <g id="patch_7">
    <path d="M 51.32 390.04 
L 527.38 390.04 
" style="fill: none; stroke: #000000; stroke-width: 0.8; stroke-linejoin: miter; stroke-linecap: square"/>
   </g>
   <g id="patch_8">
    <path d="M 51.32 39.021 
L 527.38 39.021 
" style="fill: none; stroke: #000000; stroke-width: 0.8; stroke-linejoin: miter; stroke-linecap: square"/>
   </g>
   <g id="text_14">
    <!-- 67.3 -->
    <g transform="translate(386.058879 129.925433) scale(0.12 -0.12)">
     <defs>
      <path id="Roboto-Bold-36" d="M 3450 1500 
Q 3450 838 3033 387 
Q 2616 -63 1916 -63 
Q 1188 -63 752 443 
Q 316 950 316 1750 
L 316 2097 
Q 316 3200 925 3898 
Q 1534 4597 2634 4597 
L 2763 4597 
L 2763 3853 
L 2672 3853 
Q 2050 3844 1688 3538 
Q 1313 3219 1238 2675 
Q 1603 3047 2156 3047 
Q 2800 3047 3125 2589 
Q 3450 2131 3450 1500 
z
M 1219 1631 
Q 1219 1150 1408 909 
Q 1597 669 1900 669 
Q 2194 669 2370 901 
Q 2547 1134 2547 1491 
Q 2547 1853 2370 2087 
Q 2194 2322 1881 2322 
Q 1641 2322 1469 2198 
Q 1297 2075 1219 1903 
L 1219 1631 
z
" transform="scale(0.015625)"/>
      <path id="Roboto-Bold-37" d="M 3406 4550 
L 3406 4047 
L 1647 0 
L 694 0 
L 2453 3822 
L 191 3822 
L 191 4550 
L 3406 4550 
z
" transform="scale(0.015625)"/>
      <path id="Roboto-Bold-2e" d="M 394 447 
Q 394 653 533 792 
Q 672 931 906 931 
Q 1141 931 1278 792 
Q 1416 653 1416 447 
Q 1416 244 1278 105 
Q 1141 -34 906 -34 
Q 672 -34 533 105 
Q 394 244 394 447 
z
" transform="scale(0.015625)"/>
      <path id="Roboto-Bold-33" d="M 1231 1969 
L 1231 2678 
L 1713 2678 
Q 2053 2678 2220 2848 
Q 2388 3019 2388 3306 
Q 2388 3559 2236 3723 
Q 2084 3888 1772 3888 
Q 1525 3888 1342 3750 
Q 1159 3613 1159 3372 
L 256 3372 
Q 256 3934 690 4275 
Q 1125 4616 1747 4616 
Q 2438 4616 2864 4286 
Q 3291 3956 3291 3319 
Q 3291 3025 3109 2758 
Q 2928 2491 2597 2338 
Q 2978 2203 3168 1926 
Q 3359 1650 3359 1278 
Q 3359 638 2898 287 
Q 2438 -63 1747 -63 
Q 1363 -63 1008 78 
Q 653 219 426 508 
Q 200 797 200 1247 
L 1106 1247 
Q 1106 994 1295 830 
Q 1484 666 1772 666 
Q 2094 666 2275 837 
Q 2456 1009 2456 1291 
Q 2456 1969 1706 1969 
L 1231 1969 
z
" transform="scale(0.015625)"/>
     </defs>
     <use xlink:href="#Roboto-Bold-36"/>
     <use xlink:href="#Roboto-Bold-37" transform="translate(57.373047 0)"/>
     <use xlink:href="#Roboto-Bold-2e" transform="translate(114.746094 0)"/>
     <use xlink:href="#Roboto-Bold-33" transform="translate(143.847656 0)"/>
    </g>
    <!-- TFLOPs -->
    <g transform="translate(376.778566 143.162933) scale(0.12 -0.12)">
     <use xlink:href="#Roboto-Bold-54"/>
     <use xlink:href="#Roboto-Bold-46" transform="translate(61.865234 0)"/>
     <use xlink:href="#Roboto-Bold-4c" transform="translate(116.699219 0)"/>
     <use xlink:href="#Roboto-Bold-4f" transform="translate(170.849609 0)"/>
     <use xlink:href="#Roboto-Bold-50" transform="translate(239.892578 0)"/>
     <use xlink:href="#Roboto-Bold-73" transform="translate(304.443359 0)"/>
    </g>
   </g>
   <g id="text_15">
    <!-- TFLOPs -->
    <g transform="translate(267.995625 19.21425) scale(0.12 -0.12)">
     <use xlink:href="#Roboto-Bold-54"/>
     <use xlink:href="#Roboto-Bold-46" transform="translate(61.865234 0)"/>
     <use xlink:href="#Roboto-Bold-4c" transform="translate(116.699219 0)"/>
     <use xlink:href="#Roboto-Bold-4f" transform="translate(170.849609 0)"/>
     <use xlink:href="#Roboto-Bold-50" transform="translate(239.892578 0)"/>
     <use xlink:href="#Roboto-Bold-73" transform="translate(304.443359 0)"/>
    </g>
    <!-- (RTX3090, seq_len=4096) -->
    <g transform="translate(219.241875 33.021) scale(0.12 -0.12)">
     <defs>
      <path id="Roboto-Bold-28" d="M 391 1850 
Q 391 2731 633 3392 
Q 875 4053 1234 4473 
Q 1594 4894 1947 5053 
L 2122 4566 
Q 1772 4303 1465 3661 
Q 1159 3019 1153 1906 
L 1153 1772 
Q 1153 628 1461 -23 
Q 1769 -675 2122 -944 
L 1947 -1422 
Q 1594 -1266 1234 -845 
Q 875 -425 633 237 
Q 391 900 391 1778 
L 391 1850 
z
" transform="scale(0.015625)"/>
      <path id="Roboto-Bold-52" d="M 2944 0 
L 2094 1669 
L 1347 1669 
L 1347 0 
L 406 0 
L 406 4550 
L 2100 4550 
Q 2884 4550 3332 4198 
Q 3781 3847 3781 3175 
Q 3781 2681 3562 2378 
Q 3344 2075 2969 1906 
L 3953 44 
L 3953 0 
L 2944 0 
z
M 1347 3791 
L 1347 2425 
L 2100 2425 
Q 2469 2425 2655 2611 
Q 2841 2797 2841 3103 
Q 2841 3419 2659 3605 
Q 2478 3791 2100 3791 
L 1347 3791 
z
" transform="scale(0.015625)"/>
      <path id="Roboto-Bold-58" d="M 1184 4550 
L 2038 2984 
L 2888 4550 
L 3966 4550 
L 2644 2294 
L 4000 0 
L 2909 0 
L 2038 1594 
L 1163 0 
L 72 0 
L 1431 2294 
L 106 4550 
L 1184 4550 
z
" transform="scale(0.015625)"/>
      <path id="Roboto-Bold-30" d="M 3372 1884 
Q 3372 856 2950 396 
Q 2528 -63 1840 -63 
Q 1153 -63 726 396 
Q 300 856 300 1884 
L 300 2675 
Q 300 3700 723 4156 
Q 1147 4613 1834 4613 
Q 2519 4613 2944 4159 
Q 3369 3706 3372 2691 
L 3372 1884 
z
M 2469 2800 
Q 2469 3406 2303 3645 
Q 2138 3884 1834 3884 
Q 1538 3884 1372 3650 
Q 1206 3416 1203 2825 
L 1203 1763 
Q 1203 1153 1370 909 
Q 1538 666 1841 666 
Q 2138 666 2302 905 
Q 2466 1144 2469 1738 
L 2469 2800 
z
" transform="scale(0.015625)"/>
      <path id="Roboto-Bold-39" d="M 3341 2444 
Q 3341 1334 2773 650 
Q 2206 -34 1063 -47 
L 950 -47 
L 950 709 
L 1025 709 
Q 1703 713 2039 998 
Q 2375 1284 2428 1822 
Q 2066 1472 1597 1472 
Q 956 1472 614 1911 
Q 272 2350 272 3006 
Q 272 3669 686 4142 
Q 1100 4616 1797 4616 
Q 2500 4616 2920 4105 
Q 3341 3594 3341 2756 
L 3341 2444 
z
M 1172 3016 
Q 1172 2666 1331 2416 
Q 1491 2166 1819 2166 
Q 2041 2166 2200 2280 
Q 2359 2394 2438 2556 
L 2438 2922 
Q 2438 3406 2253 3645 
Q 2069 3884 1794 3884 
Q 1497 3884 1334 3617 
Q 1172 3350 1172 3016 
z
" transform="scale(0.015625)"/>
      <path id="Roboto-Bold-2c" d="M 1200 769 
L 1197 144 
Q 1194 -209 1022 -561 
Q 850 -913 581 -1144 
L 113 -897 
Q 234 -672 334 -453 
Q 434 -234 438 88 
L 438 769 
L 1200 769 
z
" transform="scale(0.015625)"/>
      <path id="Roboto-Bold-20" transform="scale(0.015625)"/>
      <path id="Roboto-Bold-71" d="M 3253 3381 
L 3253 -1300 
L 2347 -1300 
L 2347 288 
Q 2028 -63 1531 -63 
Q 897 -63 551 428 
Q 206 919 206 1656 
L 206 1722 
Q 206 2494 550 2969 
Q 894 3444 1538 3444 
Q 2078 3444 2403 3034 
L 2459 3381 
L 3253 3381 
z
M 1113 1656 
Q 1113 1250 1258 958 
Q 1403 666 1759 666 
Q 2172 666 2347 997 
L 2347 2397 
Q 2178 2716 1766 2716 
Q 1413 2716 1263 2431 
Q 1113 2147 1113 1656 
z
" transform="scale(0.015625)"/>
      <path id="Roboto-Bold-5f" d="M 2850 0 
L 2850 -706 
L 3 -706 
L 3 0 
L 2850 0 
z
" transform="scale(0.015625)"/>
      <path id="Roboto-Bold-3d" d="M 3222 3069 
L 3222 2331 
L 428 2331 
L 428 3069 
L 3222 3069 
z
M 3222 1716 
L 3222 981 
L 428 981 
L 428 1716 
L 3222 1716 
z
" transform="scale(0.015625)"/>
      <path id="Roboto-Bold-34" d="M 175 1553 
L 2072 4550 
L 2984 4550 
L 2984 1713 
L 3500 1713 
L 3500 984 
L 2984 984 
L 2984 0 
L 2081 0 
L 2081 984 
L 216 984 
L 175 1553 
z
M 1072 1713 
L 2081 1713 
L 2081 3328 
L 2019 3219 
L 1072 1713 
z
" transform="scale(0.015625)"/>
      <path id="Roboto-Bold-29" d="M 1906 1778 
Q 1906 928 1656 264 
Q 1406 -400 1034 -833 
Q 663 -1266 300 -1422 
L 125 -944 
Q 472 -684 780 -37 
Q 1088 609 1094 1722 
L 1094 1856 
Q 1094 3000 780 3656 
Q 466 4313 125 4572 
L 300 5053 
Q 663 4894 1034 4461 
Q 1406 4028 1656 3364 
Q 1906 2700 1906 1847 
L 1906 1778 
z
" transform="scale(0.015625)"/>
     </defs>
     <use xlink:href="#Roboto-Bold-28"/>
     <use xlink:href="#Roboto-Bold-52" transform="translate(35.107422 0)"/>
     <use xlink:href="#Roboto-Bold-54" transform="translate(98.925781 0)"/>
     <use xlink:href="#Roboto-Bold-58" transform="translate(160.791016 0)"/>
     <use xlink:href="#Roboto-Bold-33" transform="translate(224.365234 0)"/>
     <use xlink:href="#Roboto-Bold-30" transform="translate(281.738281 0)"/>
     <use xlink:href="#Roboto-Bold-39" transform="translate(339.111328 0)"/>
     <use xlink:href="#Roboto-Bold-30" transform="translate(396.484375 0)"/>
     <use xlink:href="#Roboto-Bold-2c" transform="translate(453.857422 0)"/>
     <use xlink:href="#Roboto-Bold-20" transform="translate(478.320312 0)"/>
     <use xlink:href="#Roboto-Bold-73" transform="translate(503.222656 0)"/>
     <use xlink:href="#Roboto-Bold-65" transform="translate(554.6875 0)"/>
     <use xlink:href="#Roboto-Bold-71" transform="translate(608.740234 0)"/>
     <use xlink:href="#Roboto-Bold-5f" transform="translate(665.234375 0)"/>
     <use xlink:href="#Roboto-Bold-6c" transform="translate(709.912109 0)"/>
     <use xlink:href="#Roboto-Bold-65" transform="translate(736.425781 0)"/>
     <use xlink:href="#Roboto-Bold-6e" transform="translate(790.478516 0)"/>
     <use xlink:href="#Roboto-Bold-3d" transform="translate(846.484375 0)"/>
     <use xlink:href="#Roboto-Bold-34" transform="translate(903.710938 0)"/>
     <use xlink:href="#Roboto-Bold-30" transform="translate(961.083984 0)"/>
     <use xlink:href="#Roboto-Bold-39" transform="translate(1018.457031 0)"/>
     <use xlink:href="#Roboto-Bold-36" transform="translate(1075.830078 0)"/>
     <use xlink:href="#Roboto-Bold-29" transform="translate(1133.203125 0)"/>
    </g>
   </g>
  </g>
  <g id="axes_2">
   <g id="matplotlib.axis_3">
    <g id="ytick_10">
     <g id="line2d_13">
      <defs>
       <path id="m5c06c59408" d="M 0 0 
L 3.5 0 
" style="stroke: #000000; stroke-width: 0.8"/>
      </defs>
      <g>
       <use xlink:href="#m5c06c59408" x="527.38" y="390.04" style="stroke: #000000; stroke-width: 0.8"/>
      </g>
     </g>
     <g id="text_16">
      <!-- 0 -->
      <g style="fill: #ff7f1c" transform="translate(534.38 393.79) scale(0.1 -0.1)">
       <use xlink:href="#Roboto-Regular-30"/>
      </g>
     </g>
    </g>
    <g id="ytick_11">
     <g id="line2d_14">
      <g>
       <use xlink:href="#m5c06c59408" x="527.38" y="331.536833" style="stroke: #000000; stroke-width: 0.8"/>
      </g>
     </g>
     <g id="text_17">
      <!-- 20 -->
      <g style="fill: #ff7f1c" transform="translate(534.38 335.286833) scale(0.1 -0.1)">
       <use xlink:href="#Roboto-Regular-32"/>
       <use xlink:href="#Roboto-Regular-30" transform="translate(56.201172 0)"/>
      </g>
     </g>
    </g>
    <g id="ytick_12">
     <g id="line2d_15">
      <g>
       <use xlink:href="#m5c06c59408" x="527.38" y="273.033667" style="stroke: #000000; stroke-width: 0.8"/>
      </g>
     </g>
     <g id="text_18">
      <!-- 40 -->
      <g style="fill: #ff7f1c" transform="translate(534.38 276.783667) scale(0.1 -0.1)">
       <use xlink:href="#Roboto-Regular-34"/>
       <use xlink:href="#Roboto-Regular-30" transform="translate(56.201172 0)"/>
      </g>
     </g>
    </g>
    <g id="ytick_13">
     <g id="line2d_16">
      <g>
       <use xlink:href="#m5c06c59408" x="527.38" y="214.5305" style="stroke: #000000; stroke-width: 0.8"/>
      </g>
     </g>
     <g id="text_19">
      <!-- 60 -->
      <g style="fill: #ff7f1c" transform="translate(534.38 218.2805) scale(0.1 -0.1)">
       <use xlink:href="#Roboto-Regular-36"/>
       <use xlink:href="#Roboto-Regular-30" transform="translate(56.201172 0)"/>
      </g>
     </g>
    </g>
    <g id="ytick_14">
     <g id="line2d_17">
      <g>
       <use xlink:href="#m5c06c59408" x="527.38" y="156.027333" style="stroke: #000000; stroke-width: 0.8"/>
      </g>
     </g>
     <g id="text_20">
      <!-- 80 -->
      <g style="fill: #ff7f1c" transform="translate(534.38 159.777333) scale(0.1 -0.1)">
       <use xlink:href="#Roboto-Regular-38"/>
       <use xlink:href="#Roboto-Regular-30" transform="translate(56.201172 0)"/>
      </g>
     </g>
    </g>
    <g id="ytick_15">
     <g id="line2d_18">
      <g>
       <use xlink:href="#m5c06c59408" x="527.38" y="97.524167" style="stroke: #000000; stroke-width: 0.8"/>
      </g>
     </g>
     <g id="text_21">
      <!-- 100 -->
      <g style="fill: #ff7f1c" transform="translate(534.38 101.274167) scale(0.1 -0.1)">
       <use xlink:href="#Roboto-Regular-31"/>
       <use xlink:href="#Roboto-Regular-30" transform="translate(56.201172 0)"/>
       <use xlink:href="#Roboto-Regular-30" transform="translate(112.402344 0)"/>
      </g>
     </g>
    </g>
    <g id="ytick_16">
     <g id="line2d_19">
      <g>
       <use xlink:href="#m5c06c59408" x="527.38" y="39.021" style="stroke: #000000; stroke-width: 0.8"/>
      </g>
     </g>
     <g id="text_22">
      <!-- 120 -->
      <g style="fill: #ff7f1c" transform="translate(534.38 42.771) scale(0.1 -0.1)">
       <use xlink:href="#Roboto-Regular-31"/>
       <use xlink:href="#Roboto-Regular-32" transform="translate(56.201172 0)"/>
       <use xlink:href="#Roboto-Regular-30" transform="translate(112.402344 0)"/>
      </g>
     </g>
    </g>
    <g id="text_23">
     <!-- % of Reference -->
     <g style="fill: #ff7f1c" transform="translate(563.490937 251.744016) rotate(-90) scale(0.11 -0.11)">
      <defs>
       <path id="Roboto-Bold-25" d="M 297 3675 
Q 297 4063 550 4339 
Q 803 4616 1284 4616 
Q 1775 4616 2023 4339 
Q 2272 4063 2272 3675 
L 2272 3434 
Q 2272 3053 2023 2776 
Q 1775 2500 1290 2500 
Q 806 2500 551 2776 
Q 297 3053 297 3434 
L 297 3675 
z
M 3691 3897 
L 1469 341 
L 1028 578 
L 3250 4134 
L 3691 3897 
z
M 900 3434 
Q 900 3272 995 3147 
Q 1091 3022 1291 3022 
Q 1484 3022 1578 3147 
Q 1672 3272 1672 3434 
L 1672 3675 
Q 1672 3841 1576 3967 
Q 1481 4094 1284 4094 
Q 1091 4094 995 3967 
Q 900 3841 900 3675 
L 900 3434 
z
M 2472 1116 
Q 2472 1500 2726 1776 
Q 2981 2053 3463 2053 
Q 3950 2053 4200 1776 
Q 4450 1500 4450 1116 
L 4450 875 
Q 4450 491 4200 214 
Q 3950 -63 3469 -63 
Q 2984 -63 2728 214 
Q 2472 491 2472 875 
L 2472 1116 
z
M 3075 875 
Q 3075 713 3181 586 
Q 3288 459 3469 459 
Q 3691 459 3770 586 
Q 3850 713 3850 875 
L 3850 1116 
Q 3850 1281 3753 1406 
Q 3656 1531 3463 1531 
Q 3266 1531 3170 1406 
Q 3075 1281 3075 1116 
L 3075 875 
z
" transform="scale(0.015625)"/>
       <path id="Roboto-Bold-6f" d="M 206 1722 
Q 206 2459 625 2951 
Q 1044 3444 1806 3444 
Q 2578 3444 2993 2951 
Q 3409 2459 3409 1722 
L 3409 1656 
Q 3409 919 2993 428 
Q 2578 -63 1813 -63 
Q 1053 -63 636 415 
Q 219 894 206 1616 
L 206 1722 
z
M 1113 1656 
Q 1113 1244 1270 955 
Q 1428 666 1813 666 
Q 2191 666 2348 953 
Q 2506 1241 2506 1722 
Q 2506 2125 2348 2420 
Q 2191 2716 1806 2716 
Q 1425 2716 1269 2422 
Q 1113 2128 1113 1656 
z
" transform="scale(0.015625)"/>
       <path id="Roboto-Bold-66" d="M 2172 2722 
L 1500 2722 
L 1500 0 
L 594 0 
L 594 2722 
L 91 2722 
L 91 3381 
L 594 3381 
L 594 3675 
Q 594 4253 928 4559 
Q 1263 4866 1834 4866 
Q 2053 4866 2297 4803 
L 2288 4103 
Q 2169 4131 2009 4131 
Q 1509 4131 1500 3691 
L 1500 3381 
L 2172 3381 
L 2172 2722 
z
" transform="scale(0.015625)"/>
       <path id="Roboto-Bold-63" d="M 1753 666 
Q 2000 666 2159 802 
Q 2319 938 2322 1169 
L 3172 1169 
Q 3166 631 2761 284 
Q 2356 -63 1769 -63 
Q 984 -63 595 432 
Q 206 928 206 1647 
L 206 1734 
Q 206 2450 593 2947 
Q 981 3444 1766 3444 
Q 2388 3444 2777 3087 
Q 3166 2731 3172 2122 
L 2322 2122 
Q 2319 2369 2172 2542 
Q 2025 2716 1750 2716 
Q 1356 2716 1234 2420 
Q 1113 2125 1113 1647 
Q 1113 1256 1233 961 
Q 1353 666 1753 666 
z
" transform="scale(0.015625)"/>
      </defs>
      <use xlink:href="#Roboto-Bold-25"/>
      <use xlink:href="#Roboto-Bold-20" transform="translate(73.828125 0)"/>
      <use xlink:href="#Roboto-Bold-6f" transform="translate(98.730469 0)"/>
      <use xlink:href="#Roboto-Bold-66" transform="translate(155.273438 0)"/>
      <use xlink:href="#Roboto-Bold-20" transform="translate(191.113281 0)"/>
      <use xlink:href="#Roboto-Bold-52" transform="translate(216.015625 0)"/>
      <use xlink:href="#Roboto-Bold-65" transform="translate(279.833984 0)"/>
      <use xlink:href="#Roboto-Bold-66" transform="translate(333.886719 0)"/>
      <use xlink:href="#Roboto-Bold-65" transform="translate(369.726562 0)"/>
      <use xlink:href="#Roboto-Bold-72" transform="translate(423.779297 0)"/>
      <use xlink:href="#Roboto-Bold-65" transform="translate(460.302734 0)"/>
      <use xlink:href="#Roboto-Bold-6e" transform="translate(514.355469 0)"/>
      <use xlink:href="#Roboto-Bold-63" transform="translate(570.361328 0)"/>
      <use xlink:href="#Roboto-Bold-65" transform="translate(622.558594 0)"/>
     </g>
    </g>
   </g>
   <g id="line2d_20">
    <defs>
     <path id="mda23cb7074" d="M 0 4 
C 1.060812 4 2.078319 3.578535 2.828427 2.828427 
C 3.578535 2.078319 4 1.060812 4 0 
C 4 -1.060812 3.578535 -2.078319 2.828427 -2.828427 
C 2.078319 -3.578535 1.060812 -4 0 -4 
C -1.060812 -4 -2.078319 -3.578535 -2.828427 -2.828427 
C -3.578535 -2.078319 -4 -1.060812 -4 0 
C -4 1.060812 -3.578535 2.078319 -2.828427 2.828427 
C -2.078319 3.578535 -1.060812 4 0 4 
z
" style="stroke: #ff7f1c"/>
    </defs>
    <g clip-path="url(#p021e453d71)">
     <use xlink:href="#mda23cb7074" x="180.567059" y="245.386471" style="fill: #ff7f1c; stroke: #ff7f1c"/>
    </g>
   </g>
   <g id="patch_9">
    <path d="M 51.32 390.04 
L 51.32 39.021 
" style="fill: none; stroke: #000000; stroke-width: 0.8; stroke-linejoin: miter; stroke-linecap: square"/>
   </g>
   <g id="patch_10">
    <path d="M 527.38 390.04 
L 527.38 39.021 
" style="fill: none; stroke: #000000; stroke-width: 0.8; stroke-linejoin: miter; stroke-linecap: square"/>
   </g>
   <g id="patch_11">
    <path d="M 51.32 390.04 
L 527.38 390.04 
" style="fill: none; stroke: #000000; stroke-width: 0.8; stroke-linejoin: miter; stroke-linecap: square"/>
   </g>
   <g id="patch_12">
    <path d="M 51.32 39.021 
L 527.38 39.021 
" style="fill: none; stroke: #000000; stroke-width: 0.8; stroke-linejoin: miter; stroke-linecap: square"/>
   </g>
   <g id="text_24">
    <!-- 49.5% -->
    <g style="fill: #ff7f1c" transform="translate(164.063309 239.536155) scale(0.12 -0.12)">
     <defs>
      <path id="Roboto-Bold-35" d="M 1166 2063 
L 447 2238 
L 706 4550 
L 3256 4550 
L 3256 3800 
L 1450 3800 
L 1338 2819 
Q 1650 2991 2019 2991 
Q 2681 2991 3043 2587 
Q 3406 2184 3406 1463 
Q 3406 856 3031 396 
Q 2656 -63 1872 -63 
Q 1281 -63 814 287 
Q 347 638 331 1269 
L 1225 1269 
Q 1284 666 1866 666 
Q 2206 666 2354 911 
Q 2503 1156 2503 1513 
Q 2503 1872 2325 2092 
Q 2147 2313 1772 2313 
Q 1525 2313 1390 2233 
Q 1256 2153 1166 2063 
z
" transform="scale(0.015625)"/>
     </defs>
     <use xlink:href="#Roboto-Bold-34"/>
     <use xlink:href="#Roboto-Bold-39" transform="translate(57.373047 0)"/>
     <use xlink:href="#Roboto-Bold-2e" transform="translate(114.746094 0)"/>
     <use xlink:href="#Roboto-Bold-35" transform="translate(143.847656 0)"/>
     <use xlink:href="#Roboto-Bold-25" transform="translate(201.220703 0)"/>
    </g>
   </g>
   <g id="legend_1">
    <g id="patch_13">
     <path d="M 421.915937 61.55225 
L 520.38 61.55225 
Q 522.38 61.55225 522.38 59.55225 
L 522.38 46.021 
Q 522.38 44.021 520.38 44.021 
L 421.915937 44.021 
Q 419.915937 44.021 419.915937 46.021 
L 419.915937 59.55225 
Q 419.915937 61.55225 421.915937 61.55225 
z
" style="fill: #ffffff; opacity: 0.8; stroke: #cccccc; stroke-linejoin: miter"/>
    </g>
    <g id="line2d_21">
     <g>
      <use xlink:href="#mda23cb7074" x="433.915937" y="52.021" style="fill: #ff7f1c; stroke: #ff7f1c"/>
     </g>
    </g>
    <g id="text_25">
     <!-- % of Reference -->
     <g transform="translate(451.915937 55.521) scale(0.1 -0.1)">
      <defs>
       <path id="Roboto-Regular-25" d="M 328 3675 
Q 328 4063 578 4339 
Q 828 4616 1259 4616 
Q 1697 4616 1945 4339 
Q 2194 4063 2194 3675 
L 2194 3434 
Q 2194 3053 1947 2776 
Q 1700 2500 1265 2500 
Q 831 2500 579 2776 
Q 328 3053 328 3434 
L 328 3675 
z
M 763 3434 
Q 763 3219 886 3047 
Q 1009 2875 1266 2875 
Q 1516 2875 1637 3045 
Q 1759 3216 1759 3434 
L 1759 3675 
Q 1759 3894 1636 4067 
Q 1513 4241 1259 4241 
Q 1009 4241 886 4067 
Q 763 3894 763 3675 
L 763 3434 
z
M 3619 3903 
L 1397 347 
L 1072 553 
L 3294 4109 
L 3619 3903 
z
M 2544 1116 
Q 2544 1500 2794 1776 
Q 3044 2053 3475 2053 
Q 3913 2053 4161 1776 
Q 4409 1500 4409 1116 
L 4409 872 
Q 4409 488 4162 211 
Q 3916 -66 3481 -66 
Q 3044 -66 2794 211 
Q 2544 488 2544 872 
L 2544 1116 
z
M 2978 872 
Q 2978 653 3101 481 
Q 3225 309 3481 309 
Q 3734 309 3856 479 
Q 3978 650 3978 872 
L 3978 1116 
Q 3978 1338 3854 1508 
Q 3731 1678 3475 1678 
Q 3225 1678 3101 1508 
Q 2978 1338 2978 1116 
L 2978 872 
z
" transform="scale(0.015625)"/>
       <path id="Roboto-Regular-20" transform="scale(0.015625)"/>
       <path id="Roboto-Regular-6f" d="M 288 1725 
Q 288 2459 700 2951 
Q 1113 3444 1822 3444 
Q 2531 3444 2943 2961 
Q 3356 2478 3366 1756 
L 3366 1653 
Q 3366 919 2952 428 
Q 2538 -63 1828 -63 
Q 1116 -63 702 428 
Q 288 919 288 1653 
L 288 1725 
z
M 866 1653 
Q 866 1150 1105 781 
Q 1344 413 1828 413 
Q 2300 413 2540 777 
Q 2781 1141 2784 1644 
L 2784 1725 
Q 2784 2222 2543 2595 
Q 2303 2969 1822 2969 
Q 1344 2969 1105 2595 
Q 866 2222 866 1725 
L 866 1653 
z
" transform="scale(0.015625)"/>
      </defs>
      <use xlink:href="#Roboto-Regular-25"/>
      <use xlink:href="#Roboto-Regular-20" transform="translate(73.242188 0)"/>
      <use xlink:href="#Roboto-Regular-6f" transform="translate(98.046875 0)"/>
      <use xlink:href="#Roboto-Regular-66" transform="translate(155.078125 0)"/>
      <use xlink:href="#Roboto-Regular-20" transform="translate(189.84375 0)"/>
      <use xlink:href="#Roboto-Regular-52" transform="translate(214.648438 0)"/>
      <use xlink:href="#Roboto-Regular-65" transform="translate(276.269531 0)"/>
      <use xlink:href="#Roboto-Regular-66" transform="translate(329.296875 0)"/>
      <use xlink:href="#Roboto-Regular-65" transform="translate(364.0625 0)"/>
      <use xlink:href="#Roboto-Regular-72" transform="translate(417.089844 0)"/>
      <use xlink:href="#Roboto-Regular-65" transform="translate(450.976562 0)"/>
      <use xlink:href="#Roboto-Regular-6e" transform="translate(504.003906 0)"/>
      <use xlink:href="#Roboto-Regular-63" transform="translate(559.228516 0)"/>
      <use xlink:href="#Roboto-Regular-65" transform="translate(611.572266 0)"/>
     </g>
    </g>
   </g>
  </g>
 </g>
 <defs>
  <clipPath id="p021e453d71">
   <rect x="51.32" y="39.021" width="476.06" height="351.019"/>
  </clipPath>
 </defs>
</svg>
