<?xml version="1.0" encoding="utf-8" standalone="no"?>
<!DOCTYPE svg PUBLIC "-//W3C//DTD SVG 1.1//EN"
  "http://www.w3.org/Graphics/SVG/1.1/DTD/svg11.dtd">
<svg xmlns:xlink="http://www.w3.org/1999/xlink" width="720pt" height="486pt" viewBox="0 0 720 486" xmlns="http://www.w3.org/2000/svg" version="1.1">
 <metadata>
  <rdf:RDF xmlns:dc="http://purl.org/dc/elements/1.1/" xmlns:cc="http://creativecommons.org/ns#" xmlns:rdf="http://www.w3.org/1999/02/22-rdf-syntax-ns#">
   <cc:Work>
    <dc:type rdf:resource="http://purl.org/dc/dcmitype/StillImage"/>
    <dc:date>2025-08-29T13:04:18.940718</dc:date>
    <dc:format>image/svg+xml</dc:format>
    <dc:creator>
     <cc:Agent>
      <dc:title>Matplotlib v3.10.1, https://matplotlib.org/</dc:title>
     </cc:Agent>
    </dc:creator>
   </cc:Work>
  </rdf:RDF>
 </metadata>
 <defs>
  <style type="text/css">*{stroke-linejoin: round; stroke-linecap: butt}</style>
 </defs>
 <g id="figure_1">
  <g id="patch_1">
   <path d="M 0 486 
L 720 486 
L 720 0 
L 0 0 
z
" style="fill: #f8f8f8; stroke: #ffffff; stroke-linejoin: miter"/>
  </g>
  <g id="axes_1">
   <g id="patch_2">
    <path d="M 92.68 440.36125 
L 696.735 440.36125 
L 696.735 90.981 
L 92.68 90.981 
z
" style="fill: #f8f8f8"/>
   </g>
   <g id="matplotlib.axis_1">
    <g id="xtick_1">
     <g id="line2d_1">
      <path d="M 92.68 440.36125 
L 92.68 90.981 
" clip-path="url(#pe94ae44783)" style="fill: none; stroke: #e0e0e0; stroke-opacity: 0.6; stroke-width: 0.8; stroke-linecap: square"/>
     </g>
     <g id="line2d_2">
      <defs>
       <path id="m7d0c45715a" d="M 0 0 
L 0 3.5 
" style="stroke: #d0d0d0; stroke-width: 0.8"/>
      </defs>
      <g>
       <use xlink:href="#m7d0c45715a" x="92.68" y="440.36125" style="fill: #d0d0d0; stroke: #d0d0d0; stroke-width: 0.8"/>
      </g>
     </g>
     <g id="line2d_3">
      <defs>
       <path id="m124fd82f56" d="M 0 0 
L 0 -3.5 
" style="stroke: #d0d0d0; stroke-width: 0.8"/>
      </defs>
      <g>
       <use xlink:href="#m124fd82f56" x="92.68" y="90.981" style="fill: #d0d0d0; stroke: #d0d0d0; stroke-width: 0.8"/>
      </g>
     </g>
     <g id="text_1">
      <!-- 0.0 -->
      <g transform="translate(85.740938 454.86125) scale(0.1 -0.1)">
       <defs>
        <path id="Roboto-Regular-30" d="M 3234 1944 
Q 3234 825 2848 381 
Q 2463 -63 1800 -63 
Q 1156 -63 764 368 
Q 372 800 359 1872 
L 359 2638 
Q 359 3753 750 4183 
Q 1141 4613 1794 4613 
Q 2447 4613 2834 4195 
Q 3222 3778 3234 2709 
L 3234 1944 
z
M 2653 2734 
Q 2653 3503 2434 3822 
Q 2216 4141 1794 4141 
Q 1388 4141 1167 3831 
Q 947 3522 941 2778 
L 941 1850 
Q 941 1088 1164 750 
Q 1388 413 1800 413 
Q 2222 413 2436 745 
Q 2650 1078 2653 1825 
L 2653 2734 
z
" transform="scale(0.015625)"/>
        <path id="Roboto-Regular-2e" d="M 450 306 
Q 450 453 542 554 
Q 634 656 809 656 
Q 984 656 1076 554 
Q 1169 453 1169 306 
Q 1169 163 1076 62 
Q 984 -38 809 -38 
Q 634 -38 542 62 
Q 450 163 450 306 
z
" transform="scale(0.015625)"/>
       </defs>
       <use xlink:href="#Roboto-Regular-30"/>
       <use xlink:href="#Roboto-Regular-2e" transform="translate(56.201172 0)"/>
       <use xlink:href="#Roboto-Regular-30" transform="translate(82.568359 0)"/>
      </g>
     </g>
     <g id="text_2">
      <!-- 0.0 -->
      <g transform="translate(85.740938 81.94975) scale(0.1 -0.1)">
       <use xlink:href="#Roboto-Regular-30"/>
       <use xlink:href="#Roboto-Regular-2e" transform="translate(56.201172 0)"/>
       <use xlink:href="#Roboto-Regular-30" transform="translate(82.568359 0)"/>
      </g>
     </g>
    </g>
    <g id="xtick_2">
     <g id="line2d_4">
      <path d="M 213.491 440.36125 
L 213.491 90.981 
" clip-path="url(#pe94ae44783)" style="fill: none; stroke: #e0e0e0; stroke-opacity: 0.6; stroke-width: 0.8; stroke-linecap: square"/>
     </g>
     <g id="line2d_5">
      <g>
       <use xlink:href="#m7d0c45715a" x="213.491" y="440.36125" style="fill: #d0d0d0; stroke: #d0d0d0; stroke-width: 0.8"/>
      </g>
     </g>
     <g id="line2d_6">
      <g>
       <use xlink:href="#m124fd82f56" x="213.491" y="90.981" style="fill: #d0d0d0; stroke: #d0d0d0; stroke-width: 0.8"/>
      </g>
     </g>
     <g id="text_3">
      <!-- 20.0 -->
      <g transform="translate(203.741781 454.86125) scale(0.1 -0.1)">
       <defs>
        <path id="Roboto-Regular-32" d="M 3359 475 
L 3359 0 
L 381 0 
L 381 416 
L 1925 2134 
Q 2306 2566 2439 2819 
Q 2572 3072 2572 3328 
Q 2572 3663 2364 3900 
Q 2156 4138 1778 4138 
Q 1322 4138 1097 3878 
Q 872 3619 872 3213 
L 294 3213 
Q 294 3788 672 4200 
Q 1050 4613 1778 4613 
Q 2422 4613 2786 4278 
Q 3150 3944 3150 3397 
Q 3150 2997 2903 2592 
Q 2656 2188 2297 1797 
L 1078 475 
L 3359 475 
z
" transform="scale(0.015625)"/>
       </defs>
       <use xlink:href="#Roboto-Regular-32"/>
       <use xlink:href="#Roboto-Regular-30" transform="translate(56.201172 0)"/>
       <use xlink:href="#Roboto-Regular-2e" transform="translate(112.402344 0)"/>
       <use xlink:href="#Roboto-Regular-30" transform="translate(138.769531 0)"/>
      </g>
     </g>
     <g id="text_4">
      <!-- 20.0 -->
      <g transform="translate(203.741781 81.94975) scale(0.1 -0.1)">
       <use xlink:href="#Roboto-Regular-32"/>
       <use xlink:href="#Roboto-Regular-30" transform="translate(56.201172 0)"/>
       <use xlink:href="#Roboto-Regular-2e" transform="translate(112.402344 0)"/>
       <use xlink:href="#Roboto-Regular-30" transform="translate(138.769531 0)"/>
      </g>
     </g>
    </g>
    <g id="xtick_3">
     <g id="line2d_7">
      <path d="M 334.302 440.36125 
L 334.302 90.981 
" clip-path="url(#pe94ae44783)" style="fill: none; stroke: #e0e0e0; stroke-opacity: 0.6; stroke-width: 0.8; stroke-linecap: square"/>
     </g>
     <g id="line2d_8">
      <g>
       <use xlink:href="#m7d0c45715a" x="334.302" y="440.36125" style="fill: #d0d0d0; stroke: #d0d0d0; stroke-width: 0.8"/>
      </g>
     </g>
     <g id="line2d_9">
      <g>
       <use xlink:href="#m124fd82f56" x="334.302" y="90.981" style="fill: #d0d0d0; stroke: #d0d0d0; stroke-width: 0.8"/>
      </g>
     </g>
     <g id="text_5">
      <!-- 40.0 -->
      <g transform="translate(324.552781 454.86125) scale(0.1 -0.1)">
       <defs>
        <path id="Roboto-Regular-34" d="M 166 1397 
L 2203 4550 
L 2819 4550 
L 2819 1531 
L 3453 1531 
L 3453 1056 
L 2819 1056 
L 2819 0 
L 2241 0 
L 2241 1056 
L 166 1056 
L 166 1397 
z
M 822 1531 
L 2241 1531 
L 2241 3766 
L 2169 3638 
L 822 1531 
z
" transform="scale(0.015625)"/>
       </defs>
       <use xlink:href="#Roboto-Regular-34"/>
       <use xlink:href="#Roboto-Regular-30" transform="translate(56.201172 0)"/>
       <use xlink:href="#Roboto-Regular-2e" transform="translate(112.402344 0)"/>
       <use xlink:href="#Roboto-Regular-30" transform="translate(138.769531 0)"/>
      </g>
     </g>
     <g id="text_6">
      <!-- 40.0 -->
      <g transform="translate(324.552781 81.94975) scale(0.1 -0.1)">
       <use xlink:href="#Roboto-Regular-34"/>
       <use xlink:href="#Roboto-Regular-30" transform="translate(56.201172 0)"/>
       <use xlink:href="#Roboto-Regular-2e" transform="translate(112.402344 0)"/>
       <use xlink:href="#Roboto-Regular-30" transform="translate(138.769531 0)"/>
      </g>
     </g>
    </g>
    <g id="xtick_4">
     <g id="line2d_10">
      <path d="M 455.113 440.36125 
L 455.113 90.981 
" clip-path="url(#pe94ae44783)" style="fill: none; stroke: #e0e0e0; stroke-opacity: 0.6; stroke-width: 0.8; stroke-linecap: square"/>
     </g>
     <g id="line2d_11">
      <g>
       <use xlink:href="#m7d0c45715a" x="455.113" y="440.36125" style="fill: #d0d0d0; stroke: #d0d0d0; stroke-width: 0.8"/>
      </g>
     </g>
     <g id="line2d_12">
      <g>
       <use xlink:href="#m124fd82f56" x="455.113" y="90.981" style="fill: #d0d0d0; stroke: #d0d0d0; stroke-width: 0.8"/>
      </g>
     </g>
     <g id="text_7">
      <!-- 60.0 -->
      <g transform="translate(445.363781 454.86125) scale(0.1 -0.1)">
       <defs>
        <path id="Roboto-Regular-36" d="M 3291 1484 
Q 3291 838 2930 387 
Q 2569 -63 1878 -63 
Q 1388 -63 1063 198 
Q 738 459 577 861 
Q 416 1263 416 1684 
L 416 1956 
Q 416 2597 595 3194 
Q 775 3791 1247 4173 
Q 1719 4556 2597 4556 
L 2647 4556 
L 2647 4066 
Q 2041 4066 1705 3853 
Q 1369 3641 1205 3302 
Q 1041 2963 1006 2575 
Q 1369 2984 1984 2984 
Q 2438 2984 2727 2765 
Q 3016 2547 3153 2201 
Q 3291 1856 3291 1484 
z
M 997 1666 
Q 997 1059 1267 737 
Q 1538 416 1878 416 
Q 2278 416 2498 708 
Q 2719 1000 2719 1456 
Q 2719 1863 2516 2184 
Q 2313 2506 1891 2506 
Q 1588 2506 1341 2325 
Q 1094 2144 997 1884 
L 997 1666 
z
" transform="scale(0.015625)"/>
       </defs>
       <use xlink:href="#Roboto-Regular-36"/>
       <use xlink:href="#Roboto-Regular-30" transform="translate(56.201172 0)"/>
       <use xlink:href="#Roboto-Regular-2e" transform="translate(112.402344 0)"/>
       <use xlink:href="#Roboto-Regular-30" transform="translate(138.769531 0)"/>
      </g>
     </g>
     <g id="text_8">
      <!-- 60.0 -->
      <g transform="translate(445.363781 81.94975) scale(0.1 -0.1)">
       <use xlink:href="#Roboto-Regular-36"/>
       <use xlink:href="#Roboto-Regular-30" transform="translate(56.201172 0)"/>
       <use xlink:href="#Roboto-Regular-2e" transform="translate(112.402344 0)"/>
       <use xlink:href="#Roboto-Regular-30" transform="translate(138.769531 0)"/>
      </g>
     </g>
    </g>
    <g id="xtick_5">
     <g id="line2d_13">
      <path d="M 575.924 440.36125 
L 575.924 90.981 
" clip-path="url(#pe94ae44783)" style="fill: none; stroke: #e0e0e0; stroke-opacity: 0.6; stroke-width: 0.8; stroke-linecap: square"/>
     </g>
     <g id="line2d_14">
      <g>
       <use xlink:href="#m7d0c45715a" x="575.924" y="440.36125" style="fill: #d0d0d0; stroke: #d0d0d0; stroke-width: 0.8"/>
      </g>
     </g>
     <g id="line2d_15">
      <g>
       <use xlink:href="#m124fd82f56" x="575.924" y="90.981" style="fill: #d0d0d0; stroke: #d0d0d0; stroke-width: 0.8"/>
      </g>
     </g>
     <g id="text_9">
      <!-- 80.0 -->
      <g transform="translate(566.174781 454.86125) scale(0.1 -0.1)">
       <defs>
        <path id="Roboto-Regular-38" d="M 3244 1231 
Q 3244 606 2826 271 
Q 2409 -63 1796 -63 
Q 1184 -63 767 271 
Q 350 606 350 1231 
Q 350 1613 554 1905 
Q 759 2197 1109 2347 
Q 806 2494 629 2762 
Q 453 3031 453 3366 
Q 453 3963 833 4288 
Q 1213 4613 1794 4613 
Q 2378 4613 2758 4288 
Q 3138 3963 3138 3366 
Q 3138 3028 2956 2761 
Q 2775 2494 2472 2347 
Q 2825 2197 3034 1903 
Q 3244 1609 3244 1231 
z
M 2559 3356 
Q 2559 3697 2346 3917 
Q 2134 4138 1793 4138 
Q 1453 4138 1243 3927 
Q 1034 3716 1034 3356 
Q 1034 3003 1243 2790 
Q 1453 2578 1797 2578 
Q 2138 2578 2348 2790 
Q 2559 3003 2559 3356 
z
M 2663 1244 
Q 2663 1625 2420 1865 
Q 2178 2106 1791 2106 
Q 1394 2106 1161 1865 
Q 928 1625 928 1244 
Q 928 850 1161 631 
Q 1394 413 1797 413 
Q 2200 413 2431 631 
Q 2663 850 2663 1244 
z
" transform="scale(0.015625)"/>
       </defs>
       <use xlink:href="#Roboto-Regular-38"/>
       <use xlink:href="#Roboto-Regular-30" transform="translate(56.201172 0)"/>
       <use xlink:href="#Roboto-Regular-2e" transform="translate(112.402344 0)"/>
       <use xlink:href="#Roboto-Regular-30" transform="translate(138.769531 0)"/>
      </g>
     </g>
     <g id="text_10">
      <!-- 80.0 -->
      <g transform="translate(566.174781 81.94975) scale(0.1 -0.1)">
       <use xlink:href="#Roboto-Regular-38"/>
       <use xlink:href="#Roboto-Regular-30" transform="translate(56.201172 0)"/>
       <use xlink:href="#Roboto-Regular-2e" transform="translate(112.402344 0)"/>
       <use xlink:href="#Roboto-Regular-30" transform="translate(138.769531 0)"/>
      </g>
     </g>
    </g>
    <g id="xtick_6">
     <g id="line2d_16">
      <path d="M 696.735 440.36125 
L 696.735 90.981 
" clip-path="url(#pe94ae44783)" style="fill: none; stroke: #e0e0e0; stroke-opacity: 0.6; stroke-width: 0.8; stroke-linecap: square"/>
     </g>
     <g id="line2d_17">
      <g>
       <use xlink:href="#m7d0c45715a" x="696.735" y="440.36125" style="fill: #d0d0d0; stroke: #d0d0d0; stroke-width: 0.8"/>
      </g>
     </g>
     <g id="line2d_18">
      <g>
       <use xlink:href="#m124fd82f56" x="696.735" y="90.981" style="fill: #d0d0d0; stroke: #d0d0d0; stroke-width: 0.8"/>
      </g>
     </g>
     <g id="text_11">
      <!-- 100.0 -->
      <g transform="translate(684.175625 454.86125) scale(0.1 -0.1)">
       <defs>
        <path id="Roboto-Regular-31" d="M 2278 4575 
L 2278 0 
L 1700 0 
L 1700 3853 
L 534 3428 
L 534 3950 
L 2188 4575 
L 2278 4575 
z
" transform="scale(0.015625)"/>
       </defs>
       <use xlink:href="#Roboto-Regular-31"/>
       <use xlink:href="#Roboto-Regular-30" transform="translate(56.201172 0)"/>
       <use xlink:href="#Roboto-Regular-30" transform="translate(112.402344 0)"/>
       <use xlink:href="#Roboto-Regular-2e" transform="translate(168.603516 0)"/>
       <use xlink:href="#Roboto-Regular-30" transform="translate(194.970703 0)"/>
      </g>
     </g>
     <g id="text_12">
      <!-- 100.0 -->
      <g transform="translate(684.175625 81.94975) scale(0.1 -0.1)">
       <use xlink:href="#Roboto-Regular-31"/>
       <use xlink:href="#Roboto-Regular-30" transform="translate(56.201172 0)"/>
       <use xlink:href="#Roboto-Regular-30" transform="translate(112.402344 0)"/>
       <use xlink:href="#Roboto-Regular-2e" transform="translate(168.603516 0)"/>
       <use xlink:href="#Roboto-Regular-30" transform="translate(194.970703 0)"/>
      </g>
     </g>
    </g>
    <g id="text_13">
     <!-- Utilization [% of active cycles] -->
     <g transform="translate(301.221406 472.479688) scale(0.14 -0.14)">
      <defs>
       <path id="Roboto-Bold-55" d="M 2913 4550 
L 3853 4550 
L 3853 1550 
Q 3853 756 3359 346 
Q 2866 -63 2109 -63 
Q 1344 -63 853 346 
Q 363 756 363 1550 
L 363 4550 
L 1303 4550 
L 1303 1550 
Q 1303 1100 1517 897 
Q 1731 694 2109 694 
Q 2894 694 2913 1509 
L 2913 4550 
z
" transform="scale(0.015625)"/>
       <path id="Roboto-Bold-74" d="M 2041 22 
Q 1788 -63 1497 -63 
Q 1053 -63 790 168 
Q 528 400 528 938 
L 528 2722 
L 31 2722 
L 31 3381 
L 528 3381 
L 528 4216 
L 1431 4216 
L 1431 3381 
L 2006 3381 
L 2006 2722 
L 1431 2722 
L 1431 1031 
Q 1431 819 1518 750 
Q 1606 681 1778 681 
Q 1916 681 2041 706 
L 2041 22 
z
" transform="scale(0.015625)"/>
       <path id="Roboto-Bold-69" d="M 341 4256 
Q 341 4459 478 4592 
Q 616 4725 847 4725 
Q 1078 4725 1215 4592 
Q 1353 4459 1353 4256 
Q 1353 4056 1215 3923 
Q 1078 3791 847 3791 
Q 616 3791 478 3923 
Q 341 4056 341 4256 
z
M 1303 3381 
L 1303 0 
L 397 0 
L 397 3381 
L 1303 3381 
z
" transform="scale(0.015625)"/>
       <path id="Roboto-Bold-6c" d="M 1303 4800 
L 1303 0 
L 397 0 
L 397 4800 
L 1303 4800 
z
" transform="scale(0.015625)"/>
       <path id="Roboto-Bold-7a" d="M 281 2653 
L 281 3381 
L 2991 3381 
L 2991 2850 
L 1384 728 
L 3038 728 
L 3038 0 
L 231 0 
L 231 550 
L 1828 2653 
L 281 2653 
z
" transform="scale(0.015625)"/>
       <path id="Roboto-Bold-61" d="M 2306 0 
Q 2250 119 2216 303 
Q 1888 -63 1363 -63 
Q 878 -63 547 223 
Q 216 509 216 950 
Q 216 1481 609 1773 
Q 1003 2066 1775 2066 
L 2178 2066 
L 2178 2263 
Q 2178 2497 2058 2636 
Q 1938 2775 1678 2775 
Q 1194 2775 1194 2369 
L 291 2369 
Q 291 2809 681 3126 
Q 1072 3444 1728 3444 
Q 2313 3444 2698 3147 
Q 3084 2850 3084 2256 
L 3084 750 
Q 3091 300 3219 53 
L 3219 0 
L 2306 0 
z
M 1559 628 
Q 1788 628 1948 729 
Q 2109 831 2178 953 
L 2178 1541 
L 1809 1541 
Q 1450 1541 1284 1389 
Q 1119 1238 1119 1016 
Q 1119 847 1236 737 
Q 1353 628 1559 628 
z
" transform="scale(0.015625)"/>
       <path id="Roboto-Bold-6f" d="M 206 1722 
Q 206 2459 625 2951 
Q 1044 3444 1806 3444 
Q 2578 3444 2993 2951 
Q 3409 2459 3409 1722 
L 3409 1656 
Q 3409 919 2993 428 
Q 2578 -63 1813 -63 
Q 1053 -63 636 415 
Q 219 894 206 1616 
L 206 1722 
z
M 1113 1656 
Q 1113 1244 1270 955 
Q 1428 666 1813 666 
Q 2191 666 2348 953 
Q 2506 1241 2506 1722 
Q 2506 2125 2348 2420 
Q 2191 2716 1806 2716 
Q 1425 2716 1269 2422 
Q 1113 2128 1113 1656 
z
" transform="scale(0.015625)"/>
       <path id="Roboto-Bold-6e" d="M 1806 2713 
Q 1422 2713 1234 2388 
L 1234 0 
L 331 0 
L 331 3381 
L 1178 3381 
L 1209 2994 
Q 1572 3444 2181 3444 
Q 2659 3444 2953 3159 
Q 3247 2875 3250 2169 
L 3250 0 
L 2344 0 
L 2344 2156 
Q 2344 2481 2205 2597 
Q 2066 2713 1806 2713 
z
" transform="scale(0.015625)"/>
       <path id="Roboto-Bold-20" transform="scale(0.015625)"/>
       <path id="Roboto-Bold-5b" d="M 1728 5297 
L 1728 4600 
L 1281 4600 
L 1281 -366 
L 1728 -366 
L 1728 -1059 
L 375 -1059 
L 375 5297 
L 1728 5297 
z
" transform="scale(0.015625)"/>
       <path id="Roboto-Bold-25" d="M 297 3675 
Q 297 4063 550 4339 
Q 803 4616 1284 4616 
Q 1775 4616 2023 4339 
Q 2272 4063 2272 3675 
L 2272 3434 
Q 2272 3053 2023 2776 
Q 1775 2500 1290 2500 
Q 806 2500 551 2776 
Q 297 3053 297 3434 
L 297 3675 
z
M 3691 3897 
L 1469 341 
L 1028 578 
L 3250 4134 
L 3691 3897 
z
M 900 3434 
Q 900 3272 995 3147 
Q 1091 3022 1291 3022 
Q 1484 3022 1578 3147 
Q 1672 3272 1672 3434 
L 1672 3675 
Q 1672 3841 1576 3967 
Q 1481 4094 1284 4094 
Q 1091 4094 995 3967 
Q 900 3841 900 3675 
L 900 3434 
z
M 2472 1116 
Q 2472 1500 2726 1776 
Q 2981 2053 3463 2053 
Q 3950 2053 4200 1776 
Q 4450 1500 4450 1116 
L 4450 875 
Q 4450 491 4200 214 
Q 3950 -63 3469 -63 
Q 2984 -63 2728 214 
Q 2472 491 2472 875 
L 2472 1116 
z
M 3075 875 
Q 3075 713 3181 586 
Q 3288 459 3469 459 
Q 3691 459 3770 586 
Q 3850 713 3850 875 
L 3850 1116 
Q 3850 1281 3753 1406 
Q 3656 1531 3463 1531 
Q 3266 1531 3170 1406 
Q 3075 1281 3075 1116 
L 3075 875 
z
" transform="scale(0.015625)"/>
       <path id="Roboto-Bold-66" d="M 2172 2722 
L 1500 2722 
L 1500 0 
L 594 0 
L 594 2722 
L 91 2722 
L 91 3381 
L 594 3381 
L 594 3675 
Q 594 4253 928 4559 
Q 1263 4866 1834 4866 
Q 2053 4866 2297 4803 
L 2288 4103 
Q 2169 4131 2009 4131 
Q 1509 4131 1500 3691 
L 1500 3381 
L 2172 3381 
L 2172 2722 
z
" transform="scale(0.015625)"/>
       <path id="Roboto-Bold-63" d="M 1753 666 
Q 2000 666 2159 802 
Q 2319 938 2322 1169 
L 3172 1169 
Q 3166 631 2761 284 
Q 2356 -63 1769 -63 
Q 984 -63 595 432 
Q 206 928 206 1647 
L 206 1734 
Q 206 2450 593 2947 
Q 981 3444 1766 3444 
Q 2388 3444 2777 3087 
Q 3166 2731 3172 2122 
L 2322 2122 
Q 2319 2369 2172 2542 
Q 2025 2716 1750 2716 
Q 1356 2716 1234 2420 
Q 1113 2125 1113 1647 
Q 1113 1256 1233 961 
Q 1353 666 1753 666 
z
" transform="scale(0.015625)"/>
       <path id="Roboto-Bold-76" d="M 3184 3381 
L 2044 0 
L 1184 0 
L 41 3381 
L 988 3381 
L 1616 1109 
L 2241 3381 
L 3184 3381 
z
" transform="scale(0.015625)"/>
       <path id="Roboto-Bold-65" d="M 3225 550 
Q 3063 319 2731 128 
Q 2400 -63 1906 -63 
Q 1119 -63 675 414 
Q 231 891 228 1566 
L 228 1697 
Q 228 2463 654 2953 
Q 1081 3444 1806 3444 
Q 2534 3444 2915 2987 
Q 3297 2531 3297 1781 
L 3297 1397 
L 1144 1397 
Q 1191 1069 1403 867 
Q 1616 666 1963 666 
Q 2478 666 2778 1044 
L 3225 550 
z
M 1800 2716 
Q 1513 2716 1356 2522 
Q 1200 2328 1153 2016 
L 2409 2016 
L 2409 2084 
Q 2403 2356 2258 2536 
Q 2113 2716 1800 2716 
z
" transform="scale(0.015625)"/>
       <path id="Roboto-Bold-79" d="M 769 -1366 
Q 594 -1366 369 -1306 
L 369 -622 
L 509 -625 
Q 775 -625 903 -539 
Q 1031 -453 1097 -266 
L 1197 -6 
L 13 3381 
L 984 3381 
L 1613 1275 
L 2238 3381 
L 3203 3381 
L 1850 -506 
Q 1791 -675 1675 -876 
Q 1559 -1078 1342 -1222 
Q 1125 -1366 769 -1366 
z
" transform="scale(0.015625)"/>
       <path id="Roboto-Bold-73" d="M 2178 938 
Q 2178 1081 2045 1179 
Q 1913 1278 1475 1372 
Q 953 1484 618 1721 
Q 284 1959 284 2394 
Q 284 2816 642 3130 
Q 1000 3444 1631 3444 
Q 2291 3444 2669 3134 
Q 3047 2825 3047 2353 
L 2144 2353 
Q 2144 2547 2019 2675 
Q 1894 2803 1628 2803 
Q 1403 2803 1276 2698 
Q 1150 2594 1150 2438 
Q 1150 2294 1284 2200 
Q 1419 2106 1781 2034 
Q 2331 1925 2693 1700 
Q 3056 1475 3056 972 
Q 3056 525 2672 231 
Q 2288 -63 1634 -63 
Q 925 -63 550 301 
Q 175 666 175 1078 
L 1034 1078 
Q 1047 813 1230 697 
Q 1413 581 1653 581 
Q 2178 581 2178 938 
z
" transform="scale(0.015625)"/>
       <path id="Roboto-Bold-5d" d="M 41 4600 
L 41 5297 
L 1394 5297 
L 1394 -1059 
L 41 -1059 
L 41 -366 
L 491 -366 
L 491 4600 
L 41 4600 
z
" transform="scale(0.015625)"/>
      </defs>
      <use xlink:href="#Roboto-Bold-55"/>
      <use xlink:href="#Roboto-Bold-74" transform="translate(65.820312 0)"/>
      <use xlink:href="#Roboto-Bold-69" transform="translate(99.609375 0)"/>
      <use xlink:href="#Roboto-Bold-6c" transform="translate(126.123047 0)"/>
      <use xlink:href="#Roboto-Bold-69" transform="translate(152.636719 0)"/>
      <use xlink:href="#Roboto-Bold-7a" transform="translate(179.150391 0)"/>
      <use xlink:href="#Roboto-Bold-61" transform="translate(230.078125 0)"/>
      <use xlink:href="#Roboto-Bold-74" transform="translate(283.691406 0)"/>
      <use xlink:href="#Roboto-Bold-69" transform="translate(317.480469 0)"/>
      <use xlink:href="#Roboto-Bold-6f" transform="translate(343.994141 0)"/>
      <use xlink:href="#Roboto-Bold-6e" transform="translate(400.537109 0)"/>
      <use xlink:href="#Roboto-Bold-20" transform="translate(456.542969 0)"/>
      <use xlink:href="#Roboto-Bold-5b" transform="translate(481.445312 0)"/>
      <use xlink:href="#Roboto-Bold-25" transform="translate(509.277344 0)"/>
      <use xlink:href="#Roboto-Bold-20" transform="translate(583.105469 0)"/>
      <use xlink:href="#Roboto-Bold-6f" transform="translate(608.007812 0)"/>
      <use xlink:href="#Roboto-Bold-66" transform="translate(664.550781 0)"/>
      <use xlink:href="#Roboto-Bold-20" transform="translate(700.390625 0)"/>
      <use xlink:href="#Roboto-Bold-61" transform="translate(725.292969 0)"/>
      <use xlink:href="#Roboto-Bold-63" transform="translate(778.90625 0)"/>
      <use xlink:href="#Roboto-Bold-74" transform="translate(831.103516 0)"/>
      <use xlink:href="#Roboto-Bold-69" transform="translate(864.892578 0)"/>
      <use xlink:href="#Roboto-Bold-76" transform="translate(891.40625 0)"/>
      <use xlink:href="#Roboto-Bold-65" transform="translate(941.992188 0)"/>
      <use xlink:href="#Roboto-Bold-20" transform="translate(996.044922 0)"/>
      <use xlink:href="#Roboto-Bold-63" transform="translate(1020.947266 0)"/>
      <use xlink:href="#Roboto-Bold-79" transform="translate(1073.144531 0)"/>
      <use xlink:href="#Roboto-Bold-63" transform="translate(1123.388672 0)"/>
      <use xlink:href="#Roboto-Bold-6c" transform="translate(1175.585938 0)"/>
      <use xlink:href="#Roboto-Bold-65" transform="translate(1202.099609 0)"/>
      <use xlink:href="#Roboto-Bold-73" transform="translate(1256.152344 0)"/>
      <use xlink:href="#Roboto-Bold-5d" transform="translate(1307.617188 0)"/>
     </g>
    </g>
   </g>
   <g id="matplotlib.axis_2">
    <g id="ytick_1">
     <g id="line2d_19">
      <defs>
       <path id="m17d73492eb" d="M 0 0 
L -3.5 0 
" style="stroke: #d0d0d0; stroke-width: 0.8"/>
      </defs>
      <g>
       <use xlink:href="#m17d73492eb" x="92.68" y="146.564222" style="fill: #d0d0d0; stroke: #d0d0d0; stroke-width: 0.8"/>
      </g>
     </g>
     <g id="text_14">
      <!-- Tensor (FP) -->
      <g transform="translate(11.326875 152.09094) scale(0.14 -0.14)">
       <defs>
        <path id="Roboto-Bold-54" d="M 128 3791 
L 128 4550 
L 3831 4550 
L 3831 3791 
L 2441 3791 
L 2441 0 
L 1503 0 
L 1503 3791 
L 128 3791 
z
" transform="scale(0.015625)"/>
        <path id="Roboto-Bold-72" d="M 1922 2563 
Q 1413 2563 1253 2216 
L 1253 0 
L 347 0 
L 347 3381 
L 1200 3381 
L 1228 2978 
Q 1494 3444 1981 3444 
Q 2153 3444 2259 3403 
L 2250 2538 
L 1922 2563 
z
" transform="scale(0.015625)"/>
        <path id="Roboto-Bold-28" d="M 391 1850 
Q 391 2731 633 3392 
Q 875 4053 1234 4473 
Q 1594 4894 1947 5053 
L 2122 4566 
Q 1772 4303 1465 3661 
Q 1159 3019 1153 1906 
L 1153 1772 
Q 1153 628 1461 -23 
Q 1769 -675 2122 -944 
L 1947 -1422 
Q 1594 -1266 1234 -845 
Q 875 -425 633 237 
Q 391 900 391 1778 
L 391 1850 
z
" transform="scale(0.015625)"/>
        <path id="Roboto-Bold-46" d="M 406 0 
L 406 4550 
L 3372 4550 
L 3372 3791 
L 1347 3791 
L 1347 2616 
L 3147 2616 
L 3147 1859 
L 1347 1859 
L 1347 0 
L 406 0 
z
" transform="scale(0.015625)"/>
        <path id="Roboto-Bold-50" d="M 1347 1606 
L 1347 0 
L 406 0 
L 406 4550 
L 2184 4550 
Q 2991 4550 3442 4125 
Q 3894 3700 3894 3047 
Q 3894 2388 3442 1997 
Q 2991 1606 2184 1606 
L 1347 1606 
z
M 1347 3791 
L 1347 2363 
L 2184 2363 
Q 2588 2363 2766 2553 
Q 2944 2744 2944 3041 
Q 2944 3338 2766 3564 
Q 2588 3791 2184 3791 
L 1347 3791 
z
" transform="scale(0.015625)"/>
        <path id="Roboto-Bold-29" d="M 1906 1778 
Q 1906 928 1656 264 
Q 1406 -400 1034 -833 
Q 663 -1266 300 -1422 
L 125 -944 
Q 472 -684 780 -37 
Q 1088 609 1094 1722 
L 1094 1856 
Q 1094 3000 780 3656 
Q 466 4313 125 4572 
L 300 5053 
Q 663 4894 1034 4461 
Q 1406 4028 1656 3364 
Q 1906 2700 1906 1847 
L 1906 1778 
z
" transform="scale(0.015625)"/>
       </defs>
       <use xlink:href="#Roboto-Bold-54"/>
       <use xlink:href="#Roboto-Bold-65" transform="translate(61.865234 0)"/>
       <use xlink:href="#Roboto-Bold-6e" transform="translate(115.917969 0)"/>
       <use xlink:href="#Roboto-Bold-73" transform="translate(171.923828 0)"/>
       <use xlink:href="#Roboto-Bold-6f" transform="translate(223.388672 0)"/>
       <use xlink:href="#Roboto-Bold-72" transform="translate(279.931641 0)"/>
       <use xlink:href="#Roboto-Bold-20" transform="translate(316.455078 0)"/>
       <use xlink:href="#Roboto-Bold-28" transform="translate(341.357422 0)"/>
       <use xlink:href="#Roboto-Bold-46" transform="translate(376.464844 0)"/>
       <use xlink:href="#Roboto-Bold-50" transform="translate(431.298828 0)"/>
       <use xlink:href="#Roboto-Bold-29" transform="translate(495.849609 0)"/>
      </g>
     </g>
    </g>
    <g id="ytick_2">
     <g id="line2d_20">
      <g>
       <use xlink:href="#m17d73492eb" x="92.68" y="265.671125" style="fill: #d0d0d0; stroke: #d0d0d0; stroke-width: 0.8"/>
      </g>
     </g>
     <g id="text_15">
      <!-- FMA -->
      <g transform="translate(56.315 270.921125) scale(0.14 -0.14)">
       <defs>
        <path id="Roboto-Bold-4d" d="M 2800 1250 
L 3966 4550 
L 5194 4550 
L 5194 0 
L 4253 0 
L 4253 1244 
L 4347 3381 
L 3122 0 
L 2478 0 
L 1253 3381 
L 1347 1244 
L 1347 0 
L 406 0 
L 406 4550 
L 1634 4550 
L 2800 1250 
z
" transform="scale(0.015625)"/>
        <path id="Roboto-Bold-41" d="M 25 0 
L 1719 4550 
L 2588 4550 
L 4291 0 
L 3291 0 
L 2978 938 
L 1331 938 
L 1019 0 
L 25 0 
z
M 1584 1697 
L 2725 1697 
L 2156 3406 
L 1584 1697 
z
" transform="scale(0.015625)"/>
       </defs>
       <use xlink:href="#Roboto-Bold-46"/>
       <use xlink:href="#Roboto-Bold-4d" transform="translate(54.833984 0)"/>
       <use xlink:href="#Roboto-Bold-41" transform="translate(142.431641 0)"/>
      </g>
     </g>
    </g>
    <g id="ytick_3">
     <g id="line2d_21">
      <g>
       <use xlink:href="#m17d73492eb" x="92.68" y="384.778028" style="fill: #d0d0d0; stroke: #d0d0d0; stroke-width: 0.8"/>
      </g>
     </g>
     <g id="text_16">
      <!-- ALU -->
      <g transform="translate(59.45625 390.028028) scale(0.14 -0.14)">
       <defs>
        <path id="Roboto-Bold-4c" d="M 3334 756 
L 3334 0 
L 406 0 
L 406 4550 
L 1347 4550 
L 1347 756 
L 3334 756 
z
" transform="scale(0.015625)"/>
       </defs>
       <use xlink:href="#Roboto-Bold-41"/>
       <use xlink:href="#Roboto-Bold-4c" transform="translate(67.333984 0)"/>
       <use xlink:href="#Roboto-Bold-55" transform="translate(121.484375 0)"/>
      </g>
     </g>
    </g>
   </g>
   <g id="patch_3">
    <path d="M 696.735 440.36125 
L 696.735 90.981 
" style="fill: none; stroke: #d0d0d0; stroke-linejoin: miter; stroke-linecap: square"/>
   </g>
   <g id="patch_4">
    <path d="M 92.68 440.36125 
L 696.735 440.36125 
" style="fill: none; stroke: #d0d0d0; stroke-linejoin: miter; stroke-linecap: square"/>
   </g>
   <g id="patch_5">
    <path d="M 92.68 90.981 
L 696.735 90.981 
" style="fill: none; stroke: #d0d0d0; stroke-linejoin: miter; stroke-linecap: square"/>
   </g>
   <g id="line2d_22">
    <path d="M 92.68 206.117673 
L 696.735 206.117673 
" clip-path="url(#pe94ae44783)" style="fill: none; stroke: #e0e0e0; stroke-linecap: square"/>
   </g>
   <g id="line2d_23">
    <path d="M 92.68 325.224577 
L 696.735 325.224577 
" clip-path="url(#pe94ae44783)" style="fill: none; stroke: #e0e0e0; stroke-linecap: square"/>
   </g>
   <g id="legend_1">
    <g id="patch_6">
     <path d="M 612.738125 435.36125 
L 689.735 435.36125 
Q 691.735 435.36125 691.735 433.36125 
L 691.735 390.7675 
Q 691.735 388.7675 689.735 388.7675 
L 612.738125 388.7675 
Q 610.738125 388.7675 610.738125 390.7675 
L 610.738125 433.36125 
Q 610.738125 435.36125 612.738125 435.36125 
z
" style="fill: #ffffff; opacity: 0.8; stroke: #cccccc; stroke-linejoin: miter"/>
    </g>
    <g id="line2d_24">
     <path d="M 614.738125 396.7675 
L 624.738125 396.7675 
L 634.738125 396.7675 
" style="fill: none; stroke: #f57c00; stroke-width: 4; stroke-linecap: square"/>
    </g>
    <g id="text_17">
     <!-- Kernel 8 -->
     <g transform="translate(642.738125 400.2675) scale(0.1 -0.1)">
      <defs>
       <path id="Roboto-Regular-4b" d="M 3297 0 
L 1688 2119 
L 1131 1541 
L 1131 0 
L 528 0 
L 528 4550 
L 1131 4550 
L 1131 2306 
L 3153 4550 
L 3878 4550 
L 2091 2541 
L 4016 0 
L 3297 0 
z
" transform="scale(0.015625)"/>
       <path id="Roboto-Regular-65" d="M 3116 591 
Q 2950 341 2647 139 
Q 2344 -63 1844 -63 
Q 1138 -63 714 396 
Q 291 856 291 1572 
L 291 1703 
Q 291 2256 502 2645 
Q 713 3034 1050 3239 
Q 1388 3444 1769 3444 
Q 2494 3444 2826 2970 
Q 3159 2497 3159 1788 
L 3159 1528 
L 872 1528 
Q 884 1063 1148 736 
Q 1413 409 1875 409 
Q 2181 409 2393 534 
Q 2606 659 2766 869 
L 3116 591 
z
M 1769 2969 
Q 1425 2969 1187 2719 
Q 950 2469 891 2000 
L 2581 2000 
L 2581 2044 
Q 2559 2381 2386 2675 
Q 2213 2969 1769 2969 
z
" transform="scale(0.015625)"/>
       <path id="Roboto-Regular-72" d="M 1791 2888 
Q 1225 2888 1019 2400 
L 1019 0 
L 441 0 
L 441 3381 
L 1003 3381 
L 1016 2994 
Q 1294 3444 1819 3444 
Q 1981 3444 2075 3400 
L 2072 2863 
Q 1944 2888 1791 2888 
z
" transform="scale(0.015625)"/>
       <path id="Roboto-Regular-6e" d="M 1844 2956 
Q 1566 2956 1353 2806 
Q 1141 2656 1019 2416 
L 1019 0 
L 441 0 
L 441 3381 
L 988 3381 
L 1006 2959 
Q 1391 3444 2016 3444 
Q 2513 3444 2805 3166 
Q 3097 2888 3100 2231 
L 3100 0 
L 2519 0 
L 2519 2222 
Q 2519 2619 2345 2787 
Q 2172 2956 1844 2956 
z
" transform="scale(0.015625)"/>
       <path id="Roboto-Regular-6c" d="M 1069 4800 
L 1069 0 
L 488 0 
L 488 4800 
L 1069 4800 
z
" transform="scale(0.015625)"/>
       <path id="Roboto-Regular-20" transform="scale(0.015625)"/>
      </defs>
      <use xlink:href="#Roboto-Regular-4b"/>
      <use xlink:href="#Roboto-Regular-65" transform="translate(62.744141 0)"/>
      <use xlink:href="#Roboto-Regular-72" transform="translate(115.771484 0)"/>
      <use xlink:href="#Roboto-Regular-6e" transform="translate(149.658203 0)"/>
      <use xlink:href="#Roboto-Regular-65" transform="translate(204.882812 0)"/>
      <use xlink:href="#Roboto-Regular-6c" transform="translate(257.910156 0)"/>
      <use xlink:href="#Roboto-Regular-20" transform="translate(282.226562 0)"/>
      <use xlink:href="#Roboto-Regular-38" transform="translate(307.03125 0)"/>
     </g>
    </g>
    <g id="line2d_25">
     <path d="M 614.738125 411.29875 
L 624.738125 411.29875 
L 634.738125 411.29875 
" style="fill: none; stroke: #388e3c; stroke-width: 4; stroke-linecap: square"/>
    </g>
    <g id="text_18">
     <!-- Kernel 9 -->
     <g transform="translate(642.738125 414.79875) scale(0.1 -0.1)">
      <defs>
       <path id="Roboto-Regular-39" d="M 3175 2563 
Q 3175 2119 3098 1667 
Q 3022 1216 2801 836 
Q 2581 456 2151 225 
Q 1722 -6 953 -6 
L 953 484 
Q 1644 484 1980 700 
Q 2316 916 2448 1264 
Q 2581 1613 2597 2006 
Q 2416 1791 2162 1656 
Q 1909 1522 1613 1522 
Q 1163 1522 875 1747 
Q 588 1972 450 2320 
Q 313 2669 313 3041 
Q 313 3691 670 4152 
Q 1028 4613 1725 4613 
Q 2244 4613 2564 4344 
Q 2884 4075 3029 3653 
Q 3175 3231 3175 2772 
L 3175 2563 
z
M 881 3072 
Q 881 2666 1086 2334 
Q 1291 2003 1706 2003 
Q 2003 2003 2245 2181 
Q 2488 2359 2600 2622 
L 2600 2850 
Q 2600 3472 2336 3803 
Q 2072 4134 1725 4134 
Q 1322 4134 1101 3829 
Q 881 3525 881 3072 
z
" transform="scale(0.015625)"/>
      </defs>
      <use xlink:href="#Roboto-Regular-4b"/>
      <use xlink:href="#Roboto-Regular-65" transform="translate(62.744141 0)"/>
      <use xlink:href="#Roboto-Regular-72" transform="translate(115.771484 0)"/>
      <use xlink:href="#Roboto-Regular-6e" transform="translate(149.658203 0)"/>
      <use xlink:href="#Roboto-Regular-65" transform="translate(204.882812 0)"/>
      <use xlink:href="#Roboto-Regular-6c" transform="translate(257.910156 0)"/>
      <use xlink:href="#Roboto-Regular-20" transform="translate(282.226562 0)"/>
      <use xlink:href="#Roboto-Regular-39" transform="translate(307.03125 0)"/>
     </g>
    </g>
    <g id="line2d_26">
     <path d="M 614.738125 425.83 
L 624.738125 425.83 
L 634.738125 425.83 
" style="fill: none; stroke: #b0b0b0; stroke-width: 4; stroke-linecap: square"/>
    </g>
    <g id="text_19">
     <!-- Reference -->
     <g transform="translate(642.738125 429.33) scale(0.1 -0.1)">
      <defs>
       <path id="Roboto-Regular-52" d="M 3188 0 
L 2200 1844 
L 1131 1844 
L 1131 0 
L 528 0 
L 528 4550 
L 2034 4550 
Q 2800 4550 3214 4200 
Q 3628 3850 3628 3184 
Q 3628 2759 3398 2442 
Q 3169 2125 2763 1969 
L 3831 38 
L 3831 0 
L 3188 0 
z
M 1131 4056 
L 1131 2334 
L 2053 2334 
Q 2538 2334 2783 2582 
Q 3028 2831 3028 3184 
Q 3028 3578 2792 3817 
Q 2556 4056 2034 4056 
L 1131 4056 
z
" transform="scale(0.015625)"/>
       <path id="Roboto-Regular-66" d="M 2022 2938 
L 1303 2938 
L 1303 0 
L 725 0 
L 725 2938 
L 191 2938 
L 191 3381 
L 725 3381 
L 725 3759 
Q 731 4297 1026 4581 
Q 1322 4866 1834 4866 
Q 2025 4866 2234 4816 
L 2203 4344 
Q 2072 4372 1891 4372 
Q 1313 4372 1303 3756 
L 1303 3381 
L 2022 3381 
L 2022 2938 
z
" transform="scale(0.015625)"/>
       <path id="Roboto-Regular-63" d="M 1794 413 
Q 2103 413 2336 597 
Q 2569 781 2591 1069 
L 3141 1069 
Q 3119 616 2725 276 
Q 2331 -63 1794 -63 
Q 1031 -63 661 440 
Q 291 944 291 1625 
L 291 1756 
Q 291 2438 661 2941 
Q 1031 3444 1794 3444 
Q 2388 3444 2753 3092 
Q 3119 2741 3141 2219 
L 2591 2219 
Q 2569 2531 2355 2750 
Q 2141 2969 1794 2969 
Q 1438 2969 1236 2787 
Q 1034 2606 951 2328 
Q 869 2050 869 1756 
L 869 1625 
Q 869 1328 950 1050 
Q 1031 772 1232 592 
Q 1434 413 1794 413 
z
" transform="scale(0.015625)"/>
      </defs>
      <use xlink:href="#Roboto-Regular-52"/>
      <use xlink:href="#Roboto-Regular-65" transform="translate(61.621094 0)"/>
      <use xlink:href="#Roboto-Regular-66" transform="translate(114.648438 0)"/>
      <use xlink:href="#Roboto-Regular-65" transform="translate(149.414062 0)"/>
      <use xlink:href="#Roboto-Regular-72" transform="translate(202.441406 0)"/>
      <use xlink:href="#Roboto-Regular-65" transform="translate(236.328125 0)"/>
      <use xlink:href="#Roboto-Regular-6e" transform="translate(289.355469 0)"/>
      <use xlink:href="#Roboto-Regular-63" transform="translate(344.580078 0)"/>
      <use xlink:href="#Roboto-Regular-65" transform="translate(396.923828 0)"/>
     </g>
    </g>
   </g>
   <g id="patch_7">
    <path d="M 92.68 133.330121 
L 492.247195 133.330121 
L 492.247195 106.86192 
L 92.68 106.86192 
z
" clip-path="url(#pe94ae44783)" style="fill: #f57c00; stroke: #000000; stroke-linejoin: miter"/>
   </g>
   <g id="patch_8">
    <path d="M 92.68 252.437025 
L 274.867911 252.437025 
L 274.867911 225.968824 
L 92.68 225.968824 
z
" clip-path="url(#pe94ae44783)" style="fill: #f57c00; stroke: #000000; stroke-linejoin: miter"/>
   </g>
   <g id="patch_9">
    <path d="M 92.68 371.543928 
L 197.711495 371.543928 
L 197.711495 345.075727 
L 92.68 345.075727 
z
" clip-path="url(#pe94ae44783)" style="fill: #f57c00; stroke: #000000; stroke-linejoin: miter"/>
   </g>
   <g id="patch_10">
    <path d="M 92.68 159.798322 
L 526.265392 159.798322 
L 526.265392 133.330121 
L 92.68 133.330121 
z
" clip-path="url(#pe94ae44783)" style="fill: #388e3c; stroke: #000000; stroke-linejoin: miter"/>
   </g>
   <g id="patch_11">
    <path d="M 92.68 278.905225 
L 226.124478 278.905225 
L 226.124478 252.437025 
L 92.68 252.437025 
z
" clip-path="url(#pe94ae44783)" style="fill: #388e3c; stroke: #000000; stroke-linejoin: miter"/>
   </g>
   <g id="patch_12">
    <path d="M 92.68 398.012129 
L 147.414069 398.012129 
L 147.414069 371.543928 
L 92.68 371.543928 
z
" clip-path="url(#pe94ae44783)" style="fill: #388e3c; stroke: #000000; stroke-linejoin: miter"/>
   </g>
   <g id="patch_13">
    <path d="M 92.68 186.266523 
L 548.190027 186.266523 
L 548.190027 159.798322 
L 92.68 159.798322 
z
" clip-path="url(#pe94ae44783)" style="fill: #b0b0b0; stroke: #000000; stroke-linejoin: miter"/>
   </g>
   <g id="patch_14">
    <path d="M 92.68 305.373426 
L 216.760887 305.373426 
L 216.760887 278.905225 
L 92.68 278.905225 
z
" clip-path="url(#pe94ae44783)" style="fill: #b0b0b0; stroke: #000000; stroke-linejoin: miter"/>
   </g>
   <g id="patch_15">
    <path d="M 92.68 424.48033 
L 171.749245 424.48033 
L 171.749245 398.012129 
L 92.68 398.012129 
z
" clip-path="url(#pe94ae44783)" style="fill: #b0b0b0; stroke: #000000; stroke-linejoin: miter"/>
   </g>
   <g id="patch_16">
    <path d="M 92.68 440.36125 
L 92.68 90.981 
" style="fill: none; stroke: #d0d0d0; stroke-linejoin: miter; stroke-linecap: square"/>
   </g>
   <g id="text_20">
    <!-- 87.7% -->
    <g transform="translate(458.700395 122.830396) scale(0.1 -0.1)">
     <defs>
      <path id="Roboto-Bold-38" d="M 3369 1247 
Q 3369 603 2933 270 
Q 2497 -63 1837 -63 
Q 1178 -63 736 270 
Q 294 603 294 1247 
Q 294 1625 489 1908 
Q 684 2191 1013 2347 
Q 725 2497 559 2755 
Q 394 3013 394 3341 
Q 394 3959 800 4287 
Q 1206 4616 1831 4616 
Q 2466 4616 2870 4287 
Q 3275 3959 3275 3341 
Q 3275 3009 3108 2753 
Q 2941 2497 2653 2344 
Q 2981 2188 3175 1906 
Q 3369 1625 3369 1247 
z
M 2372 3297 
Q 2372 3563 2230 3725 
Q 2088 3888 1831 3888 
Q 1581 3888 1439 3730 
Q 1297 3572 1297 3297 
Q 1297 3028 1439 2862 
Q 1581 2697 1837 2697 
Q 2094 2697 2233 2862 
Q 2372 3028 2372 3297 
z
M 2466 1313 
Q 2466 1619 2291 1794 
Q 2116 1969 1831 1969 
Q 1547 1969 1373 1794 
Q 1200 1619 1200 1313 
Q 1200 1009 1373 837 
Q 1547 666 1838 666 
Q 2125 666 2295 837 
Q 2466 1009 2466 1313 
z
" transform="scale(0.015625)"/>
      <path id="Roboto-Bold-37" d="M 3406 4550 
L 3406 4047 
L 1647 0 
L 694 0 
L 2453 3822 
L 191 3822 
L 191 4550 
L 3406 4550 
z
" transform="scale(0.015625)"/>
      <path id="Roboto-Bold-2e" d="M 394 447 
Q 394 653 533 792 
Q 672 931 906 931 
Q 1141 931 1278 792 
Q 1416 653 1416 447 
Q 1416 244 1278 105 
Q 1141 -34 906 -34 
Q 672 -34 533 105 
Q 394 244 394 447 
z
" transform="scale(0.015625)"/>
     </defs>
     <use xlink:href="#Roboto-Bold-38"/>
     <use xlink:href="#Roboto-Bold-37" transform="translate(57.373047 0)"/>
     <use xlink:href="#Roboto-Bold-2e" transform="translate(114.746094 0)"/>
     <use xlink:href="#Roboto-Bold-37" transform="translate(143.847656 0)"/>
     <use xlink:href="#Roboto-Bold-25" transform="translate(201.220703 0)"/>
    </g>
   </g>
   <g id="text_21">
    <!-- 146.8% -->
    <g transform="translate(235.583611 241.937299) scale(0.1 -0.1)">
     <defs>
      <path id="Roboto-Bold-31" d="M 2503 4556 
L 2503 0 
L 1600 0 
L 1600 3484 
L 525 3150 
L 525 3881 
L 2406 4556 
L 2503 4556 
z
" transform="scale(0.015625)"/>
      <path id="Roboto-Bold-34" d="M 175 1553 
L 2072 4550 
L 2984 4550 
L 2984 1713 
L 3500 1713 
L 3500 984 
L 2984 984 
L 2984 0 
L 2081 0 
L 2081 984 
L 216 984 
L 175 1553 
z
M 1072 1713 
L 2081 1713 
L 2081 3328 
L 2019 3219 
L 1072 1713 
z
" transform="scale(0.015625)"/>
      <path id="Roboto-Bold-36" d="M 3450 1500 
Q 3450 838 3033 387 
Q 2616 -63 1916 -63 
Q 1188 -63 752 443 
Q 316 950 316 1750 
L 316 2097 
Q 316 3200 925 3898 
Q 1534 4597 2634 4597 
L 2763 4597 
L 2763 3853 
L 2672 3853 
Q 2050 3844 1688 3538 
Q 1313 3219 1238 2675 
Q 1603 3047 2156 3047 
Q 2800 3047 3125 2589 
Q 3450 2131 3450 1500 
z
M 1219 1631 
Q 1219 1150 1408 909 
Q 1597 669 1900 669 
Q 2194 669 2370 901 
Q 2547 1134 2547 1491 
Q 2547 1853 2370 2087 
Q 2194 2322 1881 2322 
Q 1641 2322 1469 2198 
Q 1297 2075 1219 1903 
L 1219 1631 
z
" transform="scale(0.015625)"/>
     </defs>
     <use xlink:href="#Roboto-Bold-31"/>
     <use xlink:href="#Roboto-Bold-34" transform="translate(57.373047 0)"/>
     <use xlink:href="#Roboto-Bold-36" transform="translate(114.746094 0)"/>
     <use xlink:href="#Roboto-Bold-2e" transform="translate(172.119141 0)"/>
     <use xlink:href="#Roboto-Bold-38" transform="translate(201.220703 0)"/>
     <use xlink:href="#Roboto-Bold-25" transform="translate(258.59375 0)"/>
    </g>
   </g>
   <g id="text_22">
    <!-- 132.8% -->
    <g transform="translate(158.427195 361.044203) scale(0.1 -0.1)">
     <defs>
      <path id="Roboto-Bold-33" d="M 1231 1969 
L 1231 2678 
L 1713 2678 
Q 2053 2678 2220 2848 
Q 2388 3019 2388 3306 
Q 2388 3559 2236 3723 
Q 2084 3888 1772 3888 
Q 1525 3888 1342 3750 
Q 1159 3613 1159 3372 
L 256 3372 
Q 256 3934 690 4275 
Q 1125 4616 1747 4616 
Q 2438 4616 2864 4286 
Q 3291 3956 3291 3319 
Q 3291 3025 3109 2758 
Q 2928 2491 2597 2338 
Q 2978 2203 3168 1926 
Q 3359 1650 3359 1278 
Q 3359 638 2898 287 
Q 2438 -63 1747 -63 
Q 1363 -63 1008 78 
Q 653 219 426 508 
Q 200 797 200 1247 
L 1106 1247 
Q 1106 994 1295 830 
Q 1484 666 1772 666 
Q 2094 666 2275 837 
Q 2456 1009 2456 1291 
Q 2456 1969 1706 1969 
L 1231 1969 
z
" transform="scale(0.015625)"/>
      <path id="Roboto-Bold-32" d="M 3428 728 
L 3428 0 
L 313 0 
L 313 619 
L 1784 2188 
Q 2116 2553 2245 2792 
Q 2375 3031 2375 3234 
Q 2375 3538 2223 3713 
Q 2072 3888 1788 3888 
Q 1466 3888 1295 3669 
Q 1125 3450 1125 3119 
L 222 3119 
Q 222 3734 645 4175 
Q 1069 4616 1803 4616 
Q 2519 4616 2900 4270 
Q 3281 3925 3281 3325 
Q 3281 2875 3014 2470 
Q 2747 2066 2284 1581 
L 1472 728 
L 3428 728 
z
" transform="scale(0.015625)"/>
     </defs>
     <use xlink:href="#Roboto-Bold-31"/>
     <use xlink:href="#Roboto-Bold-33" transform="translate(57.373047 0)"/>
     <use xlink:href="#Roboto-Bold-32" transform="translate(114.746094 0)"/>
     <use xlink:href="#Roboto-Bold-2e" transform="translate(172.119141 0)"/>
     <use xlink:href="#Roboto-Bold-38" transform="translate(201.220703 0)"/>
     <use xlink:href="#Roboto-Bold-25" transform="translate(258.59375 0)"/>
    </g>
   </g>
   <g id="text_23">
    <!-- 95.2% -->
    <g style="fill: #ffffff" transform="translate(492.718592 149.298597) scale(0.1 -0.1)">
     <defs>
      <path id="Roboto-Bold-39" d="M 3341 2444 
Q 3341 1334 2773 650 
Q 2206 -34 1063 -47 
L 950 -47 
L 950 709 
L 1025 709 
Q 1703 713 2039 998 
Q 2375 1284 2428 1822 
Q 2066 1472 1597 1472 
Q 956 1472 614 1911 
Q 272 2350 272 3006 
Q 272 3669 686 4142 
Q 1100 4616 1797 4616 
Q 2500 4616 2920 4105 
Q 3341 3594 3341 2756 
L 3341 2444 
z
M 1172 3016 
Q 1172 2666 1331 2416 
Q 1491 2166 1819 2166 
Q 2041 2166 2200 2280 
Q 2359 2394 2438 2556 
L 2438 2922 
Q 2438 3406 2253 3645 
Q 2069 3884 1794 3884 
Q 1497 3884 1334 3617 
Q 1172 3350 1172 3016 
z
" transform="scale(0.015625)"/>
      <path id="Roboto-Bold-35" d="M 1166 2063 
L 447 2238 
L 706 4550 
L 3256 4550 
L 3256 3800 
L 1450 3800 
L 1338 2819 
Q 1650 2991 2019 2991 
Q 2681 2991 3043 2587 
Q 3406 2184 3406 1463 
Q 3406 856 3031 396 
Q 2656 -63 1872 -63 
Q 1281 -63 814 287 
Q 347 638 331 1269 
L 1225 1269 
Q 1284 666 1866 666 
Q 2206 666 2354 911 
Q 2503 1156 2503 1513 
Q 2503 1872 2325 2092 
Q 2147 2313 1772 2313 
Q 1525 2313 1390 2233 
Q 1256 2153 1166 2063 
z
" transform="scale(0.015625)"/>
     </defs>
     <use xlink:href="#Roboto-Bold-39"/>
     <use xlink:href="#Roboto-Bold-35" transform="translate(57.373047 0)"/>
     <use xlink:href="#Roboto-Bold-2e" transform="translate(114.746094 0)"/>
     <use xlink:href="#Roboto-Bold-32" transform="translate(143.847656 0)"/>
     <use xlink:href="#Roboto-Bold-25" transform="translate(201.220703 0)"/>
    </g>
   </g>
   <g id="text_24">
    <!-- 107.5% -->
    <g style="fill: #ffffff" transform="translate(186.840178 268.4055) scale(0.1 -0.1)">
     <defs>
      <path id="Roboto-Bold-30" d="M 3372 1884 
Q 3372 856 2950 396 
Q 2528 -63 1840 -63 
Q 1153 -63 726 396 
Q 300 856 300 1884 
L 300 2675 
Q 300 3700 723 4156 
Q 1147 4613 1834 4613 
Q 2519 4613 2944 4159 
Q 3369 3706 3372 2691 
L 3372 1884 
z
M 2469 2800 
Q 2469 3406 2303 3645 
Q 2138 3884 1834 3884 
Q 1538 3884 1372 3650 
Q 1206 3416 1203 2825 
L 1203 1763 
Q 1203 1153 1370 909 
Q 1538 666 1841 666 
Q 2138 666 2302 905 
Q 2466 1144 2469 1738 
L 2469 2800 
z
" transform="scale(0.015625)"/>
     </defs>
     <use xlink:href="#Roboto-Bold-31"/>
     <use xlink:href="#Roboto-Bold-30" transform="translate(57.373047 0)"/>
     <use xlink:href="#Roboto-Bold-37" transform="translate(114.746094 0)"/>
     <use xlink:href="#Roboto-Bold-2e" transform="translate(172.119141 0)"/>
     <use xlink:href="#Roboto-Bold-35" transform="translate(201.220703 0)"/>
     <use xlink:href="#Roboto-Bold-25" transform="translate(258.59375 0)"/>
    </g>
   </g>
   <g id="text_25">
    <!-- 69.2% -->
    <g style="fill: #ffffff" transform="translate(113.867269 387.512403) scale(0.1 -0.1)">
     <use xlink:href="#Roboto-Bold-36"/>
     <use xlink:href="#Roboto-Bold-39" transform="translate(57.373047 0)"/>
     <use xlink:href="#Roboto-Bold-2e" transform="translate(114.746094 0)"/>
     <use xlink:href="#Roboto-Bold-32" transform="translate(143.847656 0)"/>
     <use xlink:href="#Roboto-Bold-25" transform="translate(201.220703 0)"/>
    </g>
   </g>
   <g id="text_26">
    <!-- 75.4 -->
    <g transform="translate(554.230577 176.313672) scale(0.12 -0.12)">
     <use xlink:href="#Roboto-Bold-37"/>
     <use xlink:href="#Roboto-Bold-35" transform="translate(57.373047 0)"/>
     <use xlink:href="#Roboto-Bold-2e" transform="translate(114.746094 0)"/>
     <use xlink:href="#Roboto-Bold-34" transform="translate(143.847656 0)"/>
    </g>
   </g>
   <g id="text_27">
    <!-- 20.5 -->
    <g transform="translate(222.801437 295.420576) scale(0.12 -0.12)">
     <use xlink:href="#Roboto-Bold-32"/>
     <use xlink:href="#Roboto-Bold-30" transform="translate(57.373047 0)"/>
     <use xlink:href="#Roboto-Bold-2e" transform="translate(114.746094 0)"/>
     <use xlink:href="#Roboto-Bold-35" transform="translate(143.847656 0)"/>
    </g>
   </g>
   <g id="text_28">
    <!-- 13.1 -->
    <g transform="translate(177.789795 414.527479) scale(0.12 -0.12)">
     <use xlink:href="#Roboto-Bold-31"/>
     <use xlink:href="#Roboto-Bold-33" transform="translate(57.373047 0)"/>
     <use xlink:href="#Roboto-Bold-2e" transform="translate(114.746094 0)"/>
     <use xlink:href="#Roboto-Bold-31" transform="translate(143.847656 0)"/>
    </g>
   </g>
  </g>
  <g id="text_29">
   <!-- Pipeline Utilization [% of active cycles] -->
   <g transform="translate(222.0075 37.5425) scale(0.16 -0.16)">
    <defs>
     <path id="Roboto-Bold-70" d="M 2081 -63 
Q 1575 -63 1253 297 
L 1253 -1300 
L 347 -1300 
L 347 3381 
L 1188 3381 
L 1222 3053 
Q 1544 3444 2072 3444 
Q 2716 3444 3055 2972 
Q 3394 2500 3394 1728 
L 3394 1663 
Q 3394 925 3055 431 
Q 2716 -63 2081 -63 
z
M 1838 2713 
Q 1416 2713 1253 2384 
L 1253 1000 
Q 1422 666 1844 666 
Q 2197 666 2344 958 
Q 2491 1250 2491 1728 
Q 2491 2147 2339 2430 
Q 2188 2713 1838 2713 
z
" transform="scale(0.015625)"/>
    </defs>
    <use xlink:href="#Roboto-Bold-50"/>
    <use xlink:href="#Roboto-Bold-69" transform="translate(64.550781 0)"/>
    <use xlink:href="#Roboto-Bold-70" transform="translate(91.064453 0)"/>
    <use xlink:href="#Roboto-Bold-65" transform="translate(147.363281 0)"/>
    <use xlink:href="#Roboto-Bold-6c" transform="translate(201.416016 0)"/>
    <use xlink:href="#Roboto-Bold-69" transform="translate(227.929688 0)"/>
    <use xlink:href="#Roboto-Bold-6e" transform="translate(254.443359 0)"/>
    <use xlink:href="#Roboto-Bold-65" transform="translate(310.449219 0)"/>
    <use xlink:href="#Roboto-Bold-20" transform="translate(364.501953 0)"/>
    <use xlink:href="#Roboto-Bold-55" transform="translate(389.404297 0)"/>
    <use xlink:href="#Roboto-Bold-74" transform="translate(455.224609 0)"/>
    <use xlink:href="#Roboto-Bold-69" transform="translate(489.013672 0)"/>
    <use xlink:href="#Roboto-Bold-6c" transform="translate(515.527344 0)"/>
    <use xlink:href="#Roboto-Bold-69" transform="translate(542.041016 0)"/>
    <use xlink:href="#Roboto-Bold-7a" transform="translate(568.554688 0)"/>
    <use xlink:href="#Roboto-Bold-61" transform="translate(619.482422 0)"/>
    <use xlink:href="#Roboto-Bold-74" transform="translate(673.095703 0)"/>
    <use xlink:href="#Roboto-Bold-69" transform="translate(706.884766 0)"/>
    <use xlink:href="#Roboto-Bold-6f" transform="translate(733.398438 0)"/>
    <use xlink:href="#Roboto-Bold-6e" transform="translate(789.941406 0)"/>
    <use xlink:href="#Roboto-Bold-20" transform="translate(845.947266 0)"/>
    <use xlink:href="#Roboto-Bold-5b" transform="translate(870.849609 0)"/>
    <use xlink:href="#Roboto-Bold-25" transform="translate(898.681641 0)"/>
    <use xlink:href="#Roboto-Bold-20" transform="translate(972.509766 0)"/>
    <use xlink:href="#Roboto-Bold-6f" transform="translate(997.412109 0)"/>
    <use xlink:href="#Roboto-Bold-66" transform="translate(1053.955078 0)"/>
    <use xlink:href="#Roboto-Bold-20" transform="translate(1089.794922 0)"/>
    <use xlink:href="#Roboto-Bold-61" transform="translate(1114.697266 0)"/>
    <use xlink:href="#Roboto-Bold-63" transform="translate(1168.310547 0)"/>
    <use xlink:href="#Roboto-Bold-74" transform="translate(1220.507812 0)"/>
    <use xlink:href="#Roboto-Bold-69" transform="translate(1254.296875 0)"/>
    <use xlink:href="#Roboto-Bold-76" transform="translate(1280.810547 0)"/>
    <use xlink:href="#Roboto-Bold-65" transform="translate(1331.396484 0)"/>
    <use xlink:href="#Roboto-Bold-20" transform="translate(1385.449219 0)"/>
    <use xlink:href="#Roboto-Bold-63" transform="translate(1410.351562 0)"/>
    <use xlink:href="#Roboto-Bold-79" transform="translate(1462.548828 0)"/>
    <use xlink:href="#Roboto-Bold-63" transform="translate(1512.792969 0)"/>
    <use xlink:href="#Roboto-Bold-6c" transform="translate(1564.990234 0)"/>
    <use xlink:href="#Roboto-Bold-65" transform="translate(1591.503906 0)"/>
    <use xlink:href="#Roboto-Bold-73" transform="translate(1645.556641 0)"/>
    <use xlink:href="#Roboto-Bold-5d" transform="translate(1697.021484 0)"/>
   </g>
   <!-- (A100, seq_len=4096) -->
   <g transform="translate(280.86625 56.1165) scale(0.16 -0.16)">
    <defs>
     <path id="Roboto-Bold-2c" d="M 1200 769 
L 1197 144 
Q 1194 -209 1022 -561 
Q 850 -913 581 -1144 
L 113 -897 
Q 234 -672 334 -453 
Q 434 -234 438 88 
L 438 769 
L 1200 769 
z
" transform="scale(0.015625)"/>
     <path id="Roboto-Bold-71" d="M 3253 3381 
L 3253 -1300 
L 2347 -1300 
L 2347 288 
Q 2028 -63 1531 -63 
Q 897 -63 551 428 
Q 206 919 206 1656 
L 206 1722 
Q 206 2494 550 2969 
Q 894 3444 1538 3444 
Q 2078 3444 2403 3034 
L 2459 3381 
L 3253 3381 
z
M 1113 1656 
Q 1113 1250 1258 958 
Q 1403 666 1759 666 
Q 2172 666 2347 997 
L 2347 2397 
Q 2178 2716 1766 2716 
Q 1413 2716 1263 2431 
Q 1113 2147 1113 1656 
z
" transform="scale(0.015625)"/>
     <path id="Roboto-Bold-5f" d="M 2850 0 
L 2850 -706 
L 3 -706 
L 3 0 
L 2850 0 
z
" transform="scale(0.015625)"/>
     <path id="Roboto-Bold-3d" d="M 3222 3069 
L 3222 2331 
L 428 2331 
L 428 3069 
L 3222 3069 
z
M 3222 1716 
L 3222 981 
L 428 981 
L 428 1716 
L 3222 1716 
z
" transform="scale(0.015625)"/>
    </defs>
    <use xlink:href="#Roboto-Bold-28"/>
    <use xlink:href="#Roboto-Bold-41" transform="translate(35.107422 0)"/>
    <use xlink:href="#Roboto-Bold-31" transform="translate(102.441406 0)"/>
    <use xlink:href="#Roboto-Bold-30" transform="translate(159.814453 0)"/>
    <use xlink:href="#Roboto-Bold-30" transform="translate(217.1875 0)"/>
    <use xlink:href="#Roboto-Bold-2c" transform="translate(274.560547 0)"/>
    <use xlink:href="#Roboto-Bold-20" transform="translate(299.023438 0)"/>
    <use xlink:href="#Roboto-Bold-73" transform="translate(323.925781 0)"/>
    <use xlink:href="#Roboto-Bold-65" transform="translate(375.390625 0)"/>
    <use xlink:href="#Roboto-Bold-71" transform="translate(429.443359 0)"/>
    <use xlink:href="#Roboto-Bold-5f" transform="translate(485.9375 0)"/>
    <use xlink:href="#Roboto-Bold-6c" transform="translate(530.615234 0)"/>
    <use xlink:href="#Roboto-Bold-65" transform="translate(557.128906 0)"/>
    <use xlink:href="#Roboto-Bold-6e" transform="translate(611.181641 0)"/>
    <use xlink:href="#Roboto-Bold-3d" transform="translate(667.1875 0)"/>
    <use xlink:href="#Roboto-Bold-34" transform="translate(724.414062 0)"/>
    <use xlink:href="#Roboto-Bold-30" transform="translate(781.787109 0)"/>
    <use xlink:href="#Roboto-Bold-39" transform="translate(839.160156 0)"/>
    <use xlink:href="#Roboto-Bold-36" transform="translate(896.533203 0)"/>
    <use xlink:href="#Roboto-Bold-29" transform="translate(953.90625 0)"/>
   </g>
  </g>
 </g>
 <defs>
  <clipPath id="pe94ae44783">
   <rect x="92.68" y="90.981" width="604.055" height="349.38025"/>
  </clipPath>
 </defs>
</svg>
